<svg xmlns="http://www.w3.org/2000/svg" width="24" height="24" fill="none" viewBox="0 0 24 24">
    <g fill="#fff" clip-path="url(#a)">
        <path fill-rule="evenodd" d="M15.396 1.534A10.992 10.992 0 0 0 12 1C5.925 1 1 5.925 1 12c0 1.292.223 2.532.632 3.683 1.395-1.207 3.803-.815 4.54 1.178l.262.705.705.261c1.993.737 2.385 3.146 1.178 4.541A10.98 10.98 0 0 0 12 23c6.075 0 11-4.925 11-11a10.99 10.99 0 0 0-.534-3.396c-1.226 1.966-4.34 1.779-5.206-.561l-.344-.93a.05.05 0 0 0-.03-.03l-.928-.343c-2.34-.866-2.528-3.98-.562-5.206Zm4.028 2.349c.241.22.473.452.693.693a3.99 3.99 0 0 0-.117.146A3.951 3.951 0 0 0 19.278 4c.05-.038.098-.077.146-.117ZM6.5 11a1.5 1.5 0 1 0 0-3 1.5 1.5 0 0 0 0 3Zm9 3a1.5 1.5 0 1 0 0-3 1.5 1.5 0 0 0 0 3Zm-2.79.54c.27-.433.018-.952-.43-1.089L8.222 12.22c-.448-.136-.947.156-.964.665-.046 1.395.758 2.669 2.048 3.06 1.291.393 2.667-.219 3.405-1.404Z" clip-rule="evenodd" />
        <path d="M19.09.634c.312-.845 1.508-.845 1.82 0l.345.93a2 2 0 0 0 1.181 1.181l.93.344c.845.313.845 1.509 0 1.822l-.93.344a2 2 0 0 0-1.181 1.181l-.344.93c-.313.845-1.509.845-1.822 0l-.344-.93a2 2 0 0 0-1.181-1.181l-.93-.344c-.845-.313-.845-1.509 0-1.822l.93-.344a2 2 0 0 0 1.181-1.181l.344-.93ZM2.703 17.555c.274-.74 1.32-.74 1.594 0l.261.705a2 2 0 0 0 1.182 1.182l.705.261c.74.274.74 1.32 0 1.594l-.705.261a2 2 0 0 0-1.182 1.182l-.261.705c-.274.74-1.32.74-1.594 0l-.261-.705a2 2 0 0 0-1.182-1.182l-.705-.261c-.74-.274-.74-1.32 0-1.594l.705-.261a2 2 0 0 0 1.182-1.182l.261-.705Z"/>
    </g>
    <defs>
        <clipPath id="a">
            <path fill="#fff" d="M0 0h24v24H0z"/>
        </clipPath>
    </defs>
</svg>