<svg width="185" height="140" viewBox="0 0 185 140" fill="none" xmlns="http://www.w3.org/2000/svg">
<g clip-path="url(#clip0_9008_171205)">
<rect y="-63" width="185" height="203.432" fill="url(#paint0_linear_9008_171205)"/>
<g clip-path="url(#clip1_9008_171205)">
<path d="M151.366 85.0675C148.615 81.4936 143.161 80.9101 138.977 81.9208L138.732 80.9049C143.244 79.816 149.157 80.4881 152.189 84.4319L151.361 85.0675H151.366Z" fill="#8CD9FF"/>
<path d="M162.683 92.5644L156.697 97.1854C155.999 97.7272 154.994 97.597 154.452 96.8989L150.174 91.3557C149.888 90.9858 149.779 90.5065 149.877 90.0532L150.987 84.7393C151.097 84.2235 151.56 83.864 152.086 83.8901L157.51 84.161C157.979 84.1818 158.411 84.411 158.698 84.7809L162.975 90.3241C163.517 91.0223 163.386 92.0277 162.688 92.5696L162.683 92.5644Z" fill="#8CD9FF"/>
<path d="M154.691 87.2223C154.857 86.6505 154.529 86.0518 153.957 85.8852C153.385 85.7185 152.787 86.0469 152.62 86.6187C152.453 87.1905 152.782 87.7892 153.354 87.9558C153.926 88.1225 154.524 87.7941 154.691 87.2223Z" fill="#66BCFF"/>
<path d="M41.346 97.7064C39.5174 97.7064 37.5741 97.3678 35.5684 96.6749L35.907 95.6903C42.1483 97.8471 47.7124 96.3519 50.7861 91.6891L51.6562 92.2622C49.3066 95.8309 45.6441 97.7064 41.346 97.7064Z" fill="#8CD9FF"/>
<path d="M22.5602 96.0654L24.8161 88.8446C25.0818 88.0007 25.9778 87.5318 26.8218 87.7923L33.506 89.8814C33.954 90.0221 34.3135 90.3503 34.501 90.7775L36.637 95.7684C36.8454 96.253 36.6683 96.8104 36.2255 97.0917L31.6252 99.9779C31.2293 100.228 30.7448 100.291 30.2967 100.15L23.6126 98.0607C22.7686 97.795 22.2997 96.899 22.5602 96.055V96.0654Z" fill="#8CD9FF"/>
<path d="M60.2682 88.0944C56.1264 89.7928 53.3913 95.5444 53.2559 101.911L67.0201 98.2483L60.2734 88.0944H60.2682Z" fill="#6990FF"/>
<path d="M121.613 97.248L111.496 99.2277C114.742 106.579 122.004 110.231 122.004 110.231C123.994 105.198 123.062 99.5611 121.608 97.248H121.613Z" fill="#6990FF"/>
<path d="M67.7662 39.6747C66.2554 36.3612 66.495 31.3182 71.8402 30.073C77.696 28.7081 80.129 34.1835 85.2971 37.1271L67.7662 39.6747Z" fill="#55F186"/>
<path d="M76.9141 36.851C84.6454 32.183 83.1918 25.6135 91.1837 24.8008C96.7008 24.2433 101.468 30.2606 97.8834 35.3245L76.9141 36.851Z" fill="#29CC7A"/>
<path d="M75.8527 40.2425C75.6807 40.2425 75.5088 40.1852 75.3629 40.0706C72.6122 37.8565 71.1118 32.3601 71.7109 26.7023C71.7578 26.2751 72.1433 25.9625 72.5705 26.0094C72.9977 26.0563 73.3103 26.4418 73.2634 26.869C72.6539 32.6206 74.3522 37.2521 76.3424 38.8567C76.681 39.1276 76.7331 39.6174 76.4622 39.956C76.3059 40.1488 76.0819 40.2477 75.8527 40.2477V40.2425Z" fill="#008D3C"/>
<path d="M87.2982 38.2055C86.9648 38.2055 86.6522 37.9867 86.5532 37.6533C86.4281 37.2417 86.6626 36.8041 87.0742 36.679C87.2096 36.6374 90.497 35.5225 91.5337 30.0991C91.6171 29.6771 92.0234 29.3958 92.4454 29.4791C92.8674 29.5625 93.1488 29.9688 93.0654 30.3908C91.8463 36.7937 87.7045 38.1221 87.5274 38.1742C87.4493 38.1951 87.3763 38.2107 87.2982 38.2107V38.2055Z" fill="#008D3C"/>
<path d="M120.546 53.7203C121.458 64.119 118.223 65.4318 108.559 66.281L106.553 43.4466C116.217 42.5974 119.634 43.3215 120.546 53.7255V53.7203Z" fill="#4970DE"/>
<path d="M115.726 53.168C113.83 34.5014 106.125 33.4386 84.2802 35.6527C67.6245 37.3407 59.4087 39.2579 57.2831 48.3438C49.1298 49.021 46.379 50.5527 47.0979 60.5607C47.8221 70.6312 50.8803 71.6419 60.1641 71.0324C64.3527 78.1281 72.7509 78.2323 88.4376 76.6381C110.287 74.4187 117.623 71.8347 115.726 53.1628V53.168Z" fill="url(#paint1_linear_9008_171205)"/>
<path d="M103.671 50.5475C104.864 51.48 107.047 50.1984 108.324 50.0942C109.741 49.9796 110.887 50.6412 112.127 50.0525C113.367 49.4638 113.539 47.6091 111.319 46.3848C109.095 45.1605 106.193 45.7336 104.354 47.6352C103.103 48.9272 103.15 50.1359 103.671 50.5422V50.5475Z" fill="black"/>
<path d="M92.1413 42.9881C83.144 43.8998 76.8662 45.6451 79.1064 56.6898C81.3466 67.7398 86.7023 67.4011 94.5378 66.604C102.368 65.8069 107.682 65.0619 107.661 53.788C107.64 42.514 101.139 42.0712 92.1413 42.9829V42.9881Z" fill="#B7CCFF"/>
<path d="M103.67 57.7005L99.6538 58.1069C98.7733 58.1954 98.1325 58.9821 98.2211 59.8626C98.3096 60.743 99.0963 61.3838 99.9768 61.2953L103.994 60.8889C104.874 60.8003 105.515 60.0136 105.426 59.1332C105.338 58.2527 104.551 57.6119 103.67 57.7005Z" fill="#6990FF"/>
<path d="M93.1588 58.7685L89.142 59.1749C88.2616 59.2634 87.6208 60.0501 87.7094 60.9306C87.7979 61.811 88.5846 62.4518 89.465 62.3632L93.4818 61.9569C94.3622 61.8683 95.003 61.0816 94.9145 60.2012C94.8259 59.3207 94.0392 58.6799 93.1588 58.7685Z" fill="#6990FF"/>
<path d="M56.6156 53.9338C53.4689 54.4861 52.8489 55.528 53.4168 60.2429C53.9794 64.9629 54.8286 65.8225 58.017 65.6194C58.5849 65.5829 59.0069 65.088 58.9391 64.5253L57.7721 54.783C57.7044 54.2204 57.173 53.84 56.6156 53.9338Z" fill="#B7CCFF"/>
<path d="M66.8694 52.4074C68.0624 53.3399 70.4173 51.9698 71.553 51.8395C72.6887 51.7093 74.0849 52.5064 75.3249 51.9177C76.5648 51.329 76.6534 49.5524 74.4861 48.2344C72.3188 46.9163 69.5107 47.2601 67.4112 49.318C66.1244 50.5788 66.3484 52.001 66.8694 52.4074Z" fill="black"/>
<path d="M71.6357 65.5465C74.0426 66.3696 77.1632 63.1291 76.7777 61.5454C76.5381 60.5555 75.4388 59.55 74.0947 59.029C71.9847 58.2111 69.7966 57.9767 68.8901 58.9978C67.9054 60.1022 68.864 64.5983 71.6304 65.5465H71.6357Z" fill="#D11583"/>
<path d="M70.7298 61.3682C69.99 61.1911 69.2606 61.1182 68.5781 61.1494C68.823 62.853 69.8493 64.9369 71.6363 65.5517C72.7616 65.9372 74.0484 65.4267 75.0539 64.6139C74.486 63.1812 72.8554 61.8892 70.7298 61.3734V61.3682Z" fill="#FF78B9"/>
<path d="M60.1171 67.547C58.7834 69.2089 56.3765 69.4694 54.7146 68.1409L53.6258 69.4955C54.4385 70.1467 54.5687 71.3293 53.9175 72.142C53.2663 72.9548 52.0837 73.085 51.2709 72.4338L50.479 73.4184C51.2918 74.0697 51.422 75.2523 50.7708 76.065C50.1196 76.8777 48.937 77.008 48.1242 76.3568L47.3323 77.3414C48.1451 77.9926 48.2753 79.1752 47.6241 79.988C46.9729 80.8007 45.7902 80.9309 44.9775 80.2797L43.8887 81.6343C45.5506 82.968 45.8059 85.3853 44.4826 87.0368L67.7807 105.73L83.4205 86.2345L60.1224 67.5418L60.1171 67.547Z" fill="url(#paint2_linear_9008_171205)"/>
<path d="M59.931 73.5644C59.3006 73.059 58.3785 73.158 57.8731 73.7884L50.0897 83.4942C49.5896 84.1194 49.6886 85.0415 50.319 85.5469L70.7986 101.973L80.4107 89.9908L59.931 73.5644Z" fill="url(#paint3_linear_9008_171205)"/>
<path d="M62.2279 75.4086L59.9251 73.5644C59.2948 73.059 58.3726 73.158 57.8673 73.7884L50.0839 83.4942C49.5837 84.1194 49.6827 85.0415 50.3131 85.5469L52.6158 87.3911L62.2279 75.4086Z" fill="#EB459F"/>
<path d="M93.2358 104.872C102.565 104.665 109.959 96.9353 109.753 87.6066C109.546 78.2779 101.816 70.8831 92.4869 71.0899C83.1581 71.2967 75.7634 79.0268 75.9702 88.3555C76.177 97.6843 83.9071 105.079 93.2358 104.872Z" fill="url(#paint4_linear_9008_171205)"/>
<path d="M94.8459 88.084C96.3724 87.1097 97.2268 85.2707 96.8412 83.3899C96.3411 80.9518 93.9602 79.3784 91.5168 79.8785C89.0787 80.3787 87.5053 82.7596 88.0055 85.2029C88.3858 87.0472 89.8393 88.3965 91.5846 88.7248C88.6931 90.1262 86.5519 93.5438 87.1719 96.5707L102.072 93.5177C101.457 90.5169 98.0655 88.2663 94.8407 88.0892L94.8459 88.084Z" fill="white"/>
<path d="M79.1347 84.5517C82.6149 84.9633 84.6415 83.8432 84.6415 83.8432C84.6415 83.8432 82.4898 82.6137 80.9946 81.6707C81.5833 79.5347 81.8699 76.0546 79.3796 73.5643C75.6963 69.8862 68.1004 71.0167 64.9537 76.0181C61.807 81.0195 64.7037 87.3129 70.2052 88.0735C75.2378 88.7664 78.3064 85.5676 79.1347 84.5517Z" fill="white"/>
<path d="M107.303 79.4618C105.516 82.4105 102.276 83.1868 99.8534 81.801C97.4308 80.4152 96.8473 76.7215 98.5405 74.0488C100.234 71.3762 103.568 70.7302 105.985 72.116C108.408 73.4966 108.944 76.7579 107.303 79.4618Z" fill="#FF78B9"/>
<path d="M117.701 85.5781L111.788 89.2354C109.866 86.0626 107.548 84.1454 105.891 82.9941L105.88 82.9836C105.177 82.4939 104.599 82.1449 104.218 81.8844C103.01 81.0664 102.603 79.0971 103.885 77.3414C105.224 75.5076 107.277 75.6014 108.459 76.3099C108.61 76.3933 109.204 76.6694 110.1 77.2685C110.1 77.2737 110.106 77.2737 110.106 77.2737C111.872 78.4511 114.805 80.8893 117.701 85.5781Z" fill="#484689"/>
<path d="M114.518 83.9318C109.428 85.0207 106.505 87.8496 104.213 90.8296L119.832 106.006C122.379 103.739 125.344 98.9152 125.755 94.69L114.518 83.9318Z" fill="url(#paint5_linear_9008_171205)"/>
<path d="M114.128 85.6458C112.445 89.6365 113.857 92.3769 113.857 92.3769C113.857 92.3769 117.832 95.1797 123.026 93.3563L114.133 85.6458H114.128Z" fill="#55F186"/>
<path d="M129.201 107.777C126.867 102.338 125.065 100.348 123.153 98.0816C121.559 96.1956 121.684 94.3045 122.778 92.9082C124.085 91.2463 127.159 90.8816 128.743 92.2935C129.014 92.5384 133.77 98.3316 135.458 103.265L129.201 107.777Z" fill="#484689"/>
<path d="M135.459 103.265L129.202 107.772C128.572 106.308 127.983 105.089 127.421 104.057C127.421 104.052 127.415 104.052 127.415 104.047C126.863 102.916 127.895 100.983 129.593 100.108C131.161 99.3007 133.631 99.3007 134.188 100.343C134.204 100.374 134.224 100.41 134.24 100.442C134.725 101.385 135.147 102.343 135.459 103.265Z" fill="#484689"/>
<path d="M135.459 103.265L129.202 107.772C128.572 106.308 127.983 105.089 127.421 104.057C127.421 104.052 127.415 104.052 127.415 104.047C126.863 102.916 127.895 100.983 129.593 100.108C131.161 99.3007 133.631 99.3007 134.188 100.343C134.204 100.374 134.224 100.41 134.24 100.442C134.725 101.385 135.147 102.343 135.459 103.265Z" fill="#5865F2"/>
<path d="M135.79 112.603C138.829 111.114 140.286 107.854 139.045 105.322C137.804 102.79 134.335 101.945 131.296 103.434C128.258 104.923 126.801 108.183 128.042 110.715C129.283 113.247 132.752 114.092 135.79 112.603Z" fill="#FF78B9"/>
<path d="M110.1 77.2685C109.344 76.8309 107.625 77.7113 106.614 79.1076C105.598 80.5142 105.312 82.4522 105.875 82.9836C105.171 82.4939 104.593 82.1449 104.213 81.8844C103.004 81.0664 102.598 79.0971 103.879 77.3414C105.218 75.5076 107.271 75.6014 108.453 76.3099C108.604 76.3933 109.198 76.6694 110.094 77.2685H110.1Z" fill="#5865F2"/>
<path d="M111.514 95.6226L110.686 94.987C110.795 94.8411 113.426 91.4339 117.344 88.6623L117.943 89.5115C114.155 92.1893 111.535 95.5861 111.509 95.6173L111.514 95.6226Z" fill="white"/>
<path d="M135.154 71.3606C144.287 67.0052 150.726 66.1821 151.602 68.0264C152.409 69.7352 147.866 73.8874 139.562 76.9247L135.16 71.3606H135.154Z" fill="#FF78B9"/>
<path d="M137.129 73.5644C141.427 71.5794 145.829 70.3708 146.241 71.1418C146.626 71.8712 142.339 74.2468 138.786 75.6639L137.129 73.5644Z" fill="#FFAED7"/>
<path d="M135.247 71.4752C137.498 61.6079 136.888 55.1478 134.893 54.6997C133.049 54.2882 129.996 59.6334 128.85 68.3962L135.247 71.4752Z" fill="#FF78B9"/>
<path d="M132.662 70.0321C133.657 65.4058 133.871 60.8473 133.027 60.6128C132.235 60.394 130.854 65.0985 130.25 68.8755L132.662 70.0321Z" fill="#FFAED7"/>
<path d="M136.681 88.3966C136.681 88.3966 140.176 87.8235 141.317 85.3437C143.073 81.5353 141.14 75.4815 134.118 70.4489C127.194 65.484 120.984 66.0466 119.066 68.886C117.441 71.2825 117.425 73.8561 117.425 73.8561C117.425 73.8561 114.841 74.1426 112.924 76.3932C110.726 78.9773 110.418 83.6609 116.55 89.7511C122.442 95.6017 130.7 97.5189 134.54 93.9711C136.493 92.1685 136.676 88.3966 136.676 88.3966H136.681Z" fill="#FF78B9"/>
<path d="M122.147 80.1912C122.423 79.8109 123.725 80.2589 124.726 81.0977C126.012 82.1813 126.617 83.3431 126.226 83.8276C124.731 85.6771 122.147 86.5002 121.167 85.7136C120.188 84.9269 120.459 82.5356 122.147 80.1912Z" fill="#EB459F"/>
<path d="M124.423 75.2916C124.46 73.9398 123.819 72.8254 122.99 72.8026C122.162 72.7797 121.46 73.8571 121.423 75.2089C121.386 76.5607 122.027 77.6751 122.855 77.6979C123.684 77.7208 124.385 76.6434 124.423 75.2916Z" fill="black"/>
<path d="M131.941 83.9697C133.307 83.8358 134.346 83.0238 134.261 82.1562C134.176 81.2885 132.999 80.6937 131.633 80.8276C130.267 80.9616 129.229 81.7735 129.314 82.6412C129.399 83.5088 130.576 84.1036 131.941 83.9697Z" fill="black"/>
<path d="M77.3101 91.0223C73.0693 91.5276 60.1907 97.6856 57.3254 99.3162L53.2565 101.916C53.2253 104.766 54.2776 110.611 59.2269 114.148C63.3322 117.082 70.4071 114.503 77.3257 109.548C83.4993 105.125 85.0101 102.531 84.9945 99.4152C84.9789 95.0442 81.5508 90.5169 77.3101 91.0223Z" fill="#6990FF"/>
<path d="M115.128 98.514C112.096 94.6066 109.106 90.9494 105.651 89.4333C102.791 88.1726 96.2061 90.3971 96.6958 96.081C97.4148 104.427 103.036 110.846 107.173 113.747C112.174 117.254 119.791 115.524 122.005 110.22C122.005 110.22 119.499 104.141 115.128 98.5088V98.514Z" fill="#6990FF"/>
<path d="M72.0702 78.1958C72.0702 78.1958 69.408 76.3307 68.3035 77.9978C66.8291 80.2172 72.711 84.3746 74.2218 83.7859C75.7326 83.1972 76.66 75.9868 74.3937 75.544C72.5182 75.1793 72.0649 78.1958 72.0649 78.1958H72.0702Z" fill="#FFAED7"/>
<path d="M34.4958 41.123C33.3132 40.3624 32.5161 39.1277 32.3077 37.7315L31.9534 35.361C31.9378 35.2464 31.8336 35.1578 31.719 35.1578C31.5992 35.1578 31.5002 35.2464 31.4845 35.361L31.1303 37.7315C30.9219 39.1225 30.1248 40.3572 28.9422 41.123L28.6348 41.321C28.5671 41.3627 28.5254 41.4408 28.5254 41.519V41.5346C28.5254 41.618 28.5671 41.6909 28.6348 41.7326L28.9422 41.9306C30.1248 42.6912 30.9219 43.9259 31.1303 45.3221L31.4845 47.6926C31.5002 47.8072 31.6044 47.8958 31.719 47.8958C31.8388 47.8958 31.9378 47.8072 31.9534 47.6926L32.3077 45.3221C32.5161 43.9311 33.3132 42.6964 34.4958 41.9306L34.8032 41.7326C34.8709 41.6909 34.9126 41.6128 34.9126 41.5346V41.519C34.9126 41.4356 34.8709 41.3627 34.8032 41.321L34.4958 41.123Z" fill="#FFE75C"/>
<path d="M146.794 31.6308C145.361 30.7087 144.392 29.2135 144.142 27.5255L143.715 24.6549C143.694 24.5142 143.574 24.41 143.428 24.41C143.287 24.41 143.162 24.5142 143.142 24.6549L142.714 27.5255C142.464 29.2135 141.495 30.7087 140.063 31.6308L139.693 31.8704C139.609 31.9225 139.562 32.0163 139.562 32.1153V32.1309C139.562 32.2299 139.615 32.3185 139.693 32.3758L140.063 32.6154C141.495 33.5376 142.464 35.0328 142.714 36.7207L143.142 39.5913C143.162 39.732 143.282 39.8362 143.428 39.8362C143.569 39.8362 143.694 39.732 143.715 39.5913L144.142 36.7207C144.392 35.0328 145.361 33.5376 146.794 32.6154L147.164 32.3758C147.247 32.3237 147.294 32.2299 147.294 32.1309V32.1153C147.294 32.0163 147.242 31.9277 147.164 31.8704L146.794 31.6308Z" fill="#8CD9FF"/>
<path d="M153.659 45.5253C152.82 44.9835 152.257 44.1134 152.111 43.1288L151.861 41.4512C151.851 41.3679 151.778 41.3054 151.695 41.3054C151.611 41.3054 151.538 41.3679 151.528 41.4512L151.278 43.1288C151.132 44.1134 150.564 44.9887 149.731 45.5253L149.512 45.6659C149.465 45.6972 149.434 45.7493 149.434 45.8066V45.817C149.434 45.8743 149.465 45.9264 149.512 45.9577L149.731 46.0984C150.569 46.6402 151.132 47.5102 151.278 48.4949L151.528 50.1724C151.538 50.2558 151.611 50.3183 151.695 50.3183C151.778 50.3183 151.851 50.2558 151.861 50.1724L152.111 48.4949C152.257 47.5102 152.825 46.635 153.659 46.0984L153.878 45.9577C153.924 45.9264 153.956 45.8743 153.956 45.817V45.8066C153.956 45.7493 153.924 45.6972 153.878 45.6659L153.659 45.5253Z" fill="#55F186"/>
<path d="M33.3065 96.584C33.8987 96.5204 34.3272 95.9888 34.2636 95.3966C34.2 94.8044 33.6684 94.3759 33.0762 94.4395C32.484 94.5031 32.0555 95.0348 32.1191 95.6269C32.1827 96.2191 32.7143 96.6476 33.3065 96.584Z" fill="#66BCFF"/>
</g>
</g>
<defs>
<linearGradient id="paint0_linear_9008_171205" x1="185" y1="-63" x2="125.34" y2="173.627" gradientUnits="userSpaceOnUse">
<stop stop-color="#3736BB"/>
<stop offset="0.339235" stop-color="#4670E8"/>
<stop offset="0.492065" stop-color="#8377EB"/>
<stop offset="0.823236" stop-color="#E782F1"/>
<stop offset="0.899558" stop-color="#DF90AF"/>
</linearGradient>
<linearGradient id="paint1_linear_9008_171205" x1="81.4372" y1="55.8376" x2="82.6493" y2="96.6592" gradientUnits="userSpaceOnUse">
<stop stop-color="#6990FF"/>
<stop offset="1" stop-color="#5980EF"/>
</linearGradient>
<linearGradient id="paint2_linear_9008_171205" x1="49.2935" y1="74.8848" x2="92.2782" y2="109.371" gradientUnits="userSpaceOnUse">
<stop offset="0.07" stop-color="#FF78B9"/>
<stop offset="0.35" stop-color="#FD74B7"/>
<stop offset="0.6" stop-color="#F969B1"/>
<stop offset="0.83" stop-color="#F257A8"/>
<stop offset="1" stop-color="#EB459F"/>
</linearGradient>
<linearGradient id="paint3_linear_9008_171205" x1="53.9721" y1="78.6373" x2="97.7655" y2="113.773" gradientUnits="userSpaceOnUse">
<stop stop-color="#FFAED7"/>
<stop offset="1" stop-color="#FF78B9"/>
</linearGradient>
<linearGradient id="paint4_linear_9008_171205" x1="90.3143" y1="71.1104" x2="96.639" y2="112.867" gradientUnits="userSpaceOnUse">
<stop stop-color="#FFE75C"/>
<stop offset="0.25" stop-color="#FFDD48"/>
<stop offset="0.74" stop-color="#FFCC25"/>
<stop offset="1" stop-color="#FFC619"/>
</linearGradient>
<linearGradient id="paint5_linear_9008_171205" x1="116.966" y1="92.7416" x2="101.983" y2="110.085" gradientUnits="userSpaceOnUse">
<stop stop-color="#484689"/>
<stop offset="1" stop-color="#242145"/>
</linearGradient>
<clipPath id="clip0_9008_171205">
<rect width="185" height="140" rx="10" fill="white"/>
</clipPath>
<clipPath id="clip1_9008_171205">
<rect width="145.353" height="91.1712" fill="white" transform="translate(19.8203 24.41)"/>
</clipPath>
</defs>
</svg>
