<svg width="222" height="132" viewBox="0 0 222 132" fill="none" xmlns="http://www.w3.org/2000/svg">
<g clip-path="url(#clip0_26602_17873)">
<path d="M214 0H8C3.58172 0 0 3.58172 0 8V124C0 128.418 3.58172 132 8 132H214C218.418 132 222 128.418 222 124V8C222 3.58172 218.418 0 214 0Z" fill="white"/>
<path d="M26.604 12.3799C26.604 12.6759 26.504 12.9119 26.304 13.0879C26.112 13.2639 25.868 13.3519 25.572 13.3519C25.284 13.3519 25.04 13.2639 24.84 13.0879C24.64 12.9119 24.54 12.6759 24.54 12.3799C24.54 12.0759 24.64 11.8359 24.84 11.6599C25.04 11.4759 25.284 11.3839 25.572 11.3839C25.868 11.3839 26.112 11.4759 26.304 11.6599C26.504 11.8359 26.604 12.0759 26.604 12.3799ZM26.484 20.1679C26.484 20.5359 26.432 20.8479 26.328 21.1039C26.232 21.3599 26.092 21.5679 25.908 21.7279C25.732 21.8879 25.516 22.0039 25.26 22.0759C25.012 22.1479 24.736 22.1839 24.432 22.1839C24.304 22.1839 24.18 22.1799 24.06 22.1719C23.94 22.1639 23.848 22.1519 23.784 22.1359L23.568 20.7199C23.632 20.7359 23.7 20.7479 23.772 20.7559C23.836 20.7639 23.912 20.7679 24 20.7679C24.208 20.7679 24.368 20.7159 24.48 20.6119C24.6 20.5079 24.66 20.3119 24.66 20.0239V14.1199H26.484V20.1679ZM31.3763 19.9999L31.2443 19.1959C30.9723 19.4599 30.6883 19.6799 30.3923 19.8559C30.1043 20.0319 29.7763 20.1199 29.4083 20.1199C28.8563 20.1199 28.4403 19.9639 28.1603 19.6519C27.8803 19.3319 27.7403 18.8839 27.7403 18.3079V14.1199H29.5523V17.8039C29.5523 18.0119 29.6003 18.1839 29.6963 18.3199C29.7923 18.4559 29.9483 18.5239 30.1643 18.5239C30.3403 18.5239 30.5083 18.4759 30.6683 18.3799C30.8363 18.2839 31.0003 18.1559 31.1603 17.9959V14.1199H32.9723V19.9999H31.3763ZM38.8177 18.1879C38.8177 18.8119 38.6097 19.2879 38.1937 19.6159C37.7857 19.9439 37.1897 20.1079 36.4057 20.1079C35.9337 20.1079 35.4857 20.0519 35.0617 19.9399C34.6457 19.8279 34.2857 19.6919 33.9817 19.5319L34.1977 18.1399C34.5497 18.3559 34.9217 18.5279 35.3137 18.6559C35.7137 18.7759 36.0817 18.8359 36.4177 18.8359C36.6737 18.8359 36.8617 18.7959 36.9817 18.7159C37.1017 18.6279 37.1617 18.5159 37.1617 18.3799C37.1617 18.3079 37.1457 18.2439 37.1137 18.1879C37.0897 18.1319 37.0417 18.0799 36.9697 18.0319C36.8977 17.9839 36.7977 17.9359 36.6697 17.8879C36.5417 17.8399 36.3737 17.7919 36.1657 17.7439C35.7977 17.6479 35.4817 17.5479 35.2177 17.4439C34.9537 17.3399 34.7337 17.2159 34.5577 17.0719C34.3897 16.9279 34.2657 16.7599 34.1857 16.5679C34.1057 16.3679 34.0657 16.1279 34.0657 15.8479C34.0657 15.2959 34.2617 14.8519 34.6537 14.5159C35.0457 14.1799 35.6057 14.0119 36.3337 14.0119C36.7337 14.0119 37.1177 14.0519 37.4857 14.1319C37.8537 14.2039 38.1897 14.3079 38.4937 14.4439L38.2657 15.8359C37.9457 15.6599 37.6137 15.5239 37.2697 15.4279C36.9337 15.3319 36.6217 15.2839 36.3337 15.2839C36.1257 15.2839 35.9697 15.3199 35.8657 15.3919C35.7617 15.4639 35.7097 15.5559 35.7097 15.6679C35.7097 15.7319 35.7217 15.7879 35.7457 15.8359C35.7777 15.8839 35.8297 15.9319 35.9017 15.9799C35.9737 16.0279 36.0737 16.0759 36.2017 16.1239C36.3297 16.1719 36.4977 16.2239 36.7057 16.2799C37.0977 16.3839 37.4257 16.4919 37.6897 16.6039C37.9617 16.7079 38.1817 16.8319 38.3497 16.9759C38.5177 17.1199 38.6377 17.2919 38.7097 17.4919C38.7817 17.6839 38.8177 17.9159 38.8177 18.1879ZM43.2335 19.9639C43.0895 20.0039 42.9375 20.0319 42.7775 20.0479C42.6255 20.0719 42.4295 20.0839 42.1895 20.0839C41.8775 20.0839 41.5895 20.0519 41.3255 19.9879C41.0615 19.9239 40.8335 19.8199 40.6415 19.6759C40.4575 19.5239 40.3135 19.3239 40.2095 19.0759C40.1055 18.8199 40.0535 18.5039 40.0535 18.1279V15.5959H39.2735V14.1199H40.0535V12.3679L41.8535 12.0799V14.1199H42.9695L43.1975 15.5959H41.8535V17.8399C41.8535 18.3039 42.0935 18.5359 42.5735 18.5359C42.7255 18.5359 42.8735 18.5159 43.0175 18.4759L43.2335 19.9639ZM43.8514 17.3719V15.6439H47.1274V17.3719H43.8514ZM52.6536 19.5919C52.3736 19.7679 52.0816 19.8999 51.7776 19.9879C51.4736 20.0679 51.1416 20.1079 50.7816 20.1079C50.3576 20.1079 49.9696 20.0399 49.6176 19.9039C49.2736 19.7679 48.9736 19.5719 48.7176 19.3159C48.4696 19.0599 48.2776 18.7479 48.1416 18.3799C48.0056 18.0039 47.9376 17.5799 47.9376 17.1079C47.9376 16.5959 48.0136 16.1479 48.1656 15.7639C48.3256 15.3719 48.5376 15.0479 48.8016 14.7919C49.0656 14.5359 49.3736 14.3439 49.7256 14.2159C50.0856 14.0879 50.4656 14.0239 50.8656 14.0239C51.2256 14.0239 51.5456 14.0639 51.8256 14.1439C52.1136 14.2239 52.3736 14.3319 52.6056 14.4679L52.3656 16.0159C52.1336 15.8719 51.9136 15.7639 51.7056 15.6919C51.5056 15.6199 51.2856 15.5839 51.0456 15.5839C50.6696 15.5839 50.3616 15.7079 50.1216 15.9559C49.8896 16.1959 49.7736 16.5639 49.7736 17.0599C49.7736 17.5639 49.9016 17.9399 50.1576 18.1879C50.4136 18.4279 50.7256 18.5479 51.0936 18.5479C51.3096 18.5479 51.5256 18.5159 51.7416 18.4519C51.9576 18.3799 52.1896 18.2639 52.4376 18.1039L52.6536 19.5919ZM57.0593 19.9999V16.3159C57.0593 16.1079 57.0113 15.9399 56.9153 15.8119C56.8273 15.6759 56.6753 15.6079 56.4593 15.6079C56.2833 15.6079 56.1113 15.6559 55.9433 15.7519C55.7833 15.8479 55.6233 15.9759 55.4633 16.1359V19.9999H53.6513V11.6239L55.4633 11.3359V14.8519C55.7113 14.6119 55.9753 14.4119 56.2553 14.2519C56.5353 14.0839 56.8553 13.9999 57.2153 13.9999C57.7673 13.9999 58.1833 14.1599 58.4633 14.4799C58.7433 14.7999 58.8833 15.2479 58.8833 15.8239V19.9999H57.0593ZM62.0767 12.3799C62.0767 12.6759 61.9767 12.9119 61.7767 13.0879C61.5847 13.2639 61.3407 13.3519 61.0447 13.3519C60.7567 13.3519 60.5127 13.2639 60.3127 13.0879C60.1127 12.9119 60.0127 12.6759 60.0127 12.3799C60.0127 12.0759 60.1127 11.8359 60.3127 11.6599C60.5127 11.4759 60.7567 11.3839 61.0447 11.3839C61.3407 11.3839 61.5847 11.4759 61.7767 11.6599C61.9767 11.8359 62.0767 12.0759 62.0767 12.3799ZM60.1327 19.9999V14.1199H61.9567V19.9999H60.1327ZM63.2733 19.9999V11.6239L65.0973 11.3359V19.9999H63.2733ZM66.4139 19.9999V11.6239L68.2379 11.3359V19.9999H66.4139ZM71.4985 12.3799C71.4985 12.6759 71.3985 12.9119 71.1985 13.0879C71.0065 13.2639 70.7625 13.3519 70.4665 13.3519C70.1785 13.3519 69.9345 13.2639 69.7345 13.0879C69.5345 12.9119 69.4345 12.6759 69.4345 12.3799C69.4345 12.0759 69.5345 11.8359 69.7345 11.6599C69.9345 11.4759 70.1785 11.3839 70.4665 11.3839C70.7625 11.3839 71.0065 11.4759 71.1985 11.6599C71.3985 11.8359 71.4985 12.0759 71.4985 12.3799ZM69.5545 19.9999V14.1199H71.3785V19.9999H69.5545ZM76.0672 19.9999V16.3159C76.0672 16.1079 76.0192 15.9399 75.9232 15.8119C75.8352 15.6759 75.6832 15.6079 75.4672 15.6079C75.2912 15.6079 75.1192 15.6559 74.9512 15.7519C74.7912 15.8479 74.6312 15.9759 74.4712 16.1359V19.9999H72.6592V14.1199H74.2552L74.3872 14.9239C74.6512 14.6599 74.9272 14.4399 75.2152 14.2639C75.5112 14.0879 75.8472 13.9999 76.2232 13.9999C76.7752 13.9999 77.1912 14.1599 77.4712 14.4799C77.7512 14.7999 77.8912 15.2479 77.8912 15.8239V19.9999H76.0672Z" fill="#060607"/>
<mask id="mask0_26602_17873" style="mask-type:luminance" maskUnits="userSpaceOnUse" x="8" y="38" width="138" height="86">
<path d="M142 38H12C9.79086 38 8 39.7909 8 42V120C8 122.209 9.79086 124 12 124H142C144.209 124 146 122.209 146 120V42C146 39.7909 144.209 38 142 38Z" fill="white"/>
</mask>
<g mask="url(#mask0_26602_17873)">
<path d="M146 38H8V123.981H146V38Z" fill="#A8BFFF"/>
<path d="M87.8984 98.236C92.6578 84.1623 106.047 81.9255 112.986 85.4391C112.023 77.9174 121.699 62.3051 140.034 71.8309H146V121.396H88.5531L87.8984 98.236Z" fill="#C2D2FF"/>
<path d="M27.5254 99.2402C26.2224 95.5715 20.4521 86.3787 8 87.9431V114.975H55.9245C55.8026 101.325 40.6964 93.9036 27.5254 99.2402Z" fill="#C2D2FF"/>
<path d="M8 123.981H146V92.4784H122.251V117.452H113.586V109.6H93.7622L57.8918 92.8631H42.0828V87.3066H34.2585V107.098L30.2501 105.805L24.7847 111.708H8V123.981Z" fill="#648AE8"/>
<path d="M24.7879 115.678H8V117.452H24.7879V115.678Z" fill="#7B6EB3"/>
<path d="M30.9824 124L37.1956 117.742H50.7228V123.981L30.9824 124Z" fill="#6273E3"/>
<path d="M140.034 121.395H104.629V124H140.034V121.395Z" fill="#6273E3"/>
<path d="M86.9031 57.6142C87.9293 57.6142 88.7613 56.7762 88.7613 55.7426C88.7613 54.709 87.9293 53.8711 86.9031 53.8711C85.8769 53.8711 85.0449 54.709 85.0449 55.7426C85.0449 56.7762 85.8769 57.6142 86.9031 57.6142Z" fill="#7D2952"/>
<path d="M74.2117 61.9384C75.2379 61.9384 76.0699 61.1005 76.0699 60.0668C76.0699 59.0332 75.2379 58.1953 74.2117 58.1953C73.1855 58.1953 72.3535 59.0332 72.3535 60.0668C72.3535 61.1005 73.1855 61.9384 74.2117 61.9384Z" fill="#7D2952"/>
<path d="M57.8758 66.3349C58.902 66.3349 59.734 65.4969 59.734 64.4633C59.734 63.4297 58.902 62.5918 57.8758 62.5918C56.8495 62.5918 56.0176 63.4297 56.0176 64.4633C56.0176 65.4969 56.8495 66.3349 57.8758 66.3349Z" fill="#7D2952"/>
<path d="M46.1746 68.5322C47.2008 68.5322 48.0328 67.6943 48.0328 66.6607C48.0328 65.6271 47.2008 64.7891 46.1746 64.7891C45.1483 64.7891 44.3164 65.6271 44.3164 66.6607C44.3164 67.6943 45.1483 68.5322 46.1746 68.5322Z" fill="#7D2952"/>
<path d="M33.4168 69.9443C34.443 69.9443 35.275 69.1064 35.275 68.0728C35.275 67.0392 34.443 66.2012 33.4168 66.2012C32.3905 66.2012 31.5586 67.0392 31.5586 68.0728C31.5586 69.1064 32.3905 69.9443 33.4168 69.9443Z" fill="#7D2952"/>
<path d="M21.3211 69.6122C22.3473 69.6122 23.1793 68.7743 23.1793 67.7407C23.1793 66.7071 22.3473 65.8691 21.3211 65.8691C20.2948 65.8691 19.4629 66.7071 19.4629 67.7407C19.4629 68.7743 20.2948 69.6122 21.3211 69.6122Z" fill="#7D2952"/>
<path d="M136.333 98.1181C137.359 98.1181 138.191 97.2802 138.191 96.2465C138.191 95.2129 137.359 94.375 136.333 94.375C135.307 94.375 134.475 95.2129 134.475 96.2465C134.475 97.2802 135.307 98.1181 136.333 98.1181Z" fill="#7D2952"/>
<path d="M143.433 38H8V62.9796C35.2534 70.2783 80.4436 59.2075 105.402 43.4562C113.878 85.1794 146 98.1476 146 98.1476V40.5859C146 39.1572 144.851 38 143.433 38Z" fill="#7D2952"/>
<path d="M8 38V43.0651C39.9614 61.0758 82.0418 51.4143 99.6994 38H8Z" fill="#70254A"/>
<path d="M146.001 38H118.594C119.662 62.9667 131.052 82.4416 146.001 92.4781V38Z" fill="#70254A"/>
<path d="M101.563 91.6648C99.9553 95.4789 97.0605 102.765 97.0605 102.765L104.403 107.377C107.356 100.428 108.357 96.7396 108.839 94.8098C109.317 92.8769 109.625 90.9892 107.138 89.4538C104.651 87.9185 103.258 87.6502 101.563 91.6648Z" fill="#F073AB"/>
<path d="M108.003 103.336L103.597 113.534C102.136 116.919 98.205 118.438 94.8705 116.906L78.4453 109.368L86.6355 96.3867L96.6453 102.001L98.1087 97.5924C103.269 99.6773 106.036 101.5 108.003 103.336Z" fill="#F7E5BC"/>
<path d="M88.8965 98.3887C95.5333 99.4845 96.127 100.878 97.905 104.359L90.7932 103.564L88.8965 98.3887Z" fill="#F7E5BC"/>
<path d="M57.7631 43.0193C55.0352 43.8727 53.437 46.7171 54.1174 49.5099L60.6964 76.5518L72.4585 74.1016L64.5476 46.6945C63.7068 43.7757 60.6483 42.1175 57.7631 43.0193Z" fill="#D6569B"/>
<path d="M64.3371 70.2234L68.9681 70.023L64.045 53.7255C63.7498 52.7429 62.6875 52.2224 61.7343 52.5877C60.9127 52.9045 60.4506 53.7869 60.656 54.6499L64.3371 70.2234Z" fill="#E374B0"/>
<path d="M61.8287 70.0232C59.0526 59.4178 56.3504 49.3781 55.1277 44.8496C54.1296 46.1232 53.7059 47.8266 54.1167 49.5139L59.1361 70.1395L61.8287 70.0232Z" fill="#F06EA8"/>
<path d="M85.0327 42.8881C87.7702 43.7123 89.3941 46.5374 88.7458 49.3398L82.446 76.4496L70.6582 74.1255L78.2835 46.6376C79.0987 43.7058 82.1379 42.0153 85.0327 42.8881Z" fill="#D6569B"/>
<path d="M72.2031 68.5623L73.2943 70.6989C73.2943 70.6989 77.4792 52.1032 79.4433 44.5039C78.9202 45.1019 78.5126 45.8195 78.2847 46.6373L72.2031 68.5623Z" fill="#F06EA8"/>
<path d="M80.5744 70.1584L75.9434 70.0065L80.6963 53.6573C80.982 52.6714 82.0378 52.1381 82.9942 52.4969C83.819 52.8072 84.2908 53.6831 84.095 54.5462L80.5744 70.1584Z" fill="#E374B0"/>
<path d="M87.6735 85.9841L53.6934 87.4484C48.8153 87.6585 44.6945 83.8475 44.4859 78.9344L44.4731 78.6661C44.2645 73.7529 48.0482 69.6026 52.9264 69.3925L86.9065 67.9282C91.7846 67.7181 95.9054 71.5291 96.114 76.4422L96.1268 76.7105C96.3322 81.6205 92.5484 85.774 87.6735 85.9841Z" fill="#F06EA8"/>
<path d="M57.7504 118.575C55.7413 116.713 53.8061 114.952 53.3857 114.267C52.9653 113.581 53.6681 113.362 54.6791 113.009C55.69 112.657 56.5565 113.882 57.5706 116.002C58.5848 118.126 59.5732 120.266 57.7504 118.575Z" fill="#F2C591"/>
<path d="M93.7624 109.6L91.8208 115.732L91.5769 116.508L89.2052 124H45.0484C44.6023 122.378 45.1319 122.051 46.2615 120.215C47.2211 118.654 46.7975 118.845 46.974 114.378C47.0959 111.262 48.2 108.343 52.2308 104.719C53.444 103.646 53.7456 103.223 54.9973 102.059C55.1192 101.946 55.2412 101.833 55.3631 101.723C55.4337 101.662 55.5043 101.597 55.5749 101.532C55.6487 101.464 55.7258 101.397 55.8028 101.325L85.9766 96.5254L85.9799 96.5286L92.0551 106.733L93.7624 109.6Z" fill="#F7E5BC"/>
<path d="M90.7974 109.624C92.662 104.633 92.7358 104.2 93.3841 105.645C94.0324 107.089 94.3886 107.018 91.3013 111.068C88.2107 115.122 89.9887 111.786 90.7974 109.624Z" fill="#E8C282"/>
<path d="M91.8204 115.731C91.6407 118.682 91.3679 121.462 91.0598 123.999H58.5945C58.6362 122.677 58.6844 121.032 58.7389 119.021C58.7454 118.818 58.7518 118.611 58.7582 118.401C58.771 117.971 58.7774 117.547 58.7774 117.137C58.7774 116.717 58.771 116.303 58.7582 115.899C58.5592 109.997 56.8647 105.95 52.2305 104.718C53.0777 103.852 53.9924 102.966 54.9969 102.058C55.1188 101.945 55.2408 101.832 55.3627 101.722C55.5072 101.592 55.6548 101.46 55.8056 101.327L85.9795 96.5273C88.3576 97.4227 89.9398 98.0336 91.7434 99.8761C91.9295 102.194 92.0258 104.489 92.0547 106.732C92.0932 109.848 92.0001 112.87 91.8204 115.731Z" fill="#1F3A70"/>
<path d="M85.9789 96.5273L85.5584 96.5952C85.321 96.8538 85.1669 97.0381 85.1669 97.0381C83.6264 103.512 80.3594 110.294 80.3594 110.294C80.3594 110.294 80.5295 111.962 82.7631 108.742C84.6759 105.982 86.9609 101.783 87.898 98.234C87.2626 97.6587 86.6239 97.0898 85.9789 96.5273Z" fill="#172E5C"/>
<path d="M59.1855 101.349C65.0136 108.431 67.0098 110.031 69.1793 111.486C71.1659 112.817 69.5355 110.768 67.2762 107.413C65.0168 104.058 62.3981 99.8652 62.3981 99.8652L59.1855 101.349Z" fill="#172E5C"/>
<path d="M91.7072 116.461C91.5468 119.102 91.3158 121.629 91.0429 123.999H58.5938C58.6355 122.677 58.6836 121.031 58.7382 119.021C58.7446 118.817 58.751 118.61 58.7574 118.4C58.7703 117.97 58.7766 117.547 58.7766 117.136C58.7766 116.82 58.7703 116.509 58.7606 116.199C58.7574 116.099 58.7574 115.999 58.7542 115.898H58.7574C65.7762 117.605 75.0093 120.692 77.1082 121.416L91.5756 116.506L91.7072 116.461Z" fill="#172E5C"/>
<path d="M61.5031 105.457C61.5031 105.457 61.211 106.055 59.953 106.912C58.695 107.768 58.3612 108.169 58.2136 107.878C57.193 105.839 55.5819 104.432 53.1621 103.789C53.9965 102.929 54.9176 102.057 55.9093 101.139C60.4023 103.065 61.5031 105.457 61.5031 105.457Z" fill="#244AB0"/>
<path d="M83.3199 96.5254L77.2383 119.507L61.625 97.2042L83.3199 96.5254Z" fill="#D4BF9B"/>
<path d="M80.4662 107.301L70.0713 104.557C68.1971 104.063 69.1438 104.719 70.0713 105.882C70.8512 106.862 76.538 113.423 78.3064 115.466L80.4662 107.301Z" fill="#CCAC89"/>
<path d="M65.0156 100.89C65.0156 100.89 77.6571 102.613 79.2746 102.81C80.892 103.007 80.9113 101.271 81.7393 97.8613L66.386 98.9861L65.0156 100.89Z" fill="#CF518A"/>
<path d="M89.686 100.268L54.7335 101.774C50.1249 101.971 46.232 98.3704 46.0331 93.732C45.8373 89.0903 49.4125 85.1695 54.0178 84.9691L88.9703 83.4628C93.5789 83.2656 97.4718 86.8665 97.6707 91.5049C97.8697 96.1466 94.2946 100.071 89.686 100.268Z" fill="#F06EA8"/>
<path d="M89.494 100.278C93.9741 100.084 97.6552 96.4408 97.6809 91.9252C97.7002 88.4213 95.6109 85.4572 92.6583 84.1611C94.8728 82.4544 96.2528 79.7295 96.1244 76.7105L96.1115 76.4422C95.9061 71.5323 91.7822 67.7181 86.9073 67.9282L56.5633 69.2341C53.8354 74.4931 54.2109 80.1497 56.2199 84.2193C56.8297 85.4572 56.881 86.8892 56.3964 88.1821C53.4663 96.0173 57.3303 101.661 57.3271 101.661L89.494 100.278Z" fill="#E05FA3"/>
<path d="M72.3305 124H52.5805C52.5612 123.615 52.5644 123.26 52.5933 122.93C52.5965 122.904 52.5998 122.882 52.5998 122.856C52.6126 122.746 52.6254 122.642 52.6415 122.539C52.6704 122.342 52.7121 122.154 52.7602 121.976C52.7923 121.867 52.8276 121.757 52.8661 121.653C52.9271 121.498 52.9945 121.349 53.0683 121.21C53.1453 121.068 53.2288 120.936 53.3186 120.813C53.3796 120.729 53.447 120.648 53.5144 120.57C53.5497 120.532 53.585 120.493 53.6203 120.457C54.0857 119.969 54.7018 119.597 55.4528 119.277C56.3546 118.89 57.3559 118.796 58.3251 118.954C58.4631 118.977 58.6012 118.999 58.7392 119.022C62.5807 119.646 65.9023 120.16 68.7105 120.894C68.8485 120.929 68.9832 120.971 69.1116 121.026C69.5031 121.168 69.8498 121.366 70.1707 121.608C70.2349 121.656 70.2958 121.705 70.36 121.757C70.421 121.808 70.482 121.86 70.543 121.915C70.6039 121.967 70.6649 122.022 70.7227 122.08C70.7837 122.138 70.8414 122.196 70.8992 122.254C70.957 122.316 71.0147 122.374 71.0725 122.439C71.1303 122.5 71.1848 122.562 71.2426 122.626C71.525 122.949 71.8042 123.299 72.0898 123.667C72.1797 123.783 72.2599 123.893 72.3305 124Z" fill="#FF8FB1"/>
<path d="M64.9797 84.3829C65.7564 83.87 65.8039 82.5598 65.0857 81.4565C64.3675 80.3532 63.1557 79.8746 62.3789 80.3875C61.6022 80.9004 61.5548 82.2106 62.2729 83.3139C62.9911 84.4172 64.203 84.8958 64.9797 84.3829Z" fill="#1B1926"/>
<path d="M80.2017 82.0652C80.5334 80.8704 80.1327 79.7132 79.3065 79.4805C78.4804 79.2478 77.5418 80.0278 77.21 81.2226C76.8783 82.4174 77.2791 83.5746 78.1052 83.8073C78.9313 84.0399 79.87 83.26 80.2017 82.0652Z" fill="#1B1926"/>
<path d="M49.8948 85.1771C47.9949 84.4369 47.5167 84.2397 46.1816 83.8066C47.2407 85.2741 48.5629 86.1242 49.4712 86.567C49.3364 86.6672 49.2144 86.7803 49.0861 86.887C50.1195 86.9581 50.787 87.0615 51.7241 87.026C53.5502 86.9613 53.8583 86.7189 49.8948 85.1771Z" fill="#E05FA3"/>
<path d="M50.5034 74.6849C51.912 73.3926 52.6505 71.8989 52.1528 71.3485C51.655 70.7982 50.1096 71.3996 48.701 72.6919C47.2923 73.9842 46.5539 75.478 47.0516 76.0283C47.5493 76.5787 49.0947 75.9772 50.5034 74.6849Z" fill="#F792C0"/>
<path d="M48.2604 119.452C50.9433 118.347 51.8708 117.907 52.7855 117.578C53.7001 117.248 52.9138 116.908 50.8599 116.007C48.8059 115.105 48.3181 114.765 48.1705 116.533C48.0229 118.302 47.3778 119.818 48.2604 119.452Z" fill="#FAD596"/>
<path d="M53.5627 118.53C48.9669 119.788 48.922 120.415 48.8033 121.22C48.6171 122.49 48.7904 122.755 50.5042 121.462C52.218 120.169 54.1468 119.073 55.0229 118.686C55.899 118.301 55.4465 118.016 53.5627 118.53Z" fill="#F7D08D"/>
<path d="M59.5352 118.494C60.4145 113.827 60.299 112.56 60.7098 112.482C61.1206 112.405 61.8234 113.53 62.5294 115.007C63.2355 116.484 59.5352 118.494 59.5352 118.494Z" fill="#172E5C"/>
<path d="M58.3245 118.954C56.8547 119.138 54.0273 119.177 53.7063 124H52.5831C52.5414 123.202 52.6023 122.539 52.7596 121.976C52.7917 121.867 52.827 121.757 52.8655 121.653C52.9265 121.498 52.9939 121.349 53.0677 121.21C53.1447 121.068 53.2282 120.936 53.318 120.813C53.379 120.729 53.4464 120.648 53.5138 120.57C53.5491 120.532 53.5844 120.493 53.6197 120.457C54.085 119.969 54.7012 119.597 55.4522 119.277C56.354 118.89 57.3553 118.796 58.3245 118.954Z" fill="#F278B0"/>
<path d="M69.1948 123.999C69.8527 122.538 70.0677 121.568 69.1113 121.025C69.7339 121.258 70.2506 121.627 70.7224 122.079C70.7834 122.137 70.8411 122.195 70.8989 122.254C70.9567 122.315 71.0144 122.373 71.0722 122.438C71.13 122.499 71.1845 122.561 71.2423 122.625C71.5247 122.949 71.8039 123.298 72.0896 123.666C72.1794 123.783 72.2596 123.892 72.3303 123.999H69.1948Z" fill="#F278B0"/>
<path d="M68.3436 88.3369C70.465 91.954 73.5683 92.775 75.6608 88.1107C75.7443 87.9264 75.6063 87.7163 75.4073 87.7228L68.5683 87.9232C68.3596 87.9297 68.2377 88.1592 68.3436 88.3369Z" fill="#751B40"/>
<path d="M62.0664 85.1991C63.5459 82.3417 66.4118 83.5441 66.4118 83.5441L64.9965 86.7215L62.0664 85.1991Z" fill="#E05FA3"/>
<path d="M76.5059 82.8761C79.468 81.664 80.8833 84.447 80.8833 84.447L77.7607 85.9468L76.5059 82.8761Z" fill="#E05FA3"/>
<path d="M72.6068 87.8027L68.5598 87.9191C68.3544 87.9255 68.2357 88.1518 68.3384 88.3296C70.1581 91.4359 72.703 92.4832 74.7121 89.7712C74.3558 89.1506 73.7236 88.4169 72.6068 87.8027Z" fill="#9C2455"/>
<path d="M96.6667 103.727C96.6667 103.727 98.7656 108.808 99.4652 110.873C100.165 112.942 99.1796 112.671 98.066 112.493C96.9524 112.312 96.8304 110.861 96.6667 108.171C96.5063 105.479 96.0281 102.411 96.6667 103.727Z" fill="#FAD596"/>
<path d="M98.8719 102.364C99.2089 104.571 100.335 106.601 100.563 107.154C100.791 107.707 102.437 107.338 103.901 106.97C105.364 106.601 104.45 106.094 102.665 104.62C100.884 103.146 98.5991 100.566 98.8719 102.364Z" fill="#FAD596"/>
<path d="M33.8543 114.287L31.7105 113.327C31.672 113.311 31.672 113.256 31.7105 113.237L33.8543 112.277C33.864 112.27 33.8736 112.264 33.88 112.251L34.8332 110.092C34.8492 110.053 34.9038 110.053 34.923 110.092L35.8762 112.251C35.8826 112.261 35.889 112.27 35.9019 112.277L38.0457 113.237C38.0842 113.253 38.0842 113.308 38.0457 113.327L35.9019 114.287C35.8922 114.294 35.8826 114.3 35.8762 114.313L34.923 116.472C34.907 116.511 34.8524 116.511 34.8332 116.472L33.88 114.313C33.8736 114.3 33.8672 114.29 33.8543 114.287Z" fill="#3366E0"/>
<path d="M102.774 70.6321L101.766 70.1796C101.747 70.1699 101.747 70.1473 101.766 70.1376L102.774 69.685C102.781 69.6818 102.784 69.6786 102.787 69.6721L103.236 68.6571C103.243 68.6378 103.268 68.6378 103.278 68.6571L103.727 69.6721C103.73 69.6786 103.734 69.6818 103.74 69.685L104.748 70.1376C104.767 70.1473 104.767 70.1699 104.748 70.1796L103.74 70.6321C103.734 70.6354 103.73 70.6386 103.727 70.645L103.278 71.66C103.272 71.6794 103.246 71.6794 103.236 71.66L102.787 70.645C102.784 70.6386 102.781 70.6321 102.774 70.6321Z" fill="#755F5F"/>
<path d="M41.9128 58.0227L40.9051 57.5702C40.8858 57.5605 40.8858 57.5379 40.9051 57.5282L41.9128 57.0757C41.9192 57.0724 41.9224 57.0692 41.9256 57.0627L42.3749 56.0478C42.3846 56.0284 42.407 56.0284 42.4166 56.0478L42.866 57.0627C42.8692 57.0692 42.8724 57.0724 42.8788 57.0757L43.8865 57.5282C43.9058 57.5379 43.9058 57.5605 43.8865 57.5702L42.8788 58.0227C42.8724 58.026 42.8692 58.0292 42.866 58.0357L42.4166 59.0506C42.4102 59.07 42.3846 59.07 42.3749 59.0506L41.9256 58.0357C41.9224 58.0292 41.9192 58.0227 41.9128 58.0227Z" fill="#F7E5BC"/>
<path d="M136.337 38H131.33V124H136.337V38Z" fill="#783837"/>
<path d="M20.9714 38H15.9648V124H20.9714V38Z" fill="#783837"/>
<path d="M136.337 38H131.33V103.513H136.337V38Z" fill="#571E2F"/>
<path d="M20.9714 38H15.9648V77.0953H20.9714V38Z" fill="#571E2F"/>
<path d="M105.028 54.7724C106.054 54.7724 106.886 53.9345 106.886 52.9008C106.886 51.8672 106.054 51.0293 105.028 51.0293C104.002 51.0293 103.17 51.8672 103.17 52.9008C103.17 53.9345 104.002 54.7724 105.028 54.7724Z" fill="#7D2952"/>
<path d="M94.3308 54.4169C95.3571 54.4169 96.189 53.579 96.189 52.5454C96.189 51.5117 95.3571 50.6738 94.3308 50.6738C93.3046 50.6738 92.4727 51.5117 92.4727 52.5454C92.4727 53.579 93.3046 54.4169 94.3308 54.4169Z" fill="#7D2952"/>
<path d="M8 64.4629V68.2027C9.02698 68.2027 9.85819 67.3655 9.85819 66.3312C9.85819 65.2968 9.02698 64.4629 8 64.4629Z" fill="#7D2952"/>
<path d="M107.261 62.7587C108.287 62.7587 109.119 61.9208 109.119 60.8871C109.119 59.8535 108.287 59.0156 107.261 59.0156C106.234 59.0156 105.402 59.8535 105.402 60.8871C105.402 61.9208 106.234 62.7587 107.261 62.7587Z" fill="#7D2952"/>
<path d="M118.593 81.5595C119.619 81.5595 120.451 80.7216 120.451 79.6879C120.451 78.6543 119.619 77.8164 118.593 77.8164C117.566 77.8164 116.734 78.6543 116.734 79.6879C116.734 80.7216 117.566 81.5595 118.593 81.5595Z" fill="#7D2952"/>
<path d="M125.21 89.1786C126.236 89.1786 127.068 88.3407 127.068 87.3071C127.068 86.2735 126.236 85.4355 125.21 85.4355C124.184 85.4355 123.352 86.2735 123.352 87.3071C123.352 88.3407 124.184 89.1786 125.21 89.1786Z" fill="#7D2952"/>
<path d="M111.897 71.4657C112.923 71.4657 113.755 70.6278 113.755 69.5942C113.755 68.5606 112.923 67.7227 111.897 67.7227C110.871 67.7227 110.039 68.5606 110.039 69.5942C110.039 70.6278 110.871 71.4657 111.897 71.4657Z" fill="#7D2952"/>
<path d="M127.697 98.418H126.426V100.955H127.697V98.418Z" fill="#5177D6"/>
<path d="M141.304 106.742H140.033V109.28H141.304V106.742Z" fill="#5177D6"/>
<path d="M130.269 108.775H128.998V111.313H130.269V108.775Z" fill="#5177D6"/>
<path d="M127.062 115.678H125.791V118.215H127.062V115.678Z" fill="#5177D6"/>
<path d="M108.509 116.943H107.238V119.481H108.509V116.943Z" fill="#5177D6"/>
<path d="M44.9525 102.143H43.6816V104.68H44.9525V102.143Z" fill="#5177D6"/>
<path d="M27.4096 116.943H26.1387V119.481H27.4096V116.943Z" fill="#5177D6"/>
<path d="M42.6791 86.1367H33.6289V87.3101H42.6791V86.1367Z" fill="#8F80CF"/>
<path d="M119.674 115.678H113.586V117.452H119.674V115.678Z" fill="#8F80CF"/>
</g>
<mask id="mask1_26602_17873" style="mask-type:luminance" maskUnits="userSpaceOnUse" x="150" y="43" width="64" height="37">
<path d="M210 43H154C151.791 43 150 44.7909 150 47V76C150 78.2091 151.791 80 154 80H210C212.209 80 214 78.2091 214 76V47C214 44.7909 212.209 43 210 43Z" fill="white"/>
</mask>
<g mask="url(#mask1_26602_17873)">
<path d="M214 43H150V80H214V43Z" fill="#5E87F9"/>
<path d="M150 61.5004C155.946 59.902 162.961 62.0015 165.094 66.7147C171.479 64.7116 178.865 68.4284 182.341 72.7895H150V61.5004Z" fill="#6E94FF"/>
<path d="M214 54.7545C210.114 54.1102 205.529 54.9562 204.135 56.8584C199.961 56.0505 195.135 57.5495 192.863 59.3085H214V54.7545Z" fill="#7A9DFF"/>
<path d="M198.776 74.9038C197.577 72.4157 197.613 72.3105 195.496 71.5625L198.311 75.5233L198.776 74.9038Z" fill="#FF707E"/>
<path d="M166.125 52.8764C166.165 52.9158 166.209 52.9567 166.254 52.9962C166.346 53.0838 166.443 53.1671 166.537 53.2519C166.574 53.2811 166.607 53.3132 166.644 53.3424C166.726 53.4111 166.8 53.4769 166.867 53.5353C171.827 57.7211 178.206 59.4977 182.516 60.7673C188.081 62.408 192.714 62.8828 196.188 62.8974C200.691 62.8536 201.601 60.5423 199.702 57.7985L198.622 56.5041L193.119 49.9295C193.03 49.82 192.938 49.7148 192.848 49.6081C189.226 45.3785 185.96 43.485 179.102 44.9446L168.67 47.1624C168.659 47.1653 168.647 47.1653 168.637 47.1697C164.992 47.9572 163.283 50.1224 166.125 52.8764Z" fill="url(#paint0_linear_26602_17873)"/>
<path d="M178.135 45.7546C173.966 46.7641 166.823 48.8096 166.823 48.8096L165.094 49.0521C165.697 48.1842 166.962 47.5297 168.638 47.1674C168.648 47.1645 168.66 47.1645 168.67 47.1601L179.102 44.9423C182.34 44.2541 184.772 44.3199 186.824 45.0182C183.646 44.2746 181.805 44.8663 178.135 45.7546Z" fill="#FFFDC4"/>
<path d="M182.213 61.3019C178.55 60.2237 170.721 57.1775 167.684 54.1956C168.395 54.8939 167.693 53.636 169.063 54.292C176.267 57.7385 192.632 62.3991 196.187 62.9002C192.7 63.1004 185.94 62.4006 182.213 61.3019Z" fill="#FFFDC4"/>
<path d="M165.281 48.812C168.499 47.8696 175.748 48.7214 183.779 51.1905C192.163 53.7677 198.823 57.3151 200.605 59.9288C200.815 61.6411 199.446 62.8654 196.186 62.8976C192.712 62.883 188.08 62.4096 182.514 60.7674C178.205 59.4978 171.826 57.7227 166.865 53.5354C166.798 53.477 166.724 53.4112 166.642 53.3426C166.605 53.3134 166.572 53.2812 166.535 53.252C166.442 53.1687 166.346 53.084 166.252 52.9963C166.207 52.9569 166.163 52.916 166.122 52.8765C164.464 51.2694 164.359 49.8625 165.281 48.812Z" fill="url(#paint1_linear_26602_17873)"/>
<path d="M196.246 60.7519C196.714 59.2835 190.768 56.1483 182.966 53.7493C175.163 51.3503 168.458 50.5959 167.989 52.0643C167.52 53.5327 173.466 56.6679 181.269 59.0669C189.072 61.466 195.777 62.2204 196.246 60.7519Z" fill="#6B3143"/>
<path d="M168.057 52.599C167.961 52.4018 167.935 52.2236 167.987 52.0629C168.013 51.9796 168.057 51.9065 168.124 51.8364L176.182 55.2274L170.144 51.3221C170.39 51.3119 170.649 51.3119 170.928 51.3221L176.526 54.9922C176.752 54.9498 177.095 54.9527 177.525 54.9936L174.459 51.6976C174.831 51.756 175.216 51.8247 175.611 51.8978L177.967 55.0448C178.443 55.1105 178.995 55.2113 179.606 55.3487L177.855 52.3682C178.198 52.4486 178.543 52.5289 178.896 52.6166L180.046 55.4495C180.399 55.5342 180.768 55.6292 181.148 55.7344L180.348 52.9921C180.761 53.1016 181.18 53.2185 181.605 53.3427L181.984 55.9506H181.896C181.996 55.9798 182.094 56.009 182.195 56.0397L183.044 53.7693C183.364 53.8672 183.675 53.9665 183.987 54.0688L182.517 56.1405C182.768 56.2194 183.016 56.2998 183.255 56.3816L185.37 54.5276C185.75 54.6591 186.125 54.7906 186.488 54.922L183.877 56.5978C184.147 56.6942 184.403 56.7907 184.651 56.8871L187.884 55.4465C188.353 55.6292 188.81 55.8118 189.247 55.993L185.245 57.1282C185.589 57.2713 185.909 57.4131 186.19 57.5504L191.849 57.1647C192.336 57.4014 192.79 57.6395 193.209 57.8718H186.809C186.979 57.9682 187.125 58.0603 187.248 58.1465L195.045 59.0348C195.435 59.3299 195.74 59.6104 195.948 59.8661L187.628 58.484C187.685 58.5629 187.705 58.6345 187.686 58.6944C187.668 58.7484 187.615 58.7908 187.537 58.8229L196.156 60.9195C196.015 61.105 195.747 61.2482 195.365 61.3461H195.362L186.719 58.896C186.342 58.8785 185.873 58.82 185.328 58.725L192.217 61.4294C191.882 61.4045 191.529 61.3636 191.158 61.3198H191.151L184.446 58.5512C184.367 58.5337 184.285 58.5147 184.203 58.4957L188.52 60.9005C187.862 60.7734 187.179 60.6302 186.466 60.4666H186.463L183.353 58.2911C182.816 58.1538 182.251 57.9945 181.669 57.8148C180.96 57.5971 180.292 57.3692 179.677 57.1399L177.026 57.6249C176.142 57.2962 175.306 56.9616 174.523 56.63L178.577 56.7059C178.571 56.703 178.564 56.7001 178.556 56.6972L172.356 55.6409L172.353 55.6379C171.655 55.2946 171.022 54.9556 170.473 54.6313L177.328 56.1245C177.163 56.0368 177.017 55.9535 176.886 55.8732L168.057 52.599Z" fill="#7A384C"/>
<path d="M204.03 80.0007H167.953C168.586 79.3681 169.369 78.978 170.596 78.4097L173.39 78.0385L174.417 77.8998L176.648 77.6017L178.336 77.3781H178.34L179.348 77.2437L179.789 77.1854L183.962 76.6287L184.937 76.4972L186.51 76.2883L187.132 76.2035L188.356 76.0413L188.65 76.0034L191.356 75.6439L197.788 74.7864L198.125 74.7396C198.326 74.7353 198.515 74.7353 198.7 74.7396C201.744 74.8185 202.814 76.1554 204.03 80.0007Z" fill="#2347A1"/>
<path d="M198.604 78.61L197.476 79.9994H190.883L194.553 76.3848L196.15 77.2614L198.604 78.61Z" fill="#2A52C2"/>
<path d="M198.125 74.7402C198.125 74.7402 198.058 74.8293 197.936 74.9944C197.885 75.0601 197.83 75.1332 197.763 75.2223C197.704 75.2954 197.641 75.3801 197.567 75.4765C197.229 75.9134 196.745 76.527 196.152 77.2604C195.735 77.763 195.266 78.3226 194.755 78.9201C194.607 79.094 194.452 79.2722 194.296 79.4534C194.138 79.6316 193.981 79.8128 193.816 79.9983H170.857C170.672 79.0297 170.598 78.4073 170.598 78.4073V78.4029C170.598 78.0946 170.767 77.8039 171.043 77.6505L173.135 76.4729V76.4685H173.14L173.128 76.3181C173.123 76.2684 173.12 76.2172 173.12 76.172C173.104 75.9324 173.089 75.7161 173.082 75.5393L173.07 75.3465C173.062 75.2267 173.058 75.1376 173.053 75.0835C173.049 75.0411 173.049 75.0178 173.049 75.0178L172.975 73.8007C172.943 73.3025 173.164 72.8277 173.564 72.5224L176.341 70.4024L176.588 70.2096L177.352 69.631L179.272 68.1642L180.369 68.0064C180.369 68.0064 180.369 68.0064 180.373 68.0064L181.824 67.7902H181.841L183.797 67.5082L184.367 67.4234L185.834 67.2116L186.534 67.1079L186.651 67.0918L187.032 67.1502L187.532 67.2277L188.571 67.3898C189.476 67.533 190.274 68.0429 190.77 68.7997L191.895 70.5179H191.899L191.981 70.5442H191.986L192.694 70.7487L195.026 71.4251L195.498 71.5639C195.608 71.6019 195.714 71.6414 195.812 71.6794C195.82 71.6794 195.829 71.6837 195.836 71.6867C196.461 71.9526 196.973 72.4318 197.275 73.0381L198.125 74.7402Z" fill="#EF6270"/>
<path d="M192.693 70.7502C192.135 69.3914 191.846 67.7785 188.353 67.0918L185.781 66.7148L185.985 68.7734L190.86 71.9277L192.693 70.7502Z" fill="#FF707E"/>
<path d="M198.126 74.7402C198.126 74.7402 198.059 74.8293 197.936 74.9944C197.886 75.0601 197.831 75.1332 197.764 75.2223C197.704 75.2954 197.642 75.3801 197.567 75.4765C197.23 75.9134 196.746 76.527 196.152 77.2604C195.735 77.763 195.266 78.3226 194.756 78.9201C194.607 79.094 194.452 79.2722 194.296 79.4534C194.138 79.6316 193.977 79.8157 193.812 79.9983H183.045C183.297 79.1334 183.67 77.817 183.845 77.0676C183.88 76.9127 183.919 76.7666 183.962 76.6278C184.221 75.7044 184.434 75.1449 182.865 74.9023L183.026 74.1032L183.737 70.5471C183.742 70.5515 183.742 70.5471 183.742 70.5471L183.926 69.6091C183.926 69.6047 183.926 69.6047 183.926 69.6018L184.068 68.9224V68.9181L184.304 67.7449V67.7405L184.367 67.4234L185.835 67.2116L186.534 67.1079L186.652 67.0918L187.033 67.1502L187.533 67.2277L188.572 67.3898C189.477 67.533 190.274 68.0429 190.77 68.7997L191.898 70.5179L191.98 70.5442H191.984L192.693 70.7487L195.025 71.4251L195.497 71.5639C195.607 71.6019 195.713 71.6414 195.811 71.6794C195.819 71.6794 195.827 71.6837 195.835 71.6867C196.46 71.9526 196.972 72.4318 197.274 73.0381L198.126 74.7402Z" fill="#E05164"/>
<path d="M188.2 70.9457C189.956 69.6498 189.837 69.7506 188.867 69.1238C187.898 68.497 186.877 68.4941 186.877 68.4941L188.2 70.9457Z" fill="#BD3C53"/>
<path d="M188.648 76.0031L185.784 79.999H183.617C184.797 78.7557 186.028 77.4276 187.13 76.2033C188.7 74.4545 189.998 72.9248 190.485 72.1797L190.336 73.1264L190.23 73.7985L188.648 76.0031Z" fill="#E05164"/>
<path d="M192.351 78.474C191.941 78.8597 191.324 79.3579 190.466 79.9993H187.775C189.046 79.4821 190.706 78.7209 191.788 78.0532C193.436 77.0334 193.22 77.6675 192.351 78.474Z" fill="#E05164"/>
<path d="M175.817 71.352C173.878 73.0205 172.9 72.5763 177.503 78.7622L178.612 78.0522L181.817 74.5122L177.74 69.4746L175.817 71.352Z" fill="#C74153"/>
<path d="M176.418 54.7422C176.531 54.3682 179.174 54.8109 182.32 55.7313C185.467 56.6518 187.926 57.7008 187.813 58.0748C187.168 63.2205 187.262 67.7773 188.201 70.9463L178.613 78.0541C174.585 68.559 175.812 60.1421 176.418 54.7422Z" fill="#FFB685"/>
<path d="M180.653 67.8133L184.361 67.7461L184.769 69.8777C183.315 71.3168 181.174 70.7441 180.097 69.8003C178.66 71.0144 177.27 71.0041 176.288 69.9318C176.281 69.923 176.27 69.9113 176.26 69.9011C176.163 69.3079 176.083 68.722 176.016 68.1449C177.541 67.7081 180.653 67.8133 180.653 67.8133Z" fill="#FE9B77"/>
<path d="M184.361 73.5428C183.441 67.354 183.654 59.9204 183.775 56.1816C186.189 56.9706 187.908 57.761 187.813 58.0751C187.168 63.2208 187.262 67.7777 188.201 70.9466L184.361 73.5428Z" fill="#FE9B77"/>
<path opacity="0.4" d="M176.418 54.7422C176.531 54.3682 179.174 54.8109 182.321 55.7313C185.467 56.6518 187.926 57.7008 187.813 58.0748C187.731 58.7337 187.659 59.3824 187.601 60.0208C184.177 59.6176 179.421 60.1377 175.816 61.2218C175.935 58.7644 176.212 56.5787 176.418 54.7422Z" fill="#A8387E"/>
<path d="M179.932 46.9414L178.143 47.2774L178.668 48.1044L179.932 46.9414Z" fill="#FFCD8F"/>
<path d="M182.995 64.9868C183.206 64.6156 183.155 64.1924 182.88 64.0417C182.605 63.8911 182.211 64.0699 182 64.4411C181.788 64.8124 181.84 65.2355 182.115 65.3862C182.39 65.5369 182.784 65.3581 182.995 64.9868Z" fill="#543247"/>
<path d="M184.765 45.2198C184.765 45.2198 183.853 45.1497 183.445 45.455C183.901 45.9737 184.765 45.2198 184.765 45.2198Z" fill="#FFD08F"/>
<path d="M181.821 45.2113C179.852 44.7526 179.686 45.7621 179.686 45.7621L181.821 45.2113Z" fill="#FFFDC4"/>
<path d="M196.269 57.127C196.172 57.8283 194.57 58.2826 194.57 58.2826L195.227 58.775C196.886 58.737 197.31 57.9159 197.31 57.9159C197.31 57.9159 197.02 57.5624 196.269 57.127Z" fill="#D4655B"/>
<path d="M200.495 60.1699C200.229 60.934 196.826 60.4753 196.826 60.4753L196.715 60.8683C199.227 61.3051 200.317 61.086 200.317 61.086C200.317 61.086 200.464 60.861 200.495 60.1699Z" fill="#D4655B"/>
<path d="M187.953 52.9995C187.764 53.9053 186.627 54.5101 186.627 54.5101L184.781 53.952C185.301 53.2318 185.528 52.2266 185.528 52.2266C185.528 52.2266 186.794 52.5582 187.953 52.9995Z" fill="#DC7363"/>
<path d="M175.765 79.9738C175.753 79.9811 175.736 79.9928 175.726 80.0001H173.837C173.699 79.4362 173.531 78.7144 173.389 78.038C173.263 77.4243 173.161 76.856 173.133 76.4747V76.4703C173.129 76.4206 173.126 76.3666 173.126 76.3198C173.121 76.2702 173.118 76.219 173.118 76.1737C173.102 75.9341 173.087 75.7179 173.08 75.5411L173.068 75.3483C173.06 75.2285 173.056 75.1393 173.051 75.0853C173.047 75.0429 173.047 75.0195 173.047 75.0195C173.382 76.0042 173.892 77.0153 174.416 77.9006C174.907 78.7422 175.407 79.4712 175.765 79.9738Z" fill="#D14658"/>
<path d="M195.025 71.4244C194.128 72.6297 192.787 74.1462 191.355 75.6452C189.82 77.2553 188.185 78.8419 186.887 80.0005H185.361C186.183 78.9734 187.26 77.5723 188.354 76.0426C189.027 75.1003 189.707 74.1083 190.337 73.1279C190.651 72.6458 190.95 72.1622 191.23 71.6918V71.6874C191.467 71.29 191.69 70.9043 191.898 70.5215C191.915 70.5376 191.937 70.5449 191.98 70.5449H191.985L192.693 70.7494L195.025 71.4244Z" fill="#CC4355"/>
<path d="M190.032 70.5195L185.283 75.0194L184.361 78.9583L189.577 72.4787L190.032 70.5195Z" fill="#E65568"/>
<path d="M178.318 77.3325L188.107 70.6119L188.274 70.4731C188.558 70.2261 188.783 70.2335 188.201 70.945L178.613 78.0528C178.51 77.8132 178.415 77.5721 178.318 77.3325Z" fill="#BD3C53"/>
<path d="M202.331 50.1318L201.097 49.5927C201.074 49.5824 201.074 49.5517 201.097 49.543L202.331 49.0039C202.337 49.0009 202.343 48.9966 202.346 48.9893L202.895 47.7781C202.905 47.7562 202.936 47.7562 202.945 47.7781L203.495 48.9893C203.498 48.9951 203.502 49.0009 203.509 49.0039L204.743 49.543C204.766 49.5532 204.766 49.5839 204.743 49.5927L203.509 50.1318C203.504 50.1347 203.498 50.1391 203.495 50.1464L202.945 51.3575C202.935 51.3795 202.904 51.3795 202.895 51.3575L202.346 50.1464C202.341 50.1405 202.337 50.1347 202.331 50.1318Z" fill="#FF99B9"/>
<path d="M159.924 69.0576L158.691 68.5185C158.668 68.5083 158.668 68.4776 158.691 68.4688L159.924 67.9297C159.93 67.9268 159.936 67.9224 159.939 67.9151L160.489 66.7039C160.499 66.682 160.53 66.682 160.539 66.7039L161.088 67.9151C161.091 67.9209 161.096 67.9268 161.103 67.9297L162.337 68.4688C162.359 68.479 162.359 68.5097 162.337 68.5185L161.103 69.0576C161.097 69.0605 161.091 69.0649 161.088 69.0722L160.539 70.2834C160.529 70.3053 160.497 70.3053 160.489 70.2834L159.939 69.0722C159.935 69.0649 159.93 69.0591 159.924 69.0576Z" fill="#5580F9"/>
<path d="M196.154 53.5579C194.179 51.7945 192.518 51.0625 192.518 51.0625C194.374 51.4292 195.689 52.0282 196.154 53.5579Z" fill="#EB9363"/>
<path d="M176.067 45.76L172.916 46.4262C173.287 45.7323 173.705 45.6051 176.067 45.76Z" fill="#FFFDC4"/>
<path d="M181.744 69.5157C180.46 69.5245 179.224 69.4923 178.829 69.8152C178.431 70.1381 179.056 70.8788 180.012 71.5845C180.417 71.884 180.615 71.9161 181.619 71.0541C182.346 70.4317 182.738 69.5084 181.744 69.5157Z" fill="#C74153"/>
<path d="M181.219 69.5762L182.304 69.7486C182.454 70.0628 182.115 70.6267 181.619 71.0519C180.615 71.9124 180.417 71.8817 180.012 71.5822C179.851 71.4639 179.705 71.3455 179.568 71.2272C179.735 70.8532 180.257 69.8758 181.219 69.5762Z" fill="#A82C3C"/>
<path d="M179.273 69.6326C179.847 69.5055 180.78 69.523 181.743 69.5157C182.291 69.5113 182.416 69.7904 182.298 70.1454C181.706 70.16 179.578 70.2111 179.347 70.2111C179.18 70.2111 179.219 69.8839 179.273 69.6326Z" fill="white"/>
<path d="M174.971 67.8403C174.68 67.3202 174.845 66.5035 175.48 66.0857C175.345 66.3808 175.488 66.9199 176.016 67.0178C176.367 67.0821 177.031 66.9491 177.308 66.8454C178.104 66.5459 178.99 66.5342 180.07 67.0733C181.52 66.3063 182.51 66.9813 183.838 66.9813C184.201 66.9813 184.559 66.9257 184.908 66.8322C186.024 66.5123 185.997 65.9834 185.756 65.4238C187.344 65.7964 187.274 67.4561 186.57 68.191C186.161 68.6979 185.379 68.9302 184.352 68.6906C182.747 70.0231 181.952 70.1239 180.072 68.9259C178.534 70.1955 177.058 70.0523 176.186 68.4846C176.183 68.4846 175.287 68.4057 174.971 67.8403Z" fill="#6B3143"/>
<path d="M180.069 68.9261C178.531 70.1957 177.055 70.0526 176.183 68.4849C176.183 68.4849 174.794 68.3695 174.833 67.3219C174.998 67.734 175.729 68.1299 176.419 67.9794C177.525 68.8677 178.698 68.5974 179.804 67.7719C179.804 67.7719 182.127 68.9948 183.788 67.6434C185.676 68.108 187.018 67.2518 186.79 66.0859C187.237 66.7463 187.052 67.6872 186.569 68.1912C186.159 68.6982 185.378 68.9305 184.351 68.6909C182.745 70.0233 181.949 70.1242 180.069 68.9261Z" fill="#5E2737"/>
<path d="M178.578 65.3973C178.853 65.2821 178.946 64.8879 178.785 64.5168C178.624 64.1456 178.27 63.9382 177.994 64.0533C177.719 64.1685 177.627 64.5628 177.788 64.9339C177.949 65.305 178.303 65.5125 178.578 65.3973Z" fill="#543247"/>
</g>
<mask id="mask2_26602_17873" style="mask-type:luminance" maskUnits="userSpaceOnUse" x="150" y="84" width="64" height="38">
<path d="M210 84H154C151.791 84 150 85.7909 150 88V118C150 120.209 151.791 122 154 122H210C212.209 122 214 120.209 214 118V88C214 85.7909 212.209 84 210 84Z" fill="white"/>
</mask>
<g mask="url(#mask2_26602_17873)">
<path d="M214 84H150V121.976H214V84Z" fill="#F7E5BC"/>
<path d="M214 105.223V121.975H150V102.165C157.233 96.0843 166.67 100.616 167.311 105.809C175.829 102.696 182.342 105.891 184.078 110.291C190.575 106.295 197.626 106.536 201.291 110.291C204.404 105.957 211.139 104.152 214 105.223Z" fill="#6ADBC6"/>
<path d="M189.313 109.309C196.36 109.349 202.385 112.74 205.29 121.999H184.078L189.313 109.309Z" fill="#44C9C5"/>
<path d="M196.582 121.975H214V113.832C209.773 114.256 202.113 115.886 196.582 121.975Z" fill="#44C9C5"/>
<path d="M200.967 118.133H162.954C160.551 120.43 160.428 121.976 160.428 121.976H203.8C203.8 121.976 202.631 119.437 200.967 118.133Z" fill="#755F5F"/>
<path d="M201.851 119.809C202.11 119.591 202.177 119.216 202.002 118.927C201.446 118.008 201.269 117.292 200.025 116.633C198.572 115.863 197.962 115.169 194.15 114.677C193.375 112.666 193.53 112.063 187.774 111.602H171.846C169.235 112.033 169.052 112.033 168.597 113.584C168.141 115.135 168.141 114.95 166.772 115.502C165.402 116.054 163.282 116.171 162.458 117.997C162.189 118.592 162.082 119.023 163.642 121.975H198.742C200.08 121.23 201.238 120.323 201.851 119.809Z" fill="#CC4F79"/>
<path d="M189.312 112.246C192.058 112.73 191.963 112.73 190.091 114.93C188.218 117.13 185.869 119.184 183.202 120.273C179.039 121.973 175.464 120.379 173.299 117.833C170.143 114.123 168.78 112.244 171.45 112.244C175.025 112.246 189.312 112.246 189.312 112.246Z" fill="#590942"/>
<path d="M197.536 91.3858L196.302 90.8324C196.28 90.8219 196.28 90.7904 196.302 90.7814L197.536 90.2281C197.542 90.2251 197.548 90.2206 197.551 90.2131L198.1 88.97C198.11 88.9475 198.142 88.9475 198.15 88.97L198.7 90.2131C198.703 90.2191 198.707 90.2251 198.715 90.2281L199.948 90.7814C199.971 90.7919 199.971 90.8234 199.948 90.8324L198.715 91.3858C198.709 91.3888 198.703 91.3933 198.7 91.4008L198.15 92.6439C198.14 92.6664 198.109 92.6664 198.1 92.6439L197.551 91.4008C197.548 91.3933 197.543 91.3888 197.536 91.3858Z" fill="#755F5F"/>
<path d="M162.858 93.1533L162.048 92.7904C162.033 92.7844 162.033 92.7634 162.048 92.7574L162.858 92.3945C162.862 92.393 162.865 92.39 162.867 92.3855L163.227 91.5698C163.233 91.5548 163.254 91.5548 163.26 91.5698L163.62 92.3855C163.621 92.39 163.624 92.393 163.629 92.3945L164.439 92.7574C164.453 92.7634 164.453 92.7844 164.439 92.7904L163.629 93.1533C163.624 93.1548 163.621 93.1578 163.62 93.1623L163.26 93.978C163.254 93.993 163.233 93.993 163.227 93.978L162.867 93.1623C162.865 93.1593 162.862 93.1563 162.858 93.1533Z" fill="#F7D78D"/>
<path d="M173.644 100.083C172.572 97.0805 170.71 94.8822 169.811 94.4803C168.912 94.0784 169.143 94.5883 169.981 97.1165C170.819 99.6463 170.828 103.812 172.374 103.836C173.921 103.86 173.644 100.083 173.644 100.083Z" fill="#2E64E8"/>
<path d="M171.687 100.863C171.048 99.5747 171.003 98.9494 170.752 97.9747C170.619 97.4574 170.417 96.7136 170.258 96.1348C171.036 97.5323 172.383 100.635 172.669 101.616C172.958 102.635 172.33 102.152 171.687 100.863Z" fill="#1C4BBA"/>
<path d="M187.78 100.274C189.291 97.0765 191.715 94.8077 192.842 94.4313C193.969 94.0549 193.653 94.5933 192.46 97.291C191.266 99.9886 190.979 104.526 189.084 104.448C187.191 104.369 187.78 100.274 187.78 100.274Z" fill="#2E64E8"/>
<path d="M182.12 91.7108C183.853 91.7108 185.257 90.2955 185.257 88.5497C185.257 86.8039 183.853 85.3887 182.12 85.3887C180.387 85.3887 178.982 86.8039 178.982 88.5497C178.982 90.2955 180.387 91.7108 182.12 91.7108Z" fill="#201E2F"/>
<path d="M185.129 89.3804C185.236 88.5676 183.93 87.7228 182.212 87.4934C180.495 87.264 179.015 87.7369 178.908 88.5497C178.802 89.3624 180.107 90.2073 181.825 90.4367C183.543 90.6661 185.022 90.1932 185.129 89.3804Z" fill="#41314A"/>
<path d="M187.369 91.0831C184.13 88.0195 178.797 87.6267 175.14 90.2764C171.647 92.8076 172.237 97.0723 172.838 101.619L188.327 102.069C188.966 99.593 190.607 94.1482 187.369 91.0831Z" fill="#4D7AE8"/>
<path d="M188.678 100.714L173.028 100.26C170.157 106.618 167.3 118.443 180.208 118.818C192.503 119.175 191.556 107.894 188.678 100.714Z" fill="#4D7AE8"/>
<path d="M188.678 100.716C189.36 97.9535 190.104 93.6693 187.37 91.0841C187.276 90.9956 187.173 90.9161 187.076 90.8306L186.259 90.8066C186.259 90.8066 186.608 96.163 186.317 98.2849C186.026 100.407 186.134 100.639 186.782 100.933C187.594 101.302 188.022 101.561 187.894 104.286C187.767 107.011 187.609 107.375 188.203 110.613C188.795 113.84 188.005 115.918 186.316 117.635C192.012 114.6 190.951 106.384 188.678 100.716Z" fill="#2E64E8"/>
<path d="M176.59 112.973C178.275 115.264 182.862 115.852 184.73 113.059C185.663 111.663 183.194 111.586 180.695 111.601C178.198 111.616 175.669 111.721 176.59 112.973Z" fill="#3366E0"/>
<path d="M183.019 101.049C183.057 99.7013 182.058 98.5788 180.787 98.5419C179.516 98.505 178.454 99.5676 178.415 100.915C178.377 102.263 179.376 103.385 180.647 103.422C181.918 103.459 182.98 102.397 183.019 101.049Z" fill="#DBE7FF"/>
<path d="M181.594 101.367C181.619 100.849 181.241 100.411 180.751 100.388C180.261 100.364 179.844 100.765 179.819 101.283C179.795 101.801 180.173 102.24 180.663 102.263C181.153 102.286 181.57 101.885 181.594 101.367Z" fill="#201E2F"/>
<path d="M178.232 96.7528C179.207 94.7089 182.77 94.9174 183.598 96.9088L178.232 96.7528Z" fill="#201E2F"/>
<path d="M177.337 105.277C177.489 105.32 177.635 105.367 177.773 105.422L178.208 105.538L178.638 105.64C178.782 105.667 178.93 105.68 179.072 105.704C179.651 105.773 180.239 105.796 180.82 105.7C181.408 105.656 181.979 105.487 182.537 105.287L182.954 105.122L183.357 104.924L183.761 104.714C183.886 104.632 184.017 104.552 184.157 104.478L184.206 104.451C184.746 104.16 185.419 104.365 185.708 104.909C185.9 105.271 185.873 105.694 185.675 106.021C185.206 106.79 184.53 107.435 183.746 107.884C182.967 108.349 182.088 108.63 181.187 108.751C180.284 108.853 179.352 108.793 178.479 108.516C177.602 108.255 176.792 107.763 176.176 107.108C175.753 106.659 175.773 105.952 176.218 105.527C176.511 105.247 176.916 105.16 177.279 105.26L177.337 105.277Z" fill="#400015"/>
<path d="M176.865 107.702C177.35 108.057 177.897 108.341 178.477 108.513C179.352 108.79 180.284 108.85 181.186 108.748C182.086 108.627 182.966 108.348 183.744 107.882C184.306 107.559 184.807 107.135 185.221 106.639C184.453 105.901 183.701 105.404 182.981 105.104L182.951 105.119L182.534 105.284C181.975 105.485 181.403 105.655 180.817 105.697C180.236 105.793 179.648 105.77 179.07 105.701C178.927 105.679 178.779 105.664 178.635 105.637L178.589 105.626C177.839 106.18 177.246 106.928 176.865 107.702Z" fill="#590942"/>
<path d="M184.909 105.87L184.952 104.345C184.706 104.294 184.444 104.321 184.205 104.448L184.156 104.475C184.016 104.55 183.885 104.629 183.76 104.712L183.356 104.922L182.953 105.12L182.536 105.285C181.977 105.486 181.405 105.655 180.819 105.697C180.238 105.793 179.65 105.771 179.071 105.702C178.929 105.679 178.781 105.664 178.637 105.637L178.207 105.535L177.772 105.42C177.634 105.364 177.488 105.316 177.336 105.274L177.278 105.258C177.132 105.217 176.982 105.216 176.833 105.235L176.811 106.017C179.771 107.462 183.115 106.649 184.909 105.87Z" fill="#DBE7FF"/>
<path d="M177.905 105.456L177.774 105.421C177.636 105.366 177.49 105.318 177.338 105.276L177.28 105.259C177.134 105.219 176.984 105.217 176.835 105.237L176.812 106.018C177.122 106.169 177.436 106.289 177.75 106.394L177.905 105.456Z" fill="#B5CDFF"/>
<path d="M183.254 106.438C183.886 106.273 184.449 106.071 184.91 105.872L184.953 104.347C184.708 104.296 184.446 104.323 184.206 104.45L184.157 104.477C184.017 104.552 183.886 104.631 183.761 104.714L183.358 104.924L183.203 105L183.254 106.438Z" fill="#B5CDFF"/>
<path d="M184.395 103.103L186.682 104.252C186.724 102.86 185.567 102.704 184.395 103.103Z" fill="#3366E0"/>
<path d="M174.394 106.18L176.514 104.077C174.901 104.038 174.263 105.119 174.394 106.18Z" fill="#3366E0"/>
<path d="M175.652 108.326C176.377 109.34 177.105 110.289 177.105 110.289C175.642 110.163 175.652 108.326 175.652 108.326Z" fill="#3366E0"/>
<path d="M187.368 91.0831C184.129 88.0195 178.797 87.6267 175.14 90.2764C173.458 91.4955 172.727 93.1195 172.484 94.9804C174.506 96.5295 174.727 93.8183 175.568 90.9961C178.573 93.4629 183.131 93.4839 186.049 91.3005C186.049 91.3005 186.049 91.3005 186.174 93.6833C186.295 96.0001 187.849 96.2625 189.237 95.0389C189.059 93.5799 188.526 92.1793 187.368 91.0831Z" fill="#201E2F"/>
<path d="M177.309 94.7627C177.69 94.3723 177.834 93.8935 177.632 93.6932C177.43 93.4929 176.957 93.6471 176.576 94.0375C176.195 94.4279 176.051 94.9068 176.253 95.107C176.455 95.3073 176.928 95.1532 177.309 94.7627Z" fill="#618AED"/>
<path d="M191.918 95.9683C190.647 97.8427 190.145 98.8729 189.761 99.6452C189.377 100.417 189.765 100.519 189.891 101.466C190.014 102.412 190.3 101.963 190.693 100.365C191.086 98.7664 191.29 98.1816 191.672 97.3104C192.055 96.4376 192.717 94.7911 191.918 95.9683Z" fill="#1C4BBA"/>
<path d="M193.869 115.434C193.14 117.398 191.208 121.977 191.208 121.977H185.539C188.544 119.867 190.827 117.49 191.854 115.65C192.832 113.899 193.087 112.738 193.864 114.777C193.944 114.989 193.948 115.223 193.869 115.434Z" fill="#BA3B66"/>
<path d="M192.822 121.977C195.549 118.727 196.44 117.619 197.174 117.196C197.908 116.773 199.115 116.139 197.804 118.147C196.493 120.155 194.29 121.977 194.29 121.977H192.822Z" fill="#BA3B66"/>
<path d="M174.02 121.977C171.903 119.41 170.452 116.886 169.903 115.493C169.355 114.1 169.183 113.752 169.052 114.536C168.922 115.319 168.62 115.67 168.879 116.757C169.138 117.844 170.035 120.759 170.58 121.978L174.02 121.977Z" fill="#BA3B66"/>
<path d="M165.313 121.982L164.477 121.978C163.523 119.541 163.134 118.442 163.099 117.638C163.064 116.839 164.014 119.524 165.313 121.982Z" fill="#BA3B66"/>
<path d="M168.782 122.001L167.022 121.993C166.563 118.472 166.563 117.781 166.67 116.791C166.777 115.801 167.271 116.656 167.628 118.436C167.98 120.216 168.782 122.001 168.782 122.001Z" fill="#BA3B66"/>
<path d="M161.728 115.096C163.284 112.553 164.966 111.305 167.019 110.186C169.071 109.068 169.324 108.415 167.808 107.895C166.291 107.376 165.014 107.589 163.216 108.331C161.418 109.074 160.129 109.522 159.584 111.653C159.038 113.784 159.802 115.067 161.728 115.096Z" fill="#542113"/>
<path d="M162.245 112.433C163.217 108.333 163.878 105.239 164.504 102.45C165.129 99.661 165.829 98.031 164.745 97.5332C163.662 97.0353 163.102 97.2228 161.679 100.4C160.256 103.578 159.648 105.878 159.182 107.519C158.714 109.162 157.172 113.665 162.245 112.433Z" fill="#542113"/>
<path d="M160.225 106.02L159.292 105.874C159.788 100.449 160.066 98.1383 160.182 96.5803C160.298 95.0222 159.658 94.9907 158.679 94.9412C157.699 94.8918 157.339 95.3131 156.9 97.3525C156.46 99.3934 155.948 102.922 155.766 104.312C155.585 105.7 155.238 108.916 155.263 109.944C155.287 110.973 160.224 111.433 160.225 106.02Z" fill="#542113"/>
<path d="M155.672 107.379C155.824 105.264 155.501 99.6283 155.475 98.5831C155.45 97.5379 155.071 97.6399 154.185 97.6144C153.299 97.5889 152.92 97.9968 152.793 100.47C152.667 102.942 152.49 105.619 152.515 106.87C151.908 108.527 151.629 110.386 151.807 112.35C151.984 114.315 152.237 114.849 152.591 115.46C152.945 116.072 155.071 116.761 157.803 117.041C160.536 117.321 160.77 116.921 161.728 115.095C162.687 113.268 160.89 108.398 160.89 108.398L155.672 107.379Z" fill="#542113"/>
<path d="M151.986 113.765C151.582 114.704 150.782 116.953 150.02 119.157C150.191 120.742 151.523 121.976 153.141 121.976H160.777C160.763 121.735 160.55 118.123 161.263 115.945C161.263 115.945 152.891 111.661 151.986 113.765Z" fill="#542113"/>
<path d="M161.262 109.534C159.503 110.654 159.025 111.208 158.594 111.977C158.161 112.746 157.733 112.838 156.147 112.869C154.56 112.901 154.529 112.931 154.072 111.025C153.615 109.119 154.295 108.311 156.025 108.381C158.314 108.473 162.321 108.938 161.262 109.534Z" fill="#4A1A0D"/>
<path d="M153.252 106.251H159.133C157.314 105.417 154.752 105.521 153.252 106.251Z" fill="#4A1A0D"/>
<path d="M160.199 106.518C161.067 106.846 162.792 107.576 162.792 107.576C161.539 105.721 160.199 106.518 160.199 106.518Z" fill="#4A1A0D"/>
<path d="M161.148 102.535C162.058 102.718 163.878 103.157 163.878 103.157C162.344 101.532 161.148 102.535 161.148 102.535Z" fill="#4A1A0D"/>
<path d="M156.707 101.243C157.56 101.316 159.277 101.535 159.277 101.535C157.627 100.115 156.707 101.243 156.707 101.243Z" fill="#4A1A0D"/>
<path d="M153.105 102.558C153.817 102.465 155.262 102.335 155.262 102.335C153.643 101.459 153.105 102.558 153.105 102.558Z" fill="#4A1A0D"/>
<path d="M168.623 108.328C167.245 109.375 165.213 109.583 163.268 110.586C161.321 111.591 160.974 112.648 160.428 114.124C160.083 115.055 159.769 116.303 159.584 117.096C160.72 116.979 161.038 116.406 161.727 115.094C163.284 112.551 164.966 111.303 167.018 110.185C168.544 109.355 169.074 108.781 168.623 108.328Z" fill="#732D1A"/>
<path d="M161.263 115.945C161.407 115.705 161.556 115.425 161.727 115.096C161.821 114.943 161.914 114.795 162.01 114.651C162.01 114.651 162.01 114.651 162.008 114.652C161.047 115.949 158.512 116.233 156.345 116.374C154.178 116.513 152.38 115.826 151.984 113.768C151.727 114.369 150.819 116.686 150 118.851V121.976H160.777C160.762 121.735 160.55 118.124 161.263 115.945Z" fill="#4A1A0D"/>
<path d="M164.764 97.5449C164.884 97.9288 164.935 98.4611 164.79 99.1479C164.505 100.514 163.877 103.156 162.512 108.622L163.186 108.361C163.688 106.143 164.103 104.233 164.503 102.45C165.124 99.6803 165.816 98.0563 164.764 97.5449Z" fill="#732D1A"/>
<path d="M160.181 96.5799C160.063 98.1304 159.785 100.524 159.289 105.885L158.889 105.793L159.541 95.0488C160.003 95.1913 160.255 95.5512 160.181 96.5799Z" fill="#732D1A"/>
<path d="M205.49 112.247L210.21 108.795C208.717 108.644 205.789 108.795 205.49 112.247Z" fill="#44C9C5"/>
</g>
<path d="M13 12.5C13 12.2239 12.7761 12 12.5 12H12.47C12.3298 12 12.1961 12.0588 12.1014 12.1621L9.95833 14.5H8.5C8.22386 14.5 8 14.7239 8 15V19C8 19.2761 8.22386 19.5 8.5 19.5H9.95833L12.1014 21.8379C12.1961 21.9412 12.3298 22 12.47 22H12.5C12.7761 22 13 21.7761 13 21.5V12.5Z" fill="#B9BBBE"/>
<path d="M14.5499 21.3769C14.2602 21.4461 14 21.2121 14 20.9142V20.8981C14 20.6493 14.1844 20.4422 14.4244 20.3766C15.9088 19.9712 17 18.613 17 17C17 15.387 15.9088 14.0288 14.4244 13.6234C14.1844 13.5578 14 13.3507 14 13.1019V13.0858C14 12.7879 14.2602 12.5539 14.5499 12.6231C16.5288 13.0961 18 14.8762 18 17C18 19.1238 16.5288 20.9039 14.5499 21.3769Z" fill="#B9BBBE"/>
<path d="M14.5786 19.256C14.2935 19.3926 14 19.1544 14 18.8383V18.7682C14 18.5563 14.1387 18.3741 14.3164 18.2586C14.7279 17.9911 15 17.5273 15 17C15 16.4727 14.7279 16.0089 14.3164 15.7414C14.1387 15.6259 14 15.4437 14 15.2318V15.1617C14 14.8456 14.2935 14.6074 14.5786 14.744C15.4193 15.1467 16 16.0055 16 17C16 17.9945 15.4193 18.8533 14.5786 19.256Z" fill="#B9BBBE"/>
</g>
<defs>
<linearGradient id="paint0_linear_26602_17873" x1="179.041" y1="46.0166" x2="185.334" y2="62.5335" gradientUnits="userSpaceOnUse">
<stop stop-color="#FFC285"/>
<stop offset="1" stop-color="#DB8D6B"/>
</linearGradient>
<linearGradient id="paint1_linear_26602_17873" x1="200.627" y1="55.6678" x2="164.701" y2="55.6678" gradientUnits="userSpaceOnUse">
<stop stop-color="#D67569"/>
<stop offset="1" stop-color="#E39E7F"/>
</linearGradient>
<clipPath id="clip0_26602_17873">
<rect width="222" height="132" fill="white"/>
</clipPath>
</defs>
</svg>
