<svg width="324" height="406" viewBox="0 0 324 406" fill="none" xmlns="http://www.w3.org/2000/svg">
<g clip-path="url(#clip0_26218_66604)">
<mask id="mask0_26218_66604" style="mask-type:luminance" maskUnits="userSpaceOnUse" x="0" y="-5" width="324" height="573">
<path d="M324 -5H0V568H324V-5Z" fill="white"/>
</mask>
<g mask="url(#mask0_26218_66604)">
<mask id="mask1_26218_66604" style="mask-type:luminance" maskUnits="userSpaceOnUse" x="-37" y="82" width="226" height="140">
<path d="M188.92 100.205L-26.7812 82.418L-36.753 203.346L178.948 221.132L188.92 100.205Z" fill="white"/>
</mask>
<g mask="url(#mask1_26218_66604)">
<g filter="url(#filter0_d_26218_66604)">
<path d="M188.29 107.833L179.577 213.5C179.41 215.523 178.446 217.398 176.897 218.711C175.348 220.024 173.341 220.668 171.317 220.501L-29.123 203.973C-31.1467 203.806 -33.0213 202.842 -34.3343 201.293C-35.6472 199.744 -36.2911 197.737 -36.1242 195.713L-27.4109 90.0467C-27.2441 88.023 -26.2801 86.1484 -24.7311 84.8354C-23.1821 83.5224 -21.175 82.8786 -19.1513 83.0455L181.289 99.5739C183.313 99.7407 185.187 100.704 186.5 102.253C187.813 103.802 188.457 105.809 188.29 107.833Z" fill="#8CD9FF"/>
<path d="M54.6626 181.428L42.0854 209.844L29.359 208.795C20.511 203.179 12.1908 194.783 6.0605 185.51C4.87718 183.729 3.77919 181.901 2.79128 180.055C1.37984 177.549 0.890822 174.627 1.40912 171.798C2.92058 163.344 12.823 156.831 20.1666 160.939C21.4616 161.668 22.5988 162.648 23.5122 163.82C24.9513 165.782 26.6063 167.576 28.4462 169.168C30.8899 171.267 33.5886 173.049 36.4783 174.472L37.9393 175.19C42.3829 177.266 47.2214 178.833 52.2893 180.581C53.0819 180.845 53.873 181.128 54.6626 181.428Z" fill="#FFD997"/>
<path d="M25.5059 160.374C22.4529 155.588 20.0834 148.769 13.0618 150.634C8.30419 151.707 3.9235 154.793 -0.262345 157.163C-3.39499 158.94 -7.10411 161.784 -7.14575 165.581C-7.02671 170.721 -1.73247 179.6 2.04513 183.169C8.08483 188.933 20.7964 185.882 26.2764 178.353C30.0058 172.96 28.5858 165.161 25.5059 160.374Z" fill="#FFF2A6"/>
<path d="M6.18073 114.913C7.12805 116.592 6.21496 118.119 6.61333 121.518C7.0117 124.917 9.76398 135.323 11.6733 140.15C13.5828 144.977 15.764 149.798 18.0934 154.47C21.1205 160.556 21.0539 163.998 16.6115 168.49C13.4441 171.677 6.70162 174.107 2.60661 172.412C-1.48839 170.717 -2.79266 166.782 -5.83369 160.206C-14.3266 141.725 -15.9035 126.61 -14.0071 116.451C-13.2802 112.575 -11.1386 108.001 -7.40577 106.517C-3.673 105.033 -0.124192 106.439 1.2137 110.296C1.58758 111.358 1.71491 113.106 2.79815 113.467C3.27236 113.641 5.06022 113.029 6.18073 114.913Z" fill="url(#paint0_linear_26218_66604)"/>
<path d="M114.328 188.358L112.08 215.617L35.2632 209.283C37.932 198.644 41.9357 188.279 48.2307 180.084L52.2887 180.582L107.261 187.476L107.288 187.479L111.748 188.036L114.328 188.358Z" fill="#423D80"/>
<path d="M130.711 217.152L101.16 214.715C100.903 213.879 100.646 213.044 100.414 212.237C97.4934 202.224 96.278 191.944 105.34 188.049C105.952 187.774 106.598 187.581 107.261 187.475L107.288 187.477C108.797 187.218 110.349 187.412 111.748 188.035C112.635 188.402 113.471 188.882 114.236 189.462C120.095 193.799 125.546 204.402 130.711 217.152Z" fill="#FFD997"/>
<path d="M89.0078 186.948L76.6127 197.355L65.0639 207.044C63.2026 203.28 62.2302 198.612 61.712 194.362C61.2281 190.413 61.0571 186.432 61.2007 182.457L89.0078 186.948Z" fill="#FFD997"/>
<path d="M61.2007 182.457L89.0078 186.948L76.6127 197.355C70.9019 197.807 65.6189 196.692 61.712 194.362C61.2281 190.413 61.0571 186.432 61.2007 182.457Z" fill="url(#paint1_linear_26218_66604)"/>
<path d="M100.138 183.008C100.138 183.008 99.889 183.394 99.429 184.035L99.5201 182.93L100.138 183.008Z" fill="url(#paint2_linear_26218_66604)"/>
<path d="M30.9825 195.03C30.7811 195.009 30.5866 194.944 30.4124 194.841C30.2382 194.738 30.0884 194.598 29.9732 194.431C29.786 194.129 29.723 193.765 29.7972 193.417C29.8714 193.07 30.0772 192.764 30.3715 192.564C36.9978 188.251 35.9045 178.796 35.428 176.015C35.3715 175.831 35.3546 175.638 35.3786 175.447C35.4027 175.256 35.467 175.073 35.5673 174.909C35.6676 174.746 35.8017 174.605 35.9605 174.497C36.1194 174.389 36.2994 174.317 36.4886 174.284C36.6778 174.251 36.8718 174.258 37.0578 174.306C37.2438 174.354 37.4174 174.441 37.5672 174.561C37.717 174.681 37.8395 174.832 37.9265 175.003C38.0136 175.174 38.0632 175.362 38.072 175.554C38.623 178.748 39.8456 189.599 31.8428 194.803C31.589 194.971 31.2865 195.051 30.9825 195.03Z" fill="#FFC257"/>
<path d="M90.1958 116.252L66.6397 119.793C66.6397 119.793 65.6367 116.154 64.4369 110.951C63.0342 104.918 61.3219 96.7144 60.4688 89.6133L83.6026 91.5209C85.7178 97.8032 88.0169 106.462 89.9769 115.283C89.9837 115.332 89.9982 115.379 90.0197 115.423C90.0635 115.595 90.0944 115.77 90.1123 115.946C90.1573 116.058 90.1508 116.139 90.1958 116.252Z" fill="#FF78B9"/>
<path d="M82.8398 116.568L73.4938 116.992C73.0613 115.653 72.597 114.04 72.0922 112.261C70.2823 105.57 68.1872 96.4119 67.1011 90.1602L76.0796 90.9005C78.229 97.7557 80.6496 106.588 82.2939 113.971C82.4901 114.883 82.6908 115.741 82.8398 116.568Z" fill="#FFAED7"/>
<path d="M126.959 95.0949C123.67 103.049 118.327 113.195 114.904 119.483C112.95 123.095 111.591 125.426 111.591 125.426L90.1126 115.945L89.798 115.811L90.02 115.422C90.0245 115.368 90.0537 115.343 90.0851 115.291C94.4949 106.914 99.2419 98.7271 103.07 93.125L126.959 95.0949Z" fill="#FF78B9"/>
<path d="M120.164 94.5338C117.069 101.119 111.273 111.825 107.408 118.212C106.815 119.249 106.252 120.152 105.718 120.923L96.8051 118.07C97.0361 117.573 97.294 117.079 97.5542 116.558C101.417 109.221 106.749 100.187 110.943 93.7734L120.164 94.5338Z" fill="#FFAED7"/>
<path d="M123.752 156.046C126.586 154.767 129.073 152.826 131.002 150.388C132.932 147.949 134.249 145.083 134.843 142.03C135.323 139.616 135.313 137.129 134.813 134.718C134.314 132.308 133.334 130.022 131.934 127.997C130.533 125.972 128.74 124.25 126.661 122.932C124.581 121.613 122.258 120.727 119.829 120.324L60.1521 110.246C50.3796 108.598 40.7088 115.266 38.4796 125.18C37.1032 131.338 38.9148 137.35 42.8119 141.445C35.179 143.15 28.7542 149.298 26.9101 157.507C24.4302 168.487 31.047 179.104 41.7365 181.152L108.269 194.022C119.518 196.199 130.457 188.631 132.647 177.221C133.439 173.207 133.016 169.048 131.431 165.276C129.847 161.504 127.173 158.29 123.752 156.046Z" fill="#FF78B9"/>
<path d="M98.687 147.342C100.605 145.129 101.19 142.494 99.9926 141.457C98.7958 140.419 96.2707 141.373 94.3527 143.586C92.4347 145.799 91.8501 148.434 93.047 149.471C94.2439 150.508 96.769 149.555 98.687 147.342Z" fill="black"/>
<path d="M70.3854 145.839C71.9242 145.465 72.61 142.854 71.9171 140.009C71.2242 137.163 69.415 135.161 67.8762 135.535C66.3373 135.91 65.6516 138.52 66.3444 141.366C67.0373 144.211 68.8465 146.214 70.3854 145.839Z" fill="black"/>
<path d="M88.1163 160.898C87.201 162.451 85.5532 163.998 83.4535 165.101C80.7564 166.534 78.0179 166.824 76.2603 166.082C74.9097 165.672 73.4259 164.573 72.2 162.979C71.9324 162.604 71.6916 162.231 71.4531 161.831C69.4484 158.49 68.7668 154.905 71.0661 153.357C73.3654 151.809 75.3176 154.142 77.0085 155.693C77.5144 156.164 78.1382 156.491 78.8142 156.637C79.4901 156.784 80.1931 156.745 80.8488 156.525C83.3016 155.75 86.8167 154.601 88.5037 156.858C89.1428 157.996 88.9396 159.473 88.1163 160.898Z" fill="#9E0960"/>
<path d="M76.2603 166.082C74.9097 165.672 73.4259 164.572 72.2 162.978C74.3659 160.415 78.4514 158.933 82.9453 159.412C84.7449 159.589 86.4972 160.092 88.1163 160.897C87.201 162.451 85.5532 163.998 83.4535 165.101C80.7564 166.534 78.0179 166.824 76.2603 166.082Z" fill="#EB459F"/>
<g opacity="0.4">
<path opacity="0.4" d="M156.291 210.466C164.987 211.183 172.618 204.715 173.336 196.018C174.053 187.322 167.584 179.691 158.888 178.974C150.191 178.257 142.56 184.725 141.843 193.421C141.126 202.118 147.595 209.749 156.291 210.466Z" fill="black"/>
</g>
<path d="M150.134 201.287L166.287 189.435C166.603 189.204 166.671 188.761 166.439 188.445C166.208 188.13 165.764 188.062 165.449 188.293L149.296 200.145C148.981 200.377 148.913 200.82 149.144 201.135C149.376 201.451 149.819 201.519 150.134 201.287Z" fill="white"/>
<path d="M156.382 198.385C156.207 198.513 156.245 198.781 156.453 198.84L156.231 200.284L154.831 200.069C154.444 200.009 154.083 200.275 154.023 200.661C153.964 201.048 154.229 201.41 154.616 201.469L158.817 202.114C159.203 202.174 159.565 201.908 159.624 201.522C159.684 201.135 159.419 200.773 159.032 200.714L157.632 200.499L157.853 199.055C160.669 199.135 163.169 197.106 163.608 194.25C163.656 193.936 163.489 193.638 163.217 193.506C163.179 193.487 163.138 193.471 163.095 193.46C163.069 193.452 163.042 193.447 163.015 193.443C162.628 193.383 162.267 193.649 162.207 194.035C162.051 195.054 161.545 195.932 160.83 196.567L160.812 196.583C159.954 197.336 158.8 197.74 157.589 197.62C157.498 197.611 157.406 197.633 157.333 197.687L156.382 198.385Z" fill="white"/>
<path d="M160.946 189.915C161.068 189.826 161.121 189.67 161.065 189.53C160.703 188.634 159.891 187.946 158.867 187.789C157.32 187.552 155.874 188.613 155.636 190.16L155.206 192.96C155.175 193.166 155.166 193.37 155.178 193.57C155.194 193.82 155.481 193.926 155.683 193.777L160.946 189.915Z" fill="white"/>
<path d="M152.72 195.434C152.801 195.641 153.056 195.705 153.235 195.574L153.838 195.131C153.969 195.035 154.016 194.864 153.966 194.71C153.765 194.096 153.701 193.427 153.806 192.745C153.865 192.358 153.6 191.997 153.213 191.937C152.827 191.878 152.465 192.143 152.406 192.53C152.25 193.546 152.374 194.54 152.72 195.434Z" fill="white"/>
</g>
</g>
<g filter="url(#filter1_d_26218_66604)">
<mask id="mask2_26218_66604" style="mask-type:luminance" maskUnits="userSpaceOnUse" x="-81" y="199" width="246" height="170">
<path d="M132.269 199.788L-75.0114 244.261C-78.8433 245.084 -81.2832 248.856 -80.461 252.688L-56.83 362.826C-56.0078 366.658 -52.235 369.098 -48.4031 368.276L158.877 323.802C162.709 322.98 165.149 319.207 164.327 315.375L140.696 205.237C139.874 201.405 136.101 198.965 132.269 199.788Z" fill="white"/>
</mask>
<g mask="url(#mask2_26218_66604)">
<path d="M139.943 201.727L165.08 318.886C165.275 319.795 165.101 320.744 164.596 321.525C164.092 322.306 163.297 322.854 162.388 323.049L-51.9134 369.029C-52.8226 369.224 -53.772 369.05 -54.5528 368.545C-55.3335 368.04 -55.8818 367.246 -56.0768 366.337L-81.2142 249.179C-81.3147 248.728 -81.3245 248.262 -81.2431 247.808C-81.1618 247.354 -80.9908 246.92 -80.7402 246.533C-80.4896 246.145 -80.1644 245.812 -79.7835 245.551C-79.4026 245.29 -78.9737 245.108 -78.5217 245.015L135.78 199.035C136.23 198.934 136.696 198.925 137.15 199.006C137.604 199.087 138.038 199.258 138.425 199.509C138.813 199.76 139.147 200.085 139.407 200.466C139.668 200.846 139.85 201.275 139.943 201.727Z" fill="#FFE75C"/>
<path d="M78.9622 238.146C74.4971 237.283 65.8102 237.093 60.4132 236.603C48.6534 235.569 43.1772 227.028 33.0316 229.205C22.886 231.382 21.3681 241.424 11.0951 247.185C6.34656 249.852 -1.47041 253.582 -5.21579 256.208C-9.36196 259.121 -13.9401 263.66 -12.3116 268.69C-11.5172 271.18 -9.61902 272.883 -6.40398 273.582C-3.18894 274.28 9.89747 273.814 41.91 266.946C73.9225 260.077 84.4506 255.505 87.2008 253.498C89.9511 251.491 90.851 249.216 90.5817 246.613C90.0037 241.358 83.9664 239.097 78.9622 238.146Z" fill="url(#paint3_linear_26218_66604)"/>
<path d="M84.7518 248.01C85.7186 252.516 65.5126 257.805 40.3283 263.209C15.144 268.612 -5.48114 272.083 -6.44796 267.577C-7.41478 263.071 12.2258 255.011 37.4101 249.608C62.5944 244.204 83.7791 243.476 84.7518 248.01Z" fill="#8F473B"/>
<path d="M29.7471 262.819C29.7786 262.966 29.7505 263.119 29.6691 263.245C29.5876 263.371 29.4595 263.459 29.3129 263.49C25.4702 264.315 16.7482 265.579 8.3515 265.125C3.81153 264.856 0.158088 264.136 -2.52588 262.948C-2.17445 262.699 -1.76179 262.466 -1.34913 262.233C1.55007 263.346 5.17777 263.811 8.39663 263.988C16.7104 264.459 25.2883 263.197 29.0756 262.385C29.2222 262.353 29.3754 262.381 29.5013 262.463C29.6272 262.544 29.7157 262.672 29.7471 262.819ZM30.2853 259.262C25.6863 259.931 16.9836 259.803 10.8217 256.961L9.37045 257.475C11.1928 258.424 13.125 259.146 15.1234 259.624C20.1507 260.798 25.3489 261.055 30.4673 260.38L30.4949 260.374C30.6326 260.345 30.7546 260.266 30.8371 260.152C30.9196 260.038 30.9566 259.898 30.941 259.758C30.9167 259.607 30.8349 259.471 30.7128 259.378C30.5906 259.286 30.4374 259.244 30.2853 259.262ZM34.2163 256.828C30.6493 256.431 27.1836 255.391 23.9864 253.76C23.6566 253.571 23.2991 253.387 22.9298 253.149L21.4824 253.546C22.1217 253.994 22.7886 254.401 23.4792 254.766C26.8062 256.449 30.4057 257.527 34.11 257.95L34.2759 257.915C34.4064 257.885 34.5223 257.81 34.6027 257.703C34.6831 257.596 34.723 257.464 34.7151 257.33C34.7073 257.196 34.6522 257.07 34.5598 256.973C34.4674 256.876 34.3436 256.815 34.2104 256.801L34.2163 256.828ZM32.5777 250.674L31.4166 250.923C33.7498 254.789 36.4082 256.532 36.5485 256.646C36.6092 256.689 36.6782 256.719 36.7511 256.734C36.824 256.749 36.8992 256.749 36.972 256.733C37.0448 256.718 37.1135 256.687 37.1738 256.643C37.2342 256.6 37.2848 256.544 37.3225 256.48C37.3656 256.419 37.3956 256.35 37.4105 256.277C37.4255 256.205 37.4252 256.129 37.4096 256.057C37.394 255.984 37.3634 255.915 37.3198 255.855C37.2763 255.794 37.2206 255.744 37.1564 255.706C37.1288 255.712 34.7607 254.109 32.5777 250.674ZM77.9358 245.221C71.6855 251.536 56.8309 256.43 50.2514 257.841C50.1048 257.873 49.9767 257.961 49.8952 258.087C49.8138 258.213 49.7857 258.366 49.8172 258.513C49.8486 258.659 49.9371 258.788 50.063 258.869C50.1889 258.95 50.342 258.978 50.4887 258.947C54.3037 258.128 62.7766 255.703 70.2756 251.839C74.3055 249.731 77.3421 247.575 79.3024 245.391L77.9358 245.221ZM66.2079 245.28L64.6736 245.407C60.1923 250.532 52.3358 254.213 47.8397 255.496C47.7684 255.518 47.7023 255.555 47.6452 255.603C47.5881 255.651 47.5411 255.71 47.507 255.777C47.4729 255.843 47.4522 255.916 47.4463 255.99C47.4404 256.065 47.4493 256.14 47.4725 256.211C47.4909 256.279 47.5225 256.343 47.5656 256.399C47.6087 256.455 47.6625 256.502 47.7237 256.537C47.785 256.572 47.8526 256.595 47.9227 256.604C47.9928 256.613 48.064 256.608 48.1322 256.59L48.1599 256.584C53.0941 255.098 57.72 252.734 61.8153 249.606C63.4501 248.348 64.9253 246.895 66.2079 245.28ZM53.5226 246.671L52.0673 246.897C49.8288 250.211 46.1823 253.162 43.2562 254.889C43.133 254.968 43.0451 255.091 43.0109 255.233C42.9767 255.375 42.9988 255.525 43.0727 255.651C43.1241 255.762 43.2139 255.852 43.3256 255.902C43.4374 255.952 43.5636 255.961 43.681 255.925L43.8469 255.89C47.0514 253.984 49.8918 251.524 52.2356 248.625C52.7144 248.008 53.1447 247.355 53.5226 246.671ZM42.2257 248.604C41.6442 252.632 40.1421 255.065 40.1203 255.099C40.0773 255.16 40.0473 255.229 40.0323 255.302C40.0173 255.375 40.0176 255.45 40.0332 255.523C40.0489 255.595 40.0794 255.664 40.123 255.724C40.1666 255.785 40.2222 255.835 40.2864 255.873C40.3471 255.916 40.4161 255.946 40.489 255.961C40.5619 255.976 40.6372 255.976 40.71 255.96C40.7827 255.945 40.8515 255.914 40.9118 255.87C40.9721 255.827 41.0228 255.771 41.0605 255.707C41.169 255.539 42.8508 252.865 43.4203 248.376L42.2257 248.604Z" fill="#4C131A"/>
<path d="M49.1891 241.702C41.456 241.511 45.965 236.784 50.2682 237.567C54.5713 238.35 57.3053 241.927 49.1891 241.702ZM45.9262 231.616C41.8952 229.676 38.0362 228.133 33.0325 229.206L32.452 229.331C33.2106 230.44 34.8717 231.848 37.7632 233.599C43.0267 236.836 46.4877 234.503 45.9262 231.616ZM11.096 247.186C9.29139 248.209 7.05037 249.355 4.73828 250.574C5.45185 253.226 11.9028 251.35 15.2219 249.568C21.9528 245.898 21.9853 241.871 19.4315 240.077C17.2323 242.631 14.7112 245.167 11.096 247.186ZM28.1142 239.573C23.9735 248.038 34.5181 246.643 34.0054 241.692C33.3462 235.385 30.3405 234.989 28.1142 239.573Z" fill="#EDB997"/>
<path d="M50.0074 254.683C48.6068 252.468 43.7392 252.963 38.4314 254.101L38.2932 254.131C32.9854 255.27 28.3432 256.815 27.9747 259.41C27.6061 262.005 31.5241 285.253 33.7645 296.773L60.0545 291.132C57.3994 279.701 51.4871 256.997 50.0074 254.683Z" fill="url(#paint4_linear_26218_66604)"/>
<path d="M45.1023 271.582C46.2352 276.862 44.8929 278.827 43.7319 279.076C42.5708 279.325 40.5128 278.09 39.3799 272.81L45.1023 271.582Z" fill="white"/>
<path d="M38.7202 266.91C38.9533 266.522 38.4913 265.816 37.6881 265.334C36.8849 264.852 36.0448 264.775 35.8116 265.163C35.5785 265.552 36.0405 266.257 36.8437 266.74C37.6469 267.222 38.487 267.299 38.7202 266.91Z" fill="black"/>
<path d="M44.9772 265.098C45.5118 264.329 45.6436 263.496 45.2718 263.237C44.8999 262.979 44.165 263.393 43.6304 264.162C43.0959 264.932 42.964 265.765 43.3359 266.024C43.7078 266.282 44.4426 265.868 44.9772 265.098Z" fill="black"/>
<path d="M64.4316 265.844C63.7917 265.692 62.6211 267.245 60.4138 268.817C58.2064 270.39 56.2911 271.032 53.8461 269.879C51.4011 268.727 49.0034 267.391 47.3842 267.391C45.7649 267.391 44.4736 268.247 42.5489 270.597C42.406 270.781 42.203 270.908 41.9755 270.957C41.748 271.006 41.5105 270.973 41.3049 270.864C38.613 269.504 36.9858 269.333 35.6076 269.918C34.2294 270.503 32.4428 272.823 30.7352 274.838C29.0276 276.853 27.1517 277.14 24.3099 276.564C21.4681 275.988 19.9474 275.1 19.4261 275.501C18.9049 275.902 21.544 279.037 22.9442 279.633C23.8016 279.955 24.7478 279.947 25.6002 279.612C25.6501 279.593 25.7035 279.585 25.7568 279.589C25.8101 279.593 25.862 279.608 25.9088 279.633C25.9556 279.659 25.9963 279.695 26.0279 279.738C26.0595 279.781 26.0814 279.83 26.092 279.883C26.2028 280.669 26.6613 282.132 28.3852 282.08C30.1091 282.028 31.7338 280.031 32.2984 279.158C32.3674 279.055 32.4701 278.979 32.5888 278.943C32.7076 278.907 32.8352 278.913 32.95 278.961C33.4911 279.192 34.5931 279.476 36.1451 279.027C38.6745 278.282 41.0256 275.088 42.0027 273.577C42.1173 273.414 42.2891 273.301 42.4838 273.259C42.6785 273.217 42.8818 273.25 43.0532 273.352C44.5641 274.329 48.0184 276.277 50.6032 275.925C52.2303 275.691 53.0911 274.986 53.5176 274.548C53.6054 274.462 53.7188 274.407 53.8406 274.391C53.9625 274.375 54.0861 274.4 54.1929 274.461C55.0659 275.025 57.2344 276.237 58.9602 275.52C60.6859 274.803 60.3439 273.343 60.1501 272.575C60.1323 272.523 60.1275 272.467 60.1362 272.412C60.145 272.358 60.1669 272.306 60.2002 272.262C60.2335 272.218 60.2771 272.182 60.3272 272.159C60.3773 272.135 60.4324 272.124 60.4877 272.127C61.4024 272.083 62.2684 271.701 62.9183 271.056C63.9508 269.938 65.4881 266.051 64.4316 265.844Z" fill="#6A2D32"/>
<path d="M125.013 331.067L104.915 335.379C102.235 332.86 99.1596 329.847 96.886 327.472C95.3157 325.814 94.1048 324.483 93.6465 323.83L107.661 313.941L109.5 315.773L119.986 326.102L125.013 331.067Z" fill="#AA5F44"/>
<path d="M109.494 315.745C109.092 320.747 105.131 327.352 100.688 331.312C97.4214 328.081 94.4051 324.94 93.6465 323.83L107.661 313.941L109.494 315.745Z" fill="black"/>
<path d="M137.757 328.333L121.17 331.892L119.986 326.102L118.592 319.201L117.02 311.47L130.438 305.41C131.456 307.997 132.845 312.181 134.245 316.681C135.492 320.606 136.737 324.792 137.757 328.333Z" fill="url(#paint5_linear_26218_66604)"/>
<path d="M117.961 316.127L132.98 312.674C133.925 315.594 134.935 318.818 135.871 321.972C131.121 323.685 124.075 323.462 118.843 320.507L117.961 316.127Z" fill="#8F473B"/>
<path d="M139.723 310.676L126.844 287.847C126.844 287.847 128.044 286.433 127.981 285.059C127.917 283.684 125.592 282.014 125.592 282.014C125.592 282.014 127.861 278.838 128.875 276.018C129.445 274.363 130.651 269.738 127.263 268.238C124.892 267.157 122.684 269.134 122.684 269.134C122.684 269.134 123.181 266.193 120.949 265.226C118.718 264.259 117.213 265.739 117.213 265.739C117.213 265.739 116.194 250.747 115.823 248.745C115.451 246.742 109.685 247.228 109.559 248.932C109.061 254.562 109.797 267.966 109.797 268.776C109.801 269.064 108.581 269.442 108.488 269.144C108.395 268.845 103.395 252.279 102.5 250.938C101.605 249.598 97.4344 250.377 97.0755 252.478C96.904 253.7 100.11 271.606 101.711 278.261C99.4169 280.372 99.2596 283.009 101.15 284.945C102.63 286.45 111.482 292.532 111.482 292.532C111.482 292.532 109.93 293.385 109.92 294.688C109.911 295.992 111.809 296.481 112.589 296.747C112.694 296.787 112.788 296.853 112.862 296.938C112.936 297.023 112.987 297.125 113.012 297.235C113.561 299.662 116.494 314.677 117.194 318.344C117.217 318.531 117.302 318.706 117.435 318.84C117.569 318.973 117.743 319.059 117.93 319.082C122.317 320.019 126.88 319.682 131.082 318.111C137.315 315.762 138.966 312.805 139.735 311.541C139.811 311.409 139.85 311.259 139.848 311.107C139.846 310.955 139.803 310.806 139.723 310.676Z" fill="#6A2D32"/>
<path d="M127.84 273.349C125.249 280.006 123.259 281.243 122.347 281.439L122.153 281.48C121.577 281.508 121.003 281.408 120.47 281.187C119.938 280.967 119.461 280.631 119.074 280.204C118.808 279.926 118.609 279.593 118.49 279.228C118.372 278.862 118.338 278.475 118.39 278.095C118.068 278.49 117.681 278.828 117.245 279.092C117.012 279.225 116.758 279.319 116.495 279.369C115.334 279.618 114.024 279.176 113.321 278.864C112.686 279.81 111.501 280.758 110.447 281.505C111.814 281.463 113.165 281.816 114.337 282.521C116.956 284.215 117.787 287.68 117.816 287.818C117.848 287.965 117.82 288.118 117.738 288.244C117.657 288.37 117.529 288.459 117.382 288.49C117.311 288.509 117.238 288.514 117.166 288.503C117.093 288.493 117.024 288.468 116.962 288.43C116.899 288.392 116.845 288.341 116.803 288.282C116.761 288.222 116.732 288.155 116.716 288.083C116.71 288.056 115.945 284.894 113.729 283.461C111.513 282.028 108.121 282.93 108.093 282.936C107.961 282.974 107.82 282.962 107.696 282.904C107.571 282.845 107.473 282.744 107.418 282.618C107.363 282.488 107.358 282.343 107.404 282.21C107.45 282.077 107.545 281.966 107.668 281.899C108.808 281.279 111.892 279.344 112.571 277.926L112.559 277.871L112.586 277.865C112.779 277.468 112.883 277.034 112.894 276.593C112.904 276.152 112.819 275.714 112.645 275.308C112.518 275.036 112.329 274.798 112.093 274.613C111.858 274.428 111.582 274.3 111.288 274.24C109.607 273.82 105.656 274.812 101.684 278.267L101.417 277.023C105.299 273.819 109.429 272.586 111.545 273.144L112.04 273.298C113.39 268.266 113.792 266.907 117.095 264.377C117.161 265.086 117.178 265.573 117.208 265.711C114.697 267.754 114.365 269.04 113.095 273.766L113.02 273.955C113.283 274.196 113.501 274.482 113.664 274.8C114.088 275.773 114.128 276.87 113.773 277.871C114.571 278.22 115.896 278.601 116.666 278.147C117.981 277.402 119.475 274.392 119.99 273.154C120.506 271.915 121.092 270.604 121.129 270.509C121.192 270.373 121.306 270.267 121.447 270.215C121.517 270.19 121.591 270.178 121.665 270.181C121.739 270.184 121.812 270.201 121.88 270.232C121.947 270.264 122.008 270.308 122.058 270.362C122.108 270.417 122.148 270.481 122.173 270.55C122.199 270.62 122.211 270.694 122.208 270.768C122.205 270.842 122.187 270.915 122.156 270.983C122.129 270.989 121.661 272.043 121.092 273.438L121.065 273.444C120.443 274.994 119.749 276.878 119.484 278.207C119.446 278.435 119.462 278.669 119.529 278.891C119.597 279.112 119.715 279.314 119.874 279.483C120.156 279.775 120.496 280.006 120.873 280.159C121.249 280.312 121.654 280.385 122.06 280.373C122.796 280.301 124.682 278.306 126.776 272.97C126.799 272.901 126.836 272.837 126.885 272.782C126.934 272.728 126.994 272.684 127.061 272.654C127.127 272.623 127.199 272.606 127.273 272.605C127.346 272.603 127.419 272.617 127.486 272.644C127.626 272.692 127.74 272.793 127.806 272.925C127.872 273.056 127.885 273.209 127.84 273.349Z" fill="black"/>
<path d="M116.646 294.229C116.718 294.217 116.787 294.191 116.849 294.152C116.91 294.113 116.963 294.062 117.005 294.002C117.046 293.941 117.074 293.873 117.088 293.802C117.102 293.73 117.102 293.656 117.086 293.585C117.074 293.512 117.048 293.441 117.009 293.378C116.97 293.315 116.919 293.26 116.858 293.216C116.798 293.173 116.73 293.142 116.657 293.125C116.585 293.108 116.51 293.105 116.436 293.117C115.236 293.317 113.18 293.44 111.432 292.572C111.084 292.773 110.767 293.026 110.495 293.322C112.62 294.601 115.163 294.46 116.618 294.235L116.646 294.229Z" fill="#4C131A"/>
<path d="M132.508 297.94L126.895 287.953C125.764 289.232 124.336 290.213 122.737 290.812C122.705 290.831 122.677 290.857 122.656 290.888C122.634 290.919 122.62 290.954 122.615 290.992C122.609 291.029 122.611 291.067 122.622 291.103C122.632 291.139 122.651 291.172 122.676 291.201C124.173 292.788 129.214 295.928 132.508 297.94Z" fill="#4C131A"/>
<path d="M16.5719 340.368C16.4221 341.152 15.8636 342.862 15.0842 345.024C13.9851 348.123 12.4439 352.126 11.0328 355.523L-9.06482 359.835L-6.51123 353.272L-1.21859 339.529L-0.265436 337.098L16.5719 340.368Z" fill="#AA5F44"/>
<path d="M16.5718 340.368C16.3076 341.697 14.873 345.793 13.1917 350.086C7.51585 348.297 1.22124 343.893 -1.22461 339.501L-0.26553 337.098L16.5718 340.368Z" fill="black"/>
<path d="M110.07 314.928L109.499 315.774C108.074 317.757 104.059 322.898 97.9141 326.877L96.8855 327.473C94.7767 328.629 92.5826 329.622 90.3223 330.443C90.6941 332.85 91.0246 335.469 91.2031 338.322L24.7453 352.581C23.8076 350.109 22.9969 347.59 22.3164 345.034C19.9091 345.213 17.4918 345.209 15.0849 345.024L13.9297 344.896C6.69396 343.788 0.895369 340.753 -1.21791 339.529L-2.08496 338.992C-2.08496 338.992 0.778433 331.582 3.99496 322.853C5.2342 319.464 7.84319 313.294 10.3368 311.169C14.3051 307.831 22.0533 305.532 48.1775 299.927L48.2052 299.921C74.357 294.31 82.3386 293.233 87.3271 294.65C90.5007 295.559 95.3834 300.122 97.9315 302.698C104.446 309.339 110.07 314.928 110.07 314.928Z" fill="url(#paint6_linear_26218_66604)"/>
<path d="M90.482 330.379C89.691 326.153 88.7519 322.046 88.7341 321.963C88.7096 321.83 88.7312 321.693 88.7952 321.574C88.8169 321.54 90.321 318.846 90.593 316.879C90.5999 316.806 90.6217 316.735 90.6571 316.671C90.6925 316.606 90.7408 316.55 90.7989 316.505C90.857 316.46 90.9237 316.427 90.9949 316.409C91.0662 316.391 91.1403 316.388 91.2129 316.399C91.2861 316.406 91.3571 316.428 91.4214 316.463C91.4858 316.499 91.5423 316.547 91.5873 316.605C91.6323 316.663 91.6649 316.73 91.683 316.801C91.7012 316.872 91.7046 316.947 91.6929 317.019C91.4584 318.891 90.2545 321.232 89.8814 321.919C90.0712 322.804 90.8521 326.309 91.5462 329.948L90.482 330.379ZM20.043 336.325C20.0095 336.303 17.5327 334.464 16.5054 332.775C16.4658 332.711 16.4138 332.655 16.3524 332.612C16.291 332.568 16.2214 332.537 16.1478 332.52C16.0742 332.504 15.998 332.502 15.9238 332.515C15.8495 332.529 15.7787 332.557 15.7154 332.598C15.6515 332.634 15.5958 332.683 15.5516 332.742C15.5074 332.801 15.4757 332.868 15.4585 332.939C15.4413 333.011 15.439 333.085 15.4516 333.157C15.4642 333.23 15.4916 333.299 15.532 333.36C16.5415 334.965 18.5719 336.612 19.1941 337.086C19.3839 337.97 20.0602 341.526 20.9419 345.097L22.0832 345.025C21.0829 340.902 20.2762 336.738 20.2643 336.682C20.2533 336.611 20.2281 336.543 20.1901 336.481C20.152 336.42 20.102 336.367 20.043 336.325Z" fill="black"/>
<path d="M78.358 290.444C76.8966 290.238 74.689 290.596 74.689 290.596C73.6298 287.815 72.3473 284.534 71.3856 284.364C70.4239 284.195 57.6712 284.733 45.5076 287.343C33.3439 289.953 21.5856 294.586 20.6577 295.248C19.7297 295.91 20.0545 299.31 20.2014 302.286C20.2014 302.286 18.0412 302.865 16.821 303.648C15.6008 304.43 15.9924 306.659 19.1236 311.28C21.8695 315.317 24.6712 321.367 30.4443 324.957C45.0399 334.087 53.4395 338.328 56.3146 337.711C59.1896 337.095 65.0823 329.787 74.6481 315.473C78.4677 309.824 78.541 303.158 79.3889 298.349C80.3491 292.851 80.0859 290.681 78.358 290.444Z" fill="#FF6666"/>
<path d="M35.5079 303.946C35.5043 303.798 35.559 303.654 35.6601 303.546C35.7613 303.438 35.9009 303.374 36.0489 303.367C38.0709 303.222 39.9293 303.662 41.6928 304.065C44.347 304.71 46.8452 305.302 50.1743 304.24C53.5034 303.179 55.3592 301.451 57.7362 299.321C59.6809 297.603 61.9158 295.619 65.1124 293.806C69.5963 291.253 72.5403 290.014 74.2404 289.447C74.3728 289.795 74.5111 290.17 74.6652 290.484C73.0204 291.039 70.1534 292.233 65.6695 294.785C62.5716 296.52 60.3861 298.463 58.4691 300.176C55.9874 302.357 53.8513 304.261 50.5222 305.322L49.2624 305.65C46.2215 306.303 43.7845 305.727 41.4364 305.161C39.6729 304.758 37.9982 304.366 36.1143 304.481C36.0392 304.486 35.9637 304.477 35.8923 304.453C35.8209 304.429 35.7551 304.391 35.6986 304.341C35.6421 304.291 35.5961 304.23 35.5634 304.163C35.5307 304.095 35.5118 304.021 35.5079 303.946ZM29.4431 309.643L24.1187 307.604C20.8067 306.319 20.2253 303.205 20.1461 302.297L19.0364 302.651C19.2263 303.94 20.0487 307.234 23.7062 308.647L29.0642 310.707C34.7895 312.862 40.7044 315.092 44.6544 317.194C44.7734 317.258 44.9106 317.28 45.0434 317.255C45.1986 317.21 45.3316 317.11 45.4166 316.973C45.4812 316.836 45.4938 316.68 45.452 316.535C45.4101 316.389 45.3167 316.264 45.1893 316.183C41.1781 314.065 35.2296 311.813 29.4431 309.643ZM71.203 303.459C71.132 303.446 71.0593 303.448 70.9891 303.464C70.9188 303.48 70.8525 303.51 70.7941 303.552C70.7358 303.594 70.6865 303.648 70.6492 303.71C70.6119 303.771 70.5874 303.84 70.5771 303.911C70.2795 306.028 69.3937 309.312 66.8512 313.097C57.7296 326.65 56.1109 329.079 51.0469 325.828C50.9862 325.785 50.9172 325.755 50.8443 325.74C50.7714 325.725 50.6961 325.725 50.6234 325.741C50.5506 325.756 50.4818 325.787 50.4215 325.83C50.3612 325.874 50.3105 325.93 50.2728 325.994C50.2005 326.121 50.1774 326.27 50.208 326.413C50.2387 326.555 50.3209 326.682 50.4389 326.768C52.3468 327.978 53.8734 328.489 55.3386 328.175C58.5177 327.493 61.5221 323.031 67.7697 313.738C70.4424 309.752 71.3755 306.285 71.683 304.079C71.6946 304.006 71.6913 303.932 71.6731 303.861C71.6549 303.789 71.6223 303.723 71.5773 303.665C71.5323 303.607 71.4759 303.558 71.4115 303.523C71.3471 303.487 71.2761 303.466 71.203 303.459Z" fill="#CC2140"/>
<path d="M106.158 224.187C105.477 223.924 104.86 223.52 104.345 223.003C103.831 222.486 103.431 221.866 103.171 221.184L102.29 218.828C102.265 218.775 102.223 218.732 102.17 218.707C102.117 218.681 102.057 218.675 102 218.688C101.946 218.699 101.897 218.73 101.864 218.775C101.831 218.819 101.815 218.874 101.82 218.929L101.955 221.445C102.009 222.174 101.904 222.907 101.646 223.591C101.389 224.276 100.985 224.896 100.463 225.409L100.201 225.667C100.17 225.699 100.148 225.739 100.137 225.782C100.125 225.824 100.126 225.87 100.138 225.912C100.144 225.956 100.163 225.997 100.19 226.032C100.218 226.067 100.254 226.094 100.296 226.11L100.641 226.238C101.327 226.491 101.95 226.891 102.466 227.41C102.981 227.929 103.378 228.553 103.628 229.241L104.531 231.563C104.543 231.622 104.579 231.673 104.629 231.705C104.68 231.738 104.741 231.749 104.799 231.737C104.861 231.724 104.916 231.689 104.953 231.638C104.99 231.587 105.007 231.525 105.001 231.462L104.844 228.98C104.801 228.252 104.911 227.522 105.168 226.839C105.425 226.156 105.823 225.535 106.336 225.016L106.626 224.752C106.678 224.681 106.701 224.593 106.689 224.507C106.664 224.423 106.607 224.352 106.531 224.309L106.158 224.187Z" fill="#40DF80"/>
<path d="M146.965 281.219C146.286 280.953 145.67 280.548 145.156 280.032C144.642 279.515 144.241 278.896 143.978 278.216L143.097 275.861C143.072 275.807 143.03 275.764 142.977 275.739C142.924 275.713 142.864 275.707 142.806 275.72C142.752 275.732 142.704 275.762 142.671 275.807C142.638 275.851 142.622 275.906 142.627 275.961L142.789 278.471C142.83 279.203 142.715 279.934 142.453 280.618C142.192 281.302 141.788 281.923 141.27 282.441L141.007 282.7C140.978 282.726 140.956 282.761 140.943 282.799C140.931 282.837 140.929 282.878 140.938 282.917C140.943 282.957 140.96 282.995 140.987 283.026C141.015 283.056 141.051 283.077 141.09 283.087L141.442 283.243C142.125 283.496 142.746 283.892 143.265 284.404C143.784 284.916 144.188 285.532 144.45 286.212L145.331 288.567C145.35 288.623 145.386 288.67 145.435 288.702C145.484 288.733 145.542 288.747 145.6 288.741C145.659 288.723 145.71 288.687 145.747 288.638C145.783 288.588 145.802 288.528 145.801 288.467L145.639 285.957C145.6 285.232 145.714 284.508 145.972 283.83C146.23 283.153 146.626 282.536 147.137 282.021L147.421 281.728C147.451 281.702 147.473 281.667 147.485 281.629C147.497 281.591 147.499 281.55 147.49 281.511C147.478 281.474 147.458 281.439 147.432 281.41C147.406 281.381 147.374 281.358 147.338 281.341L146.965 281.219Z" fill="#63B9FF"/>
<path d="M6.78924 291.4C6.32564 291.229 5.90461 290.959 5.55511 290.61C5.2056 290.261 4.93592 289.84 4.76461 289.376L4.15992 287.771C4.14495 287.734 4.117 287.702 4.08114 287.684C4.04528 287.665 4.00387 287.659 3.9644 287.669C3.92468 287.676 3.88912 287.698 3.86414 287.73C3.83916 287.762 3.8264 287.802 3.82818 287.842L3.93527 289.554C3.96918 290.047 3.8959 290.542 3.72046 291.004C3.54502 291.466 3.27159 291.884 2.91898 292.23L2.75512 292.41C2.73104 292.427 2.71295 292.452 2.70339 292.48C2.69383 292.508 2.69329 292.538 2.70185 292.566C2.70566 292.596 2.71858 292.623 2.73877 292.645C2.75897 292.666 2.78543 292.681 2.81443 292.687L3.03761 292.783C3.50319 292.96 3.92542 293.234 4.27574 293.588C4.62606 293.942 4.89629 294.367 5.06817 294.835L5.66692 296.412C5.6819 296.45 5.70984 296.481 5.7457 296.5C5.78156 296.519 5.82297 296.524 5.86245 296.515C5.90216 296.507 5.93772 296.485 5.96271 296.453C5.98769 296.421 6.00044 296.381 5.99866 296.341L5.89751 294.657C5.86254 294.16 5.93464 293.661 6.10895 293.195C6.28326 292.729 6.55571 292.305 6.90787 291.953L7.09936 291.767C7.13394 291.723 7.15269 291.668 7.15264 291.611C7.12952 291.56 7.0899 291.517 7.04005 291.491L6.78924 291.4Z" fill="#40DF80"/>
<path d="M85.3752 269.651C84.9116 269.48 84.4906 269.211 84.1411 268.861C83.7916 268.512 83.5219 268.091 83.3506 267.628L82.7518 266.05C82.7368 266.012 82.7089 265.981 82.673 265.963C82.6372 265.944 82.5958 265.938 82.5563 265.947C82.5166 265.955 82.481 265.977 82.456 266.009C82.4311 266.041 82.4183 266.081 82.4201 266.121L82.5212 267.806C82.5552 268.299 82.4819 268.793 82.3064 269.255C82.131 269.717 81.8576 270.136 81.505 270.482L81.3134 270.667C81.2878 270.713 81.2788 270.766 81.2878 270.817C81.3007 270.868 81.3307 270.913 81.3728 270.944L81.6236 271.035C82.0872 271.206 82.5082 271.475 82.8577 271.824C83.2072 272.174 83.4769 272.595 83.6482 273.058L84.2529 274.663C84.2924 274.713 84.3655 274.784 84.4484 274.766C84.4881 274.758 84.5237 274.736 84.5487 274.704C84.5737 274.673 84.5864 274.633 84.5846 274.592L84.4776 272.88C84.4436 272.387 84.5169 271.893 84.6924 271.431C84.8678 270.969 85.1412 270.55 85.4938 270.204L85.6853 270.019C85.711 269.973 85.72 269.92 85.711 269.868C85.6981 269.818 85.6681 269.773 85.626 269.742L85.3752 269.651Z" fill="#5865F2"/>
<path d="M131.97 236C131.506 235.828 131.085 235.559 130.736 235.21C130.386 234.86 130.116 234.439 129.945 233.976L129.34 232.371C129.325 232.333 129.298 232.302 129.262 232.283C129.226 232.264 129.184 232.259 129.145 232.268C129.105 232.276 129.07 232.298 129.045 232.33C129.02 232.362 129.007 232.401 129.009 232.442L129.116 234.154C129.15 234.647 129.076 235.141 128.901 235.603C128.726 236.065 128.452 236.484 128.1 236.83L127.908 237.016C127.884 237.033 127.866 237.057 127.856 237.085C127.847 237.113 127.846 237.143 127.855 237.172C127.859 237.201 127.871 237.228 127.892 237.25C127.912 237.272 127.938 237.286 127.967 237.292L128.218 237.383C128.682 237.554 129.103 237.823 129.452 238.173C129.802 238.522 130.071 238.943 130.243 239.406L130.847 241.012C130.862 241.049 130.89 241.08 130.926 241.099C130.962 241.118 131.004 241.123 131.043 241.114C131.083 241.106 131.118 241.085 131.143 241.053C131.168 241.021 131.181 240.981 131.179 240.941L131.072 239.228C131.038 238.736 131.111 238.241 131.287 237.779C131.462 237.317 131.736 236.899 132.088 236.552L132.252 236.373C132.276 236.356 132.294 236.331 132.304 236.303C132.314 236.275 132.314 236.245 132.306 236.217C132.302 236.187 132.289 236.16 132.269 236.138C132.248 236.117 132.222 236.102 132.193 236.096L131.97 236Z" fill="#D43B8C"/>
</g>
</g>
<path d="M77.8058 31.857C76.2843 30.8865 74.9896 29.5958 74.0111 28.0737C73.0325 26.5516 72.3932 24.8342 72.137 23.0396L71.2094 16.8155C71.1848 16.669 71.109 16.5362 70.9956 16.4411C70.8821 16.3459 70.7386 16.2948 70.591 16.2969C70.4434 16.2948 70.2999 16.3459 70.1864 16.4411C70.073 16.5362 69.9972 16.669 69.9726 16.8155L69.045 23.0396C68.7888 24.8342 68.1495 26.5516 67.1709 28.0737C66.1924 29.5958 64.8977 30.8865 63.3762 31.857L62.5517 32.3757C62.4527 32.4187 62.3696 32.4919 62.3141 32.585C62.2586 32.678 62.2336 32.7862 62.2425 32.8944C62.2336 33.0025 62.2586 33.1107 62.3141 33.2038C62.3696 33.2968 62.4527 33.37 62.5517 33.413L63.3762 33.9317C64.8977 34.9022 66.1924 36.1929 67.1709 37.715C68.1495 39.2372 68.7888 40.9546 69.045 42.7491L69.9726 48.9732C69.9972 49.1197 70.073 49.2526 70.1864 49.3477C70.2999 49.4428 70.4434 49.494 70.591 49.4919C70.7386 49.494 70.8821 49.4428 70.9956 49.3477C71.109 49.2526 71.1848 49.1197 71.2094 48.9732L72.137 42.7491C72.3932 40.9546 73.0325 39.2372 74.0111 37.715C74.9896 36.1929 76.2843 34.9022 77.8058 33.9317L78.5273 33.413C78.6263 33.37 78.7093 33.2968 78.7648 33.2038C78.8203 33.1107 78.8453 33.0025 78.8365 32.8944C78.8453 32.7862 78.8203 32.678 78.7648 32.585C78.7093 32.4919 78.6263 32.4187 78.5273 32.3757L77.8058 31.857Z" fill="#D43B8C"/>
<mask id="mask3_26218_66604" style="mask-type:luminance" maskUnits="userSpaceOnUse" x="195" y="268" width="111" height="113">
<path d="M305.871 268H195V380.033H305.871V268Z" fill="white"/>
</mask>
<g mask="url(#mask3_26218_66604)">
<path d="M261.744 319.394L265.343 309.339C266.784 305.307 269.709 301.976 273.521 300.026L300.059 286.456C303.798 284.538 307.593 289.033 305.03 292.38C302.468 295.727 297.958 299.62 290.788 302.561L298.799 302.505C301.991 302.477 303.224 306.65 300.535 308.373C295.97 311.328 289.108 313.764 280.285 311.216L283.562 314.297C285.285 315.921 283.996 318.792 281.629 318.624C278.268 318.358 274.263 317.364 271.532 314.423C271.532 314.423 269.726 319.394 264.95 322.125C263.158 323.147 261.057 321.341 261.744 319.394Z" fill="white"/>
<path d="M239.124 375.612C240.354 371.938 237.432 367.648 232.599 366.03C227.765 364.413 222.85 366.081 221.621 369.756C220.391 373.43 223.313 377.72 228.146 379.337C232.98 380.955 237.895 379.287 239.124 375.612Z" fill="#66B9FF"/>
<path d="M252.193 358.843C251.674 360.411 250.414 361.601 248.635 362.4C249.056 363.646 249.098 364.878 248.706 366.041C248.313 367.203 247.375 368.337 246.115 369.122C246.386 370.056 246.376 371.05 246.087 371.979C244.672 376.166 237.32 377.482 229.66 374.905C222 372.329 216.916 366.853 218.316 362.666C218.655 361.722 219.27 360.902 220.081 360.313C219.577 358.969 219.479 357.624 219.899 356.378C220.319 355.132 221.075 354.263 222.154 353.521C221.215 351.813 220.935 350.09 221.453 348.536C223.008 343.9 231.158 342.444 239.645 345.287C248.131 348.129 253.747 354.207 252.193 358.843Z" fill="#89D6FF"/>
<path d="M216.579 313.581C220.823 300.907 237.838 295.18 254.559 300.795C271.28 306.411 281.405 321.227 277.161 333.901C274.389 342.163 266.196 347.471 256.197 348.619C255.113 348.735 254.073 349.112 253.168 349.72C252.263 350.328 251.519 351.147 251.002 352.106L249.251 355.397C247.375 358.436 241.493 359.305 235.401 357.26C228.875 355.075 224.562 350.384 225.612 346.687L226.158 343.844C226.364 342.742 226.291 341.607 225.947 340.54C225.602 339.474 224.996 338.511 224.184 337.738C217.07 330.82 213.835 321.759 216.579 313.581Z" fill="#FFEFA3"/>
<path d="M242.488 365.063C239.715 365.063 236.69 364.544 233.693 363.536C229.016 361.982 224.941 359.363 222.49 356.366C222.374 356.246 222.283 356.103 222.225 355.947C222.167 355.79 222.142 355.623 222.152 355.456C222.162 355.289 222.206 355.126 222.283 354.977C222.359 354.829 222.465 354.698 222.595 354.592C222.725 354.487 222.875 354.41 223.036 354.365C223.197 354.321 223.366 354.311 223.531 354.336C223.697 354.36 223.855 354.419 223.996 354.508C224.138 354.597 224.259 354.715 224.353 354.854C226.523 357.5 230.206 359.839 234.45 361.267C238.455 362.612 242.6 363.004 245.849 362.346C246.009 362.299 246.177 362.286 246.342 362.308C246.507 362.33 246.666 362.386 246.808 362.472C246.951 362.558 247.074 362.673 247.17 362.809C247.266 362.945 247.332 363.1 247.365 363.263C247.398 363.427 247.397 363.595 247.362 363.758C247.327 363.921 247.258 364.074 247.16 364.209C247.062 364.344 246.938 364.457 246.794 364.541C246.65 364.626 246.491 364.679 246.325 364.698C245.062 364.951 243.776 365.073 242.488 365.063ZM242.11 371.532C242.428 371.504 242.723 371.351 242.93 371.108C243.137 370.864 243.239 370.549 243.216 370.23C243.188 369.913 243.035 369.62 242.791 369.415C242.546 369.21 242.231 369.111 241.914 369.138C238.959 369.39 235.472 368.9 232.111 367.765C228.47 366.547 225.221 364.684 222.98 362.514C222.746 362.329 222.451 362.237 222.153 362.257C221.855 362.277 221.575 362.406 221.368 362.621C221.16 362.836 221.039 363.12 221.029 363.418C221.02 363.717 221.121 364.008 221.314 364.236C223.806 366.659 227.377 368.718 231.341 370.048C234.408 371.07 237.474 371.602 240.317 371.602C240.933 371.602 241.522 371.574 242.11 371.532Z" fill="#3F96EF"/>
<path d="M220.893 315.935C224.492 305.166 238.93 300.307 253.13 305.068C267.33 309.83 275.915 322.405 272.302 333.175C269.949 340.191 263.003 344.686 254.517 345.652C253.596 345.752 252.713 346.075 251.944 346.592C251.176 347.109 250.545 347.806 250.105 348.621L248.621 351.422C247.024 353.999 242.039 354.741 236.857 353.004C231.326 351.142 227.657 347.165 228.553 344.028L229.029 341.605C229.2 340.67 229.136 339.707 228.842 338.802C228.549 337.898 228.036 337.081 227.348 336.424C221.299 330.556 218.568 322.868 220.893 315.935Z" fill="url(#paint7_linear_26218_66604)"/>
<path d="M237.46 357.851C238.245 358.031 239.04 358.167 239.841 358.257C243.552 344.743 247.459 334.128 250.946 327.868C258.761 330.389 261.659 329.324 262.696 327.952C263.732 326.579 263.382 324.661 261.659 322.168C259.937 319.675 258.27 318.877 256.254 319.241C254.237 319.605 252.067 321.482 249.868 324.969C247.788 324.216 245.754 323.342 243.776 322.35C244.21 317.743 243.664 314.648 242.166 313.009C241.269 312.029 239.561 311.063 236.578 312.001C233.595 312.939 233.049 314.466 233.035 315.586C232.993 318.317 236.732 321.286 241.199 323.709C240.009 332.447 235.864 345.401 231.915 355.75C232.611 356.135 233.332 356.477 234.071 356.772C235.598 352.739 237.754 346.787 239.645 340.598C241.535 334.408 242.852 329.072 243.468 324.871C245.218 325.711 246.983 326.453 248.636 327.07C246.801 330.403 244.896 334.828 242.95 340.247C241.591 344.015 239.631 349.896 237.46 357.851ZM256.674 321.608C257.052 321.538 258.172 321.342 259.685 323.526C260.945 325.361 260.973 326.257 260.791 326.495C260.315 327.126 257.584 327.392 252.221 325.753C253.845 323.274 255.357 321.832 256.674 321.608ZM241.479 321.104C237.768 318.961 235.416 316.818 235.43 315.628C235.444 314.956 236.746 314.48 237.306 314.298C237.803 314.129 238.322 314.034 238.847 314.018C239.827 314.018 240.233 314.452 240.387 314.634C241.395 315.726 241.703 318.023 241.479 321.104Z" fill="#FFC31A"/>
<path d="M227.643 316.425L228.301 306.23C228.564 302.144 227.257 298.111 224.646 294.957L206.497 272.984C203.92 269.889 198.907 272.396 199.887 276.303C200.867 280.21 203.332 285.35 208.527 290.643L201.511 287.563C198.725 286.33 196.064 289.523 197.772 292.058C200.671 296.371 205.769 301.105 214.479 302.211L210.432 303.681C208.303 304.452 208.345 307.462 210.488 308.205C213.541 309.255 217.434 309.899 220.949 308.345C220.949 308.345 220.641 313.386 223.806 317.601C224.996 319.184 227.517 318.4 227.643 316.425Z" fill="white"/>
<path d="M269.361 326.466C269.782 330.261 269.88 333.23 271.42 333.062C272.96 332.894 275.341 329.645 274.921 325.85C274.501 322.054 271.434 319.142 269.894 319.31C268.353 319.478 268.941 322.671 269.361 326.466Z" fill="white"/>
</g>
</g>
<path d="M247.72 64.5069C252.008 48.5029 242.511 32.0528 226.507 27.7646C210.503 23.4763 194.053 32.9738 189.764 48.9778C185.476 64.9818 194.974 81.4319 210.978 85.7201C226.982 90.0084 243.432 80.5109 247.72 64.5069Z" fill="white" fill-opacity="0.1"/>
<mask id="mask4_26218_66604" style="mask-type:luminance" maskUnits="userSpaceOnUse" x="195" y="38" width="47" height="38">
<path d="M241.684 48.3957L203.047 38.043L195.8 65.0889L234.437 75.4417L241.684 48.3957Z" fill="white"/>
</mask>
<g mask="url(#mask4_26218_66604)">
<path d="M229.714 71.1641C228.142 71.8958 226.357 72.0368 224.689 71.5597L206.185 66.6016C204.502 66.1807 203.027 65.1663 202.032 63.7467C201.167 62.5918 200.633 61.2244 200.487 59.7903C200.34 58.3557 200.586 56.9094 201.199 55.6056L204.125 49.4219C205.658 52.037 207.699 54.3211 210.126 56.1401C212.553 57.9591 215.319 59.2782 218.262 60.0193C223.875 61.5612 229.861 60.964 235.053 58.3425L234.506 64.5301C234.384 65.9656 233.875 67.3414 233.03 68.5102C232.187 69.6794 231.04 70.5962 229.714 71.1641Z" fill="#AAFAE7"/>
<path d="M235.052 58.3415C229.859 60.9629 223.873 61.5602 218.261 60.0183C215.318 59.2772 212.552 57.9581 210.125 56.1391C207.698 54.32 205.657 52.036 204.124 49.4209L206.358 44.6353C207.007 43.2019 208.151 42.0483 209.58 41.3861C211.01 40.7224 212.631 40.5931 214.149 41.0219C214.843 41.1793 215.495 41.4793 216.065 41.9044C216.633 42.3306 217.107 42.8709 217.453 43.491C218.14 44.7408 218.317 46.2071 217.944 47.5814L224.013 49.2077C224.191 48.5094 224.516 47.8571 224.968 47.2956C225.42 46.7342 225.987 46.2749 226.631 45.9502C227.212 45.5818 227.866 45.3452 228.547 45.2538C229.228 45.1638 229.922 45.2215 230.58 45.4247C232.158 45.7922 233.545 46.7276 234.477 48.0525C235.388 49.3258 235.763 50.9038 235.52 52.4493L235.052 58.3415Z" fill="#7CE4CC"/>
<path d="M217.395 56.1444C217.237 56.1164 217.092 56.0378 216.981 55.9227C216.869 55.8087 216.798 55.6613 216.773 55.5028L216.656 53.5711C216.635 53.4624 216.636 53.3503 216.662 53.2432C216.688 53.1345 216.737 53.0337 216.804 52.9473C216.874 52.8598 216.959 52.7893 217.059 52.7383C217.158 52.6888 217.267 52.6595 217.378 52.6559C217.713 52.5874 218.078 53.0019 218.147 53.3371L218.224 55.4165C218.252 55.5142 218.255 55.6178 218.231 55.7176C218.207 55.8174 218.161 55.9093 218.093 55.9846C218.025 56.0614 217.939 56.1193 217.843 56.1536C217.747 56.1898 217.643 56.1999 217.543 56.184L217.395 56.1444Z" fill="#23272A"/>
<path d="M220.208 56.8984L220.06 56.8588C219.965 56.8222 219.88 56.7614 219.816 56.6823C219.749 56.6044 219.704 56.5116 219.684 56.411C219.663 56.312 219.668 56.2089 219.698 56.1107C219.727 56.0125 219.781 55.924 219.854 55.8533L220.961 54.0912C221.188 53.8353 221.711 53.6588 221.967 53.8859C222.061 53.9443 222.141 54.0243 222.202 54.1167C222.263 54.2105 222.302 54.3143 222.318 54.4248C222.333 54.5335 222.326 54.6454 222.294 54.7525C222.262 54.858 222.208 54.9558 222.134 55.0391L221.067 56.6535C220.969 56.7791 220.831 56.8706 220.677 56.9132C220.524 56.9577 220.359 56.953 220.208 56.8984Z" fill="#23272A"/>
<path d="M213.373 47.4647C213.176 47.412 213.009 47.2833 212.907 47.1086C212.806 46.9328 212.778 46.7242 212.831 46.5276C213.108 45.4934 212.822 44.7834 212.378 44.6644C211.934 44.5454 211.183 44.9777 210.906 46.012C210.854 46.2085 210.725 46.3751 210.55 46.4771C210.374 46.5773 210.165 46.6052 209.968 46.5524C209.771 46.4997 209.604 46.371 209.502 46.1963C209.401 46.0205 209.373 45.8119 209.426 45.6154C209.901 43.8423 211.294 42.7903 212.774 43.1869C214.254 43.5835 214.786 45.1513 214.311 46.9243C214.258 47.1208 214.13 47.2874 213.955 47.3894C213.779 47.4895 213.57 47.5175 213.373 47.4647Z" fill="#23272A"/>
<path d="M231.433 52.3048C231.236 52.252 231.069 52.1233 230.967 51.9486C230.866 51.7729 230.838 51.5642 230.891 51.3677C231.168 50.3334 230.882 49.6234 230.29 49.4648C229.698 49.3061 229.243 49.8178 228.966 50.852C228.914 51.0486 228.785 51.2152 228.61 51.3172C228.434 51.4173 228.225 51.4452 228.028 51.3925C227.831 51.3397 227.664 51.211 227.562 51.0364C227.462 50.8606 227.433 50.6519 227.486 50.4554C227.961 48.6824 229.354 47.6303 230.686 47.9873C232.018 48.3443 232.846 49.9913 232.371 51.7643C232.318 51.9608 232.19 52.1275 232.015 52.2295C231.839 52.3296 231.63 52.3575 231.433 52.3048Z" fill="#23272A"/>
<path d="M218.062 60.7567C211.91 59.1494 206.643 55.1758 203.412 49.7051C203.313 49.5312 203.287 49.3248 203.339 49.1313C203.391 48.9377 203.516 48.7718 203.689 48.6709C203.891 48.5697 204.123 48.5448 204.342 48.6035C204.561 48.6622 204.749 48.7998 204.873 48.9882C206.335 51.5223 208.291 53.7377 210.624 55.5061C212.957 57.2731 215.621 58.5556 218.458 59.2792C223.861 60.8379 229.658 60.2326 234.617 57.5915C234.819 57.4903 235.051 57.4654 235.27 57.5241C235.489 57.5828 235.678 57.7204 235.802 57.9088C235.846 58.0981 235.828 58.2974 235.751 58.4749C235.675 58.654 235.544 58.8042 235.376 58.9034C230.068 61.7489 223.856 62.4138 218.062 60.7567Z" fill="#23272A"/>
<path d="M233.431 62.0238C235.803 62.6592 238.114 61.7187 238.595 59.9235C239.076 58.1283 237.545 56.1582 235.173 55.5227C232.802 54.8873 230.49 55.8278 230.009 57.623C229.528 59.4181 231.06 61.3883 233.431 62.0238Z" fill="#E9459D"/>
<path d="M203.38 53.973C205.751 54.6084 208.063 53.6679 208.544 51.8727C209.025 50.0776 207.493 48.1074 205.122 47.472C202.751 46.8365 200.439 47.777 199.958 49.5722C199.477 51.3674 201.009 53.3376 203.38 53.973Z" fill="#E9459D"/>
</g>
</g>
<defs>
<filter id="filter0_d_26218_66604" x="-50.3425" y="75.9234" width="252.851" height="165.892" filterUnits="userSpaceOnUse" color-interpolation-filters="sRGB">
<feFlood flood-opacity="0" result="BackgroundImageFix"/>
<feColorMatrix in="SourceAlpha" type="matrix" values="0 0 0 0 0 0 0 0 0 0 0 0 0 0 0 0 0 0 127 0" result="hardAlpha"/>
<feOffset dy="7.09617"/>
<feGaussianBlur stdDeviation="7.09617"/>
<feColorMatrix type="matrix" values="0 0 0 0 0 0 0 0 0 0 0 0 0 0 0 0 0 0 0.24 0"/>
<feBlend mode="normal" in2="BackgroundImageFix" result="effect1_dropShadow_26218_66604"/>
<feBlend mode="normal" in="SourceGraphic" in2="effect1_dropShadow_26218_66604" result="shape"/>
</filter>
<filter id="filter1_d_26218_66604" x="-94.8127" y="192.533" width="273.491" height="197.191" filterUnits="userSpaceOnUse" color-interpolation-filters="sRGB">
<feFlood flood-opacity="0" result="BackgroundImageFix"/>
<feColorMatrix in="SourceAlpha" type="matrix" values="0 0 0 0 0 0 0 0 0 0 0 0 0 0 0 0 0 0 127 0" result="hardAlpha"/>
<feOffset dy="7.09617"/>
<feGaussianBlur stdDeviation="7.09617"/>
<feColorMatrix type="matrix" values="0 0 0 0 0 0 0 0 0 0 0 0 0 0 0 0 0 0 0.24 0"/>
<feBlend mode="normal" in2="BackgroundImageFix" result="effect1_dropShadow_26218_66604"/>
<feBlend mode="normal" in="SourceGraphic" in2="effect1_dropShadow_26218_66604" result="shape"/>
</filter>
<linearGradient id="paint0_linear_26218_66604" x1="7.60426" y1="170.633" x2="-4.78921" y2="107.048" gradientUnits="userSpaceOnUse">
<stop stop-color="#EB459F"/>
<stop offset="0.23" stop-color="#F154A7"/>
<stop offset="0.71" stop-color="#FB6EB4"/>
<stop offset="1" stop-color="#FF78B9"/>
</linearGradient>
<linearGradient id="paint1_linear_26218_66604" x1="73.742" y1="201.222" x2="75.6736" y2="177.797" gradientUnits="userSpaceOnUse">
<stop stop-color="#EB459F"/>
<stop offset="0.42" stop-color="#F45CAB"/>
<stop offset="1" stop-color="#FF78B9"/>
</linearGradient>
<linearGradient id="paint2_linear_26218_66604" x1="376.956" y1="580.966" x2="377.586" y2="573.327" gradientUnits="userSpaceOnUse">
<stop stop-color="#EB459F"/>
<stop offset="0.42" stop-color="#F45CAB"/>
<stop offset="1" stop-color="#FF78B9"/>
</linearGradient>
<linearGradient id="paint3_linear_26218_66604" x1="31.0486" y1="219.989" x2="42.272" y2="272.299" gradientUnits="userSpaceOnUse">
<stop stop-color="#D18D5E"/>
<stop offset="0.31" stop-color="#CE8A5C"/>
<stop offset="0.56" stop-color="#C68057"/>
<stop offset="0.78" stop-color="#B8704D"/>
<stop offset="0.93" stop-color="#AA5F44"/>
</linearGradient>
<linearGradient id="paint4_linear_26218_66604" x1="48.0157" y1="299.068" x2="34.6646" y2="236.842" gradientUnits="userSpaceOnUse">
<stop offset="0.36" stop-color="#D18D5E"/>
<stop offset="0.5" stop-color="#CC875A"/>
<stop offset="0.69" stop-color="#BC7450"/>
<stop offset="0.85" stop-color="#AA5F44"/>
</linearGradient>
<linearGradient id="paint5_linear_26218_66604" x1="124.965" y1="309.132" x2="130.861" y2="336.614" gradientUnits="userSpaceOnUse">
<stop stop-color="#D18D5E"/>
<stop offset="0.48" stop-color="#C07953"/>
<stop offset="1" stop-color="#AA5F44"/>
</linearGradient>
<linearGradient id="paint6_linear_26218_66604" x1="49.2732" y1="304.926" x2="60.1989" y2="355.847" gradientUnits="userSpaceOnUse">
<stop stop-color="#3F99F2"/>
<stop offset="0.25" stop-color="#2F88E9"/>
<stop offset="0.53" stop-color="#247BE2"/>
<stop offset="0.8" stop-color="#2077E0"/>
</linearGradient>
<linearGradient id="paint7_linear_26218_66604" x1="272.809" y1="281.097" x2="207.058" y2="390.094" gradientUnits="userSpaceOnUse">
<stop offset="0.14" stop-color="#FFE45C"/>
<stop offset="0.83" stop-color="#FFC31A"/>
</linearGradient>
<clipPath id="clip0_26218_66604">
<rect width="324" height="406" fill="white"/>
</clipPath>
</defs>
</svg>
