<svg width="257" height="406" viewBox="0 0 257 406" fill="none" xmlns="http://www.w3.org/2000/svg">
<g clip-path="url(#clip0_26218_66707)">
<mask id="mask0_26218_66707" style="mask-type:luminance" maskUnits="userSpaceOnUse" x="59" y="-67" width="198" height="486">
<path d="M257 -67H59V419H257V-67Z" fill="white"/>
</mask>
<g mask="url(#mask0_26218_66707)">
<mask id="mask1_26218_66707" style="mask-type:luminance" maskUnits="userSpaceOnUse" x="58" y="107" width="222" height="141">
<path d="M72.3757 107.141L279.625 131L266.249 247.189L58.9998 223.33L72.3757 107.141Z" fill="white"/>
</mask>
<g mask="url(#mask1_26218_66707)">
<g filter="url(#filter0_d_26218_66707)">
<path d="M71.5318 114.471L59.8438 215.998C59.62 217.942 60.1777 219.896 61.3943 221.429C62.611 222.962 64.3868 223.949 66.3313 224.173L258.918 246.344C260.862 246.568 262.816 246.01 264.349 244.794C265.882 243.577 266.869 241.801 267.093 239.857L278.781 138.33C279.005 136.386 278.447 134.432 277.23 132.899C276.014 131.366 274.238 130.379 272.294 130.155L79.7073 107.984C77.7628 107.76 75.8091 108.318 74.2759 109.534C72.7427 110.751 71.7556 112.527 71.5318 114.471Z" fill="#808AFF"/>
<path d="M113.584 229.614L217.312 241.555C211.938 224.846 205.268 217.804 194.818 212.585L192.823 211.673C191.624 211.141 190.296 210.594 188.835 210.059C185.839 208.953 182.37 207.845 178.607 206.781L175.196 205.864L175.17 205.861C165.435 203.323 154.229 201.245 144.481 200.648C142.552 200.531 140.694 200.474 138.909 200.479L136.959 200.543C121.883 201.301 116.846 210.854 113.584 229.614Z" fill="#F5F4CB"/>
<path d="M196.19 235.552C197.572 235.406 198.863 234.796 199.854 233.822C200.742 232.953 201.377 231.766 201.835 230.296C202.3 228.655 202.505 226.952 202.442 225.247C202.428 225.078 202.447 224.908 202.498 224.747C202.55 224.585 202.633 224.435 202.743 224.306C202.854 224.177 202.988 224.071 203.14 223.995C203.291 223.919 203.456 223.873 203.626 223.861C203.966 223.838 204.301 223.949 204.56 224.17C204.819 224.392 204.981 224.705 205.012 225.045C205.258 228.38 204.4 234.24 200.133 236.873C199.033 237.539 197.803 237.961 196.525 238.111L196.209 238.127C195.922 238.091 195.655 237.961 195.451 237.756C195.246 237.552 195.115 237.286 195.078 236.999C195.055 236.831 195.065 236.66 195.108 236.496C195.151 236.331 195.227 236.177 195.33 236.043C195.434 235.908 195.563 235.795 195.711 235.711C195.858 235.627 196.021 235.573 196.19 235.552ZM131.359 212.024C131.53 212.018 131.701 212.045 131.862 212.105C132.022 212.165 132.17 212.256 132.295 212.373C132.421 212.49 132.522 212.63 132.593 212.786C132.664 212.942 132.704 213.111 132.71 213.282C132.701 213.36 132.97 220.373 137.957 225.62C138.944 226.653 140.057 227.557 141.27 228.311C141.519 228.47 141.708 228.708 141.804 228.988C141.9 229.267 141.898 229.571 141.799 229.849C141.7 230.128 141.509 230.364 141.258 230.52C141.007 230.676 140.71 230.742 140.416 230.707C140.229 230.679 140.049 230.613 139.887 230.514C139.04 229.993 138.239 229.4 137.493 228.743C130.467 222.736 130.134 213.773 130.104 213.35C130.098 213.008 130.226 212.679 130.46 212.431C130.695 212.183 131.018 212.037 131.359 212.024Z" fill="#FFCA5F"/>
<path d="M137.492 228.744C137.303 229.93 137.088 231.112 136.848 232.292L200.24 239.59C200.209 238.72 200.181 237.825 200.133 236.874C200.084 235.923 199.971 234.86 199.854 233.823C199.062 226.566 196.936 217.895 192.823 211.673C191.624 211.141 190.296 210.595 188.835 210.059C185.839 208.953 182.37 207.845 178.607 206.782L175.196 205.864L175.17 205.861C165.435 203.323 154.229 201.245 144.48 200.648C142.551 200.531 140.694 200.474 138.909 200.479L136.959 200.543C139.042 205.245 139.428 214.897 137.957 225.621C137.837 226.657 137.663 227.714 137.492 228.744Z" fill="#B6C7F5"/>
<path d="M143.302 203.818C143.497 206.912 146.725 209.882 150.504 210.343C150.911 210.391 151.321 210.412 151.731 210.406C150.966 210.827 150.344 211.468 149.946 212.245C149.548 213.023 149.391 213.901 149.496 214.768C149.811 218.191 153.251 221.369 157.137 221.817C159.471 222.059 161.372 221.281 162.403 219.851C162.328 220.364 162.33 220.887 162.408 221.4C162.893 224.947 166.505 228.224 170.368 228.642C174.231 229.061 176.735 226.462 176.038 222.943C175.936 222.486 175.794 222.039 175.614 221.608C177.143 223.149 179.192 224.277 181.29 224.519C184.972 224.916 187.248 222.475 186.397 219.148C185.932 217.257 184.537 215.469 182.788 214.244C183.176 214.349 183.57 214.43 183.968 214.485C187.307 214.895 189.4 212.905 188.835 210.057C185.839 208.951 182.37 207.843 178.607 206.78L175.196 205.862L175.17 205.859C165.435 203.321 154.229 201.244 144.481 200.646C144.059 201.053 143.734 201.549 143.53 202.098C143.326 202.647 143.248 203.235 143.302 203.818Z" fill="#5865F2"/>
<path d="M154.473 205.053C155.321 212.054 161.208 217.693 167.788 218.45C175.949 219.39 180.42 211.557 178.608 206.781L175.196 205.863L175.17 205.86L154.473 205.053Z" fill="#0EC2BC"/>
<path d="M124.708 165.14C122.616 190.834 147.768 209.715 177.183 210.949C206.598 212.183 222.909 189.754 222.087 172.492C221.055 150.901 198.332 142.615 170.402 141.027C144.167 139.529 126.305 145.794 124.708 165.14Z" fill="url(#paint0_linear_26218_66707)"/>
<path d="M142.307 145.195L168.936 143.037C168.884 128.672 161.421 123.954 155.653 124.577C150.389 125.152 142.836 133.076 142.307 145.195Z" fill="#34F4CF"/>
<path d="M177.83 143.534L204.318 148.526C205.231 136.95 200.735 129.712 194.719 128.39C188.703 127.067 181.147 133.416 177.83 143.534Z" fill="#34F4CF"/>
<path d="M145.705 201.864C154.591 207.218 165.556 210.476 177.183 210.948C183.843 211.242 189.831 210.304 195.108 208.47C212.538 196.381 210.627 177.183 205.042 170.975L181.626 171.665L150.073 163.701C153.055 176.33 150.37 193.949 145.705 201.864Z" fill="#ADFDDC"/>
<path opacity="0.5" d="M171.368 187.127C169.666 189.372 172.56 193.642 178.118 194.387C183.676 195.132 189.298 189.847 189.509 188.244C189.72 186.641 185.58 188.395 180.025 187.624C174.47 186.854 172.668 185.412 171.368 187.127Z" fill="#34F4CF"/>
<path d="M193.892 137.404C197.558 138.167 200.033 142.206 198.912 143.731C197.792 145.256 195.8 143.635 192.414 142.72C189.028 141.805 186.748 142.225 186.669 140.405C186.59 138.585 190.2 136.638 193.892 137.404Z" fill="black"/>
<path d="M156.62 134.19C152.446 134.418 149.537 137.574 150.31 139.291C151.084 141.007 153.366 139.879 156.872 139.757C160.377 139.636 162.486 140.01 163.019 138.575C163.738 136.663 160.396 133.994 156.62 134.19Z" fill="black"/>
<path d="M151.559 158.545C154.208 162.572 157.335 166.264 160.872 169.54C166.257 174.517 173.693 179.468 182.489 180.139C186.363 180.454 189.608 179.857 192.282 178.747C202.318 174.574 204.492 162.985 204.492 162.985C204.492 162.985 193.751 164.164 184.412 163.43C175.073 162.696 151.559 158.545 151.559 158.545Z" fill="#9E0960"/>
<path d="M160.872 169.538C166.257 174.516 173.693 179.467 182.488 180.138C186.363 180.453 189.608 179.855 192.282 178.746C186.701 172.276 173.815 167.012 160.872 169.538Z" fill="#FF78B9"/>
<path d="M145.647 172.275C149.619 174.254 154.963 171.615 157.613 166.381C160.263 161.148 159.2 155.329 155.254 153.352C151.308 151.376 145.938 154.012 143.288 159.246C140.638 164.48 141.701 170.298 145.647 172.275ZM203.429 157.166C207.636 155.734 212.611 159.037 214.547 164.562C216.484 170.087 214.702 175.762 210.52 177.197C206.339 178.632 201.367 175.303 199.405 169.775C197.443 164.247 199.248 158.601 203.429 157.166Z" fill="#5865F2"/>
<g opacity="0.4">
<path opacity="0.4" d="M82.4178 217.599C74.0621 216.637 68.0684 209.083 69.0303 200.728C69.9922 192.372 77.5456 186.378 85.9012 187.34C94.2568 188.302 100.25 195.856 99.2887 204.211C98.3267 212.567 90.7734 218.561 82.4178 217.599Z" fill="black"/>
</g>
<path d="M90.036 210.82L76.6769 195.89C76.4161 195.598 76.4409 195.15 76.7325 194.889C77.024 194.629 77.4718 194.653 77.7327 194.945L91.0917 209.876C91.3526 210.167 91.3277 210.615 91.0362 210.876C90.7446 211.137 90.2968 211.112 90.036 210.82Z" fill="white"/>
<path d="M84.5221 206.691C84.6665 206.853 84.5743 207.107 84.3583 207.122L84.2772 208.58L85.6917 208.658C86.0823 208.68 86.3814 209.014 86.3597 209.405C86.338 209.796 86.0038 210.095 85.6132 210.073L81.3697 209.837C80.9791 209.815 80.68 209.481 80.7017 209.091C80.7234 208.7 81.0577 208.401 81.4483 208.423L82.8628 208.501L82.9438 207.043C80.1721 206.54 78.1447 204.039 78.305 201.154C78.3226 200.836 78.5471 200.579 78.8405 200.506C78.8824 200.495 78.9257 200.489 78.97 200.486C78.9969 200.484 79.024 200.484 79.0515 200.486C79.4421 200.508 79.7412 200.842 79.7195 201.232C79.6623 202.261 79.9761 203.225 80.5445 203.994L80.5593 204.014C81.2435 204.927 82.2893 205.561 83.4985 205.693C83.5895 205.703 83.6746 205.744 83.7356 205.812L84.5221 206.691Z" fill="white"/>
<path d="M81.8037 197.461C81.7034 197.349 81.6831 197.185 81.767 197.06C82.3062 196.258 83.2423 195.753 84.2772 195.81C85.8396 195.897 87.0358 197.234 86.949 198.796L86.7919 201.625C86.7803 201.833 86.7466 202.035 86.6931 202.228C86.6261 202.47 86.324 202.514 86.1566 202.326L81.8037 197.461Z" fill="white"/>
<path d="M88.7135 204.559C88.5922 204.745 88.3295 204.755 88.1814 204.589L87.6822 204.032C87.5744 203.911 87.5633 203.734 87.6442 203.594C87.9677 203.035 88.1681 202.393 88.2064 201.704C88.2281 201.313 88.5623 201.014 88.9529 201.036C89.3435 201.058 89.6426 201.392 89.6209 201.782C89.5638 202.809 89.2372 203.756 88.7135 204.559Z" fill="white"/>
</g>
</g>
<mask id="mask2_26218_66707" style="mask-type:luminance" maskUnits="userSpaceOnUse" x="116" y="219" width="210" height="117">
<path d="M325.243 219H116.625V335.956H325.243V219Z" fill="white"/>
</mask>
<g mask="url(#mask2_26218_66707)">
<g filter="url(#filter1_d_26218_66707)">
<path d="M317.863 219H124.005C119.929 219 116.625 222.304 116.625 226.38V328.574C116.625 332.65 119.929 335.954 124.005 335.954H317.863C321.939 335.954 325.243 332.65 325.243 328.574V226.38C325.243 222.304 321.939 219 317.863 219Z" fill="#34F4CF"/>
<path d="M180.931 320.598C175.742 320.623 170.562 321.059 165.442 321.902C151.256 324.327 142.05 329.803 136.913 335.958H182.783L180.931 320.598ZM270.663 321.224C267.113 320.831 263.544 320.622 259.972 320.598L258.12 335.958H303.99C298.279 329.125 287.614 323.128 270.663 321.224Z" fill="#FFF2B0"/>
<path d="M268.734 335.957H166.12C165.233 331.002 164.842 326.073 165.442 321.901C166.38 315.304 169.744 310.505 177.333 310.323C176.446 299.631 178.871 293.373 188.416 291L255.434 295.772C262.658 298.093 266.882 301.535 263.518 312.904C268.264 314.078 270.35 316.581 270.663 321.223C270.924 324.77 270.142 329.568 268.734 335.957Z" fill="#EE65AE"/>
<path d="M266.491 313.999C263.44 319.24 258.824 325.342 252.931 327.611C252.78 327.662 252.621 327.688 252.461 327.689C252.199 327.693 251.942 327.615 251.727 327.465C251.512 327.315 251.349 327.102 251.262 326.855C251.199 326.696 251.17 326.526 251.174 326.355C251.178 326.184 251.217 326.016 251.287 325.861C251.358 325.705 251.459 325.565 251.584 325.449C251.71 325.333 251.857 325.244 252.018 325.186C257.077 323.256 261.223 317.832 264.04 313.034C264.889 313.267 265.711 313.59 266.491 313.999ZM190.45 329.541C181.975 325.447 178.454 315.381 177.176 310.322C176.308 310.342 175.443 310.447 174.595 310.635C175.153 312.938 175.885 315.196 176.785 317.389C179.68 324.299 184.035 329.306 189.328 331.862C189.504 331.957 189.703 332.002 189.902 331.992C190.143 331.994 190.38 331.926 190.584 331.796C190.787 331.667 190.949 331.481 191.049 331.262C191.125 331.11 191.169 330.944 191.179 330.775C191.19 330.605 191.166 330.436 191.11 330.275C191.055 330.115 190.967 329.968 190.854 329.842C190.741 329.715 190.603 329.613 190.45 329.541Z" fill="#D11583"/>
<path d="M248.576 306.672C246.75 319.137 229.566 326.595 216.605 325.108C202.836 323.518 190.241 312.304 193.709 300.205L248.576 306.672Z" fill="#0049B2"/>
<path d="M245.447 242.131C242.667 242.308 239.892 241.717 237.426 240.422C234.96 239.128 232.898 237.179 231.465 234.791C230.033 232.402 229.285 229.665 229.304 226.88C229.323 224.095 230.108 221.369 231.574 219H257.416C258.788 221.233 259.56 223.782 259.656 226.401C259.752 229.02 259.17 231.619 257.966 233.946C256.761 236.274 254.976 238.25 252.782 239.684C250.589 241.118 248.062 241.961 245.447 242.131Z" fill="#242145"/>
<path d="M257.729 234.412C256.41 236.755 254.493 238.708 252.175 240.07C250.777 237.818 248.963 235.853 246.829 234.281C243.83 232.065 236.737 229.9 229.566 229.692C229.461 229.118 229.383 228.518 229.331 227.945C229.205 225.91 229.489 223.87 230.165 221.947C238.328 222.234 246.803 224.607 251.444 228.049C253.855 229.833 255.975 231.979 257.729 234.412Z" fill="#423D80"/>
<path d="M204.636 259.184C195.509 236.862 191.336 232.064 190.006 232.455C187.503 233.159 185.13 247.867 193.657 269.824L204.636 259.184Z" fill="#245EED"/>
<path d="M200.855 253.082C204.949 239.235 207.713 232.246 215.823 228.309C226.123 223.302 242.943 226.561 249.124 231.177C257.729 237.566 260.78 247.736 258.485 260.279C256.347 271.91 262.266 276.838 260.884 290.764C259.085 308.809 238.275 321.561 214.128 317.571C198.012 314.911 188.729 303.88 185.391 292.772C182.731 284.01 184.843 275.222 188.833 269.458C194.466 261.322 198.455 261.14 200.855 253.082Z" fill="url(#paint1_linear_26218_66707)"/>
<path d="M253.14 266.721C268.916 248.493 274.627 245.025 275.54 246.068C276.87 247.58 274.445 263.514 259.789 280.151L253.14 266.721Z" fill="#4C7DFF"/>
<path d="M258.485 260.281L257.755 264.715L257.625 264.636C254.469 262.654 250.87 252.745 250.792 237.073V236.655C245.394 237.412 236.319 236.629 231.026 235.717C224.793 234.647 217.857 232.587 215.093 230.084L214.467 231.935C210.868 242.001 205.235 250.659 200.62 253.814L200.854 253.084C204.636 240.306 207.295 232.979 214.075 228.806C214.623 228.462 215.189 228.149 215.771 227.867L215.875 227.815C226.149 222.834 242.943 226.564 249.123 231.179C249.749 231.623 250.323 232.092 250.897 232.587C252.013 233.576 253.035 234.667 253.948 235.847C258.798 242.106 260.284 250.476 258.485 260.281Z" fill="#242145"/>
<path d="M244.378 295.172C243.658 296.354 242.78 297.433 241.77 298.379L240.909 299.11C234.573 304.273 224.533 305.133 218.613 304.403C215.046 303.96 211.595 302.845 208.443 301.117C204.688 299.005 201.637 296.006 199.76 292.382C198.827 290.554 198.185 288.592 197.856 286.566C197.334 283.463 198.012 279.082 201.194 276.996C203.462 275.536 206.618 275.744 208.626 276.501C209.015 276.66 209.39 276.852 209.747 277.074C213.268 279.447 216.058 282.55 222.108 283.333C227.115 283.985 230.974 283.933 235.199 282.524C236.491 282.075 237.847 281.838 239.214 281.82C241.535 281.82 243.778 282.55 245.108 284.637C247.038 287.688 246.49 291.756 244.378 295.172Z" fill="#D11583"/>
<path d="M244.378 295.173C243.658 296.355 242.781 297.434 241.77 298.38L240.91 299.11C234.573 304.274 224.533 305.134 218.613 304.404C215.046 303.961 211.595 302.846 208.443 301.118C209.68 299.633 211.141 298.348 212.772 297.311C215.98 295.225 220.309 293.504 225.341 292.774C229.123 292.226 232.408 292.148 235.225 292.435C237.012 292.601 238.777 292.95 240.492 293.478C241.848 293.892 243.152 294.461 244.378 295.173Z" fill="#EE65AE"/>
<path d="M235.199 282.524C230.974 283.933 227.115 283.985 222.108 283.333C216.058 282.55 213.268 279.447 209.747 277.074C209.39 276.852 209.015 276.66 208.626 276.5C208.691 277.891 209 279.259 209.539 280.542C211.129 284.611 216.267 287.792 220.361 288.757C225.107 289.852 232.747 288.626 235.616 286.488C237.22 285.29 238.464 283.676 239.215 281.82C237.847 281.838 236.491 282.075 235.199 282.524ZM240.492 293.477C240.237 292.488 239.906 291.52 239.501 290.582C238.224 287.662 236.529 288.392 235.746 290.999L235.225 292.434L233.347 297.649C230.009 297.493 223.62 299.475 217.936 298.875C216.126 298.708 214.37 298.176 212.772 297.31C210.504 296.084 209.148 294.494 207.296 293.842L206.67 286.775C206.592 284.063 205.158 282.915 203.176 285.393C201.528 287.437 200.361 289.825 199.76 292.382C201.637 296.006 204.688 299.005 208.443 301.117C211.596 302.845 215.046 303.96 218.614 304.403C224.533 305.133 234.573 304.273 240.91 299.109C240.963 298.817 240.989 298.52 240.988 298.223C241.041 296.626 240.874 295.029 240.492 293.477Z" fill="white"/>
<path d="M255.33 286.097C255.337 286.267 255.31 286.436 255.25 286.596C255.191 286.755 255.1 286.901 254.984 287.025C254.867 287.149 254.727 287.248 254.571 287.317C254.416 287.386 254.248 287.423 254.078 287.427H254.052C253.715 287.427 253.391 287.297 253.148 287.063C252.905 286.83 252.762 286.512 252.748 286.175C252.618 281.768 249.645 278.039 245.89 277.439C245.552 277.387 245.249 277.205 245.044 276.932C244.839 276.659 244.75 276.317 244.795 275.979C244.852 275.639 245.04 275.335 245.317 275.131C245.594 274.927 245.94 274.838 246.281 274.883C251.34 275.666 255.147 280.386 255.33 286.097ZM200.802 268.494C196.76 268.886 191.988 272.067 190.945 276.709C190.907 276.877 190.902 277.05 190.931 277.22C190.96 277.39 191.022 277.552 191.114 277.698C191.207 277.843 191.327 277.969 191.468 278.068C191.609 278.167 191.768 278.236 191.936 278.273H192.223C192.517 278.274 192.801 278.173 193.029 277.987C193.257 277.802 193.415 277.544 193.475 277.256C194.231 273.788 198.012 271.337 201.063 271.05C201.405 271.011 201.717 270.838 201.932 270.569C202.147 270.301 202.247 269.958 202.21 269.616C202.194 269.449 202.145 269.286 202.065 269.139C201.985 268.991 201.876 268.861 201.744 268.756C201.613 268.652 201.462 268.575 201.3 268.53C201.138 268.485 200.969 268.473 200.802 268.494Z" fill="#0049B2"/>
<path d="M215.458 262.548C215.666 261.427 221.117 258.063 226.932 259.106C232.747 260.149 236.711 265.13 236.502 266.277C236.294 267.424 232.017 264.217 226.202 263.174C220.386 262.131 215.275 263.669 215.458 262.548Z" fill="black"/>
<path d="M219.63 250.475C219.317 252.77 223.255 251.075 227.792 251.649C232.33 252.222 235.694 254.882 235.981 252.588C236.268 250.293 233.138 245.677 228.627 245.103C224.116 244.53 219.917 248.207 219.63 250.475Z" fill="#242145"/>
<path d="M267.378 277.177C267.289 277.652 267.025 278.076 266.639 278.366C266.253 278.655 265.772 278.79 265.291 278.742C264.509 278.664 264.327 278.142 263.988 277.725C263.649 277.308 263.388 276.865 263.075 276.421C262.475 275.537 261.935 274.613 261.458 273.657C261.383 273.501 261.34 273.333 261.331 273.16C261.322 272.988 261.348 272.815 261.406 272.653C261.464 272.49 261.554 272.341 261.67 272.213C261.787 272.086 261.927 271.983 262.084 271.91C262.316 271.802 262.574 271.762 262.827 271.794C263.081 271.826 263.321 271.93 263.518 272.092C264.318 272.814 265.067 273.589 265.761 274.413C266.1 274.831 266.439 275.222 266.752 275.639C267.065 276.056 267.508 276.395 267.378 277.177ZM192.223 257.906C191.195 258.189 190.192 258.556 189.224 259.002L187.79 259.654C187.32 259.914 186.773 259.993 186.564 260.775C186.441 261.232 186.49 261.718 186.701 262.141C186.913 262.564 187.272 262.894 187.712 263.07C188.442 263.357 188.859 262.965 189.328 262.731L190.737 261.974C191.664 261.447 192.553 260.855 193.396 260.201C193.599 260.041 193.749 259.824 193.828 259.578C193.907 259.331 193.911 259.067 193.84 258.819C193.798 258.65 193.722 258.492 193.617 258.354C193.512 258.215 193.379 258.1 193.228 258.015C193.077 257.929 192.909 257.876 192.737 257.857C192.564 257.838 192.389 257.855 192.223 257.906Z" fill="#FFE75C"/>
</g>
</g>
<path d="M205.65 68.7687C203.836 67.5594 202.292 65.9836 201.115 64.1415C199.939 62.2994 199.155 60.2311 198.815 58.0681L197.719 50.5947C197.68 50.4226 197.583 50.2694 197.444 50.161C197.306 50.0526 197.134 49.9958 196.959 50.0002C196.794 49.9989 196.634 50.0587 196.509 50.1683C196.385 50.2779 196.305 50.4296 196.284 50.5947L195.187 58.0681C194.847 60.2415 194.055 62.3181 192.863 64.1621C191.671 66.0061 190.105 67.5758 188.268 68.7687L187.34 69.3632C187.237 69.4233 187.151 69.5101 187.092 69.6145C187.032 69.719 187.002 69.8374 187.003 69.9577C186.991 70.0797 187.017 70.2023 187.078 70.3087C187.138 70.4151 187.23 70.5002 187.34 70.5521L188.268 71.2315C190.103 72.4071 191.668 73.9613 192.861 75.7913C194.053 77.6214 194.846 79.6855 195.187 81.8472L196.284 89.3206C196.302 89.4945 196.379 89.6568 196.502 89.7804C196.625 89.904 196.786 89.9815 196.959 90C197.142 89.9852 197.315 89.9108 197.452 89.7882C197.589 89.6656 197.682 89.5015 197.719 89.3206L198.815 81.8472C199.157 79.696 199.941 77.6403 201.118 75.8122C202.295 73.984 203.838 72.4238 205.65 71.2315L206.662 70.5521C206.766 70.492 206.852 70.4053 206.911 70.3008C206.97 70.1964 207.001 70.0779 207 69.9577C206.988 69.8404 206.951 69.727 206.893 69.6247C206.835 69.5223 206.757 69.4333 206.662 69.3632L205.65 68.7687Z" fill="#63B9FF"/>
<path d="M135.65 374.769C133.836 373.559 132.292 371.984 131.115 370.141C129.939 368.299 129.155 366.231 128.815 364.068L127.719 356.595C127.68 356.423 127.583 356.269 127.444 356.161C127.306 356.053 127.134 355.996 126.959 356C126.794 355.999 126.634 356.059 126.509 356.168C126.385 356.278 126.305 356.43 126.284 356.595L125.187 364.068C124.847 366.241 124.055 368.318 122.863 370.162C121.671 372.006 120.105 373.576 118.268 374.769L117.34 375.363C117.237 375.423 117.151 375.51 117.092 375.615C117.032 375.719 117.002 375.837 117.003 375.958C116.991 376.08 117.017 376.202 117.078 376.309C117.138 376.415 117.23 376.5 117.34 376.552L118.268 377.232C120.103 378.407 121.668 379.961 122.861 381.791C124.053 383.621 124.846 385.686 125.187 387.847L126.284 395.321C126.302 395.494 126.379 395.657 126.502 395.78C126.625 395.904 126.786 395.982 126.959 396C127.142 395.985 127.315 395.911 127.452 395.788C127.589 395.666 127.682 395.502 127.719 395.321L128.815 387.847C129.157 385.696 129.941 383.64 131.118 381.812C132.295 379.984 133.838 378.424 135.65 377.232L136.662 376.552C136.766 376.492 136.852 376.405 136.911 376.301C136.97 376.196 137.001 376.078 137 375.958C136.988 375.84 136.951 375.727 136.893 375.625C136.835 375.522 136.757 375.433 136.662 375.363L135.65 374.769Z" fill="url(#paint2_linear_26218_66707)"/>
<path d="M229.816 -22.4931C234.104 -38.4971 224.607 -54.9472 208.603 -59.2354C192.599 -63.5237 176.149 -54.0262 171.86 -38.0222C167.572 -22.0182 177.07 -5.56813 193.074 -1.27988C209.078 3.00837 225.528 -6.4891 229.816 -22.4931Z" fill="white" fill-opacity="0.1"/>
</g>
<path d="M71.7201 56.9779C67.4319 40.9739 50.9818 31.4765 34.9778 35.7647C18.9738 40.053 9.47632 56.5031 13.7646 72.5071C18.0528 88.5111 34.5029 98.0085 50.5069 93.7203C66.5109 89.432 76.0084 72.9819 71.7201 56.9779Z" fill="white" fill-opacity="0.1"/>
<mask id="mask3_26218_66707" style="mask-type:luminance" maskUnits="userSpaceOnUse" x="20" y="40" width="46" height="49">
<path d="M54.9525 40.7665L20.1792 50.084L30.3419 88.0118L65.1153 78.6943L54.9525 40.7665Z" fill="white"/>
</mask>
<g mask="url(#mask3_26218_66707)">
<path d="M57.6667 67.8605C58.4642 67.0646 59.0356 66.071 59.323 64.9825C59.6104 63.894 59.6033 62.7495 59.3025 61.6656C58.8774 60.0789 57.8377 58.7259 56.4122 57.9039C54.9871 57.0834 53.293 56.8614 51.7028 57.2875L50.0116 57.7406C49.2982 49.5436 47.4998 43.4466 45.5315 43.4806C43.5631 43.5146 41.6306 50.4469 41.2784 59.5873L41.1246 59.6285C36.5569 51.8064 31.8373 46.492 29.9619 47.488C28.0865 48.4839 29.4238 54.7045 32.7919 62.3546L31.2544 62.7666C29.6867 63.2278 28.3564 64.2734 27.5387 65.6866C26.7212 67.0997 26.4791 68.7731 26.8619 70.358C27.1434 71.4471 27.7095 72.4418 28.5026 73.2408C29.2958 74.0398 30.2874 74.6145 31.376 74.9051C30.1225 75.7212 29.1963 76.9513 28.7594 78.3792C28.3225 79.8071 28.4039 81.3445 28.9882 82.7176C29.5727 84.0922 30.623 85.2154 31.9554 85.8929C33.2878 86.5704 34.8169 86.7577 36.2745 86.4214L59.1827 80.2832C60.6132 79.8456 61.8438 78.9189 62.6589 77.6659C63.474 76.413 63.822 74.9151 63.6409 73.4324C63.4604 71.9512 62.7621 70.5791 61.6698 69.5609C60.5775 68.5427 59.1604 67.9405 57.6667 67.8605Z" fill="#E9459D"/>
<path d="M40.6355 65.1878C39.8896 64.8959 39.0607 64.8959 38.3137 65.1865C37.5672 65.4787 36.9578 66.04 36.6077 66.7604L36.454 66.8016L36.2287 67.1909L35.6441 66.8542C34.9807 66.4053 34.1723 66.2239 33.3796 66.3442C32.5875 66.466 31.8695 66.8804 31.3696 67.5061C31.2037 67.8729 31.1129 68.2689 31.1021 68.6699C31.0917 69.0723 31.1618 69.473 31.3079 69.8466C31.4546 70.2218 31.6743 70.5626 31.9547 70.8509C32.2352 71.1393 32.5703 71.3686 32.941 71.5258L33.0948 71.4846L33.4845 71.7091L36.2126 73.2808C36.7366 73.545 37.3398 73.607 37.9072 73.455C38.4745 73.303 38.9659 72.9476 39.2876 72.4568L40.7106 69.7729L41.0485 69.1889C41.4524 68.5758 41.6322 67.8434 41.5568 67.1136C41.4818 66.3854 41.1561 65.7045 40.6355 65.1878Z" fill="#F4DC53"/>
<path d="M54.1658 61.5629C53.42 61.2709 52.591 61.271 51.8441 61.5616C51.0975 61.8538 50.4881 62.4151 50.138 63.1355L49.9842 63.1767L49.759 63.566L49.1744 63.2293C48.511 62.7804 47.7025 62.599 46.91 62.7192C46.1177 62.8411 45.3999 63.2554 44.8999 63.8812C44.734 64.248 44.6432 64.6441 44.6323 65.045C44.622 65.4474 44.6921 65.8481 44.8382 66.2217C44.9849 66.5969 45.2046 66.9377 45.485 67.226C45.7654 67.5144 46.1007 67.7436 46.4713 67.9009L46.6251 67.8597L47.0148 68.0842L49.7429 69.6559C50.2669 69.9201 50.8701 69.9821 51.4374 69.8301C52.0048 69.6781 52.4962 69.3227 52.8178 68.8319L54.2409 66.148L54.5788 65.5641C54.9827 64.9509 55.1625 64.2185 55.087 63.4887C55.012 62.7605 54.6866 62.0796 54.1658 61.5629Z" fill="#F4DC53"/>
<path d="M42.1708 76.4539C41.9964 76.4579 41.8267 76.5099 41.6802 76.6051C41.5334 76.6987 41.415 76.8308 41.3379 76.9863C41.2612 77.1434 41.2282 77.3167 41.2434 77.4902C41.2584 77.6638 41.3208 77.8297 41.4235 77.9699C42.0225 78.8209 42.8685 79.4676 43.848 79.8236C44.827 80.178 45.8922 80.2248 46.8994 79.9566C47.8942 79.7032 48.7812 79.1366 49.4288 78.3414C50.0765 77.5461 50.4501 76.5628 50.4946 75.5393C50.5135 75.3665 50.4845 75.1917 50.4108 75.0338C50.3371 74.876 50.222 74.7423 50.077 74.6446C49.9323 74.5486 49.7638 74.4934 49.5898 74.4857C49.4154 74.4765 49.2424 74.5163 49.0894 74.6001C47.0549 75.9725 44.6191 76.6252 42.1708 76.4539Z" fill="#25272A"/>
</g>
<path d="M65.7201 320.978C61.4319 304.974 44.9818 295.476 28.9778 299.765C12.9738 304.053 3.47632 320.503 7.76457 336.507C12.0528 352.511 28.5029 362.009 44.5069 357.72C60.5109 353.432 70.0084 336.982 65.7201 320.978Z" fill="white" fill-opacity="0.1"/>
<mask id="mask4_26218_66707" style="mask-type:luminance" maskUnits="userSpaceOnUse" x="13" y="307" width="48" height="44">
<path d="M51.661 307.145L13.0239 317.498L21.8112 350.293L60.4482 339.94L51.661 307.145Z" fill="white"/>
</mask>
<g mask="url(#mask4_26218_66707)">
<path d="M54.8463 319.034C55.5373 321.613 47.5527 326.08 36.8107 328.958C26.0687 331.836 16.9204 331.96 16.2295 329.381C16.1517 329.222 16.112 329.046 16.1152 328.868C16.1185 328.69 16.1638 328.516 16.2469 328.359L16.8809 327.461C19.0913 324.833 25.9707 321.68 34.2651 319.458C42.5596 317.235 50.0935 316.526 53.3222 317.697L54.1839 318.193L54.3198 318.157C54.5696 318.398 54.7511 318.7 54.8463 319.034Z" fill="#7B384D"/>
<path d="M53.3218 317.697C50.0932 316.526 42.5593 317.235 34.2648 319.458C25.9703 321.68 19.091 324.833 16.8806 327.461L27.1087 316.139C28.3208 314.26 30.19 312.898 32.352 312.319C34.514 311.74 36.8138 311.985 38.8026 313.005L53.3218 317.697Z" fill="#F9B083"/>
<path d="M41.3978 315.073C41.869 314.656 42.0682 314.312 41.9955 314.041L39.9005 313.293C39.2361 313.293 38.5779 313.42 37.9605 313.667C37.3897 314.256 38.8333 316.924 41.3978 315.073Z" fill="#EC1E79"/>
<path d="M24.5277 319.012C24.6637 318.976 24.7 319.111 24.8724 319.211C28.4457 320.581 31.4877 314.529 30.4173 313.797L29.1935 314.125C28.3857 314.711 27.6916 315.438 27.146 316.274L24.5277 319.012Z" fill="#EC1E79"/>
<path d="M42.5102 324.667L47.0558 341.632C47.1223 341.874 47.1367 342.129 47.0988 342.38C47.0619 342.628 46.9729 342.867 46.8392 343.081C46.7044 343.296 46.5275 343.478 46.3178 343.62C46.1094 343.762 45.8734 343.86 45.6249 343.906L36.6506 346.311C36.4123 346.395 36.1588 346.428 35.9075 346.41C35.6549 346.392 35.4104 346.322 35.1861 346.203C34.9636 346.085 34.767 345.922 34.6109 345.726C34.453 345.528 34.3379 345.3 34.2742 345.057L29.7285 328.092C29.6464 327.791 29.6784 327.47 29.8179 327.191C29.9584 326.91 30.1976 326.693 30.489 326.579C33.8585 325.094 37.4347 324.136 41.0951 323.737C41.4047 323.691 41.7202 323.759 41.9822 323.931C42.2425 324.103 42.4308 324.365 42.5102 324.667Z" fill="#F9B083"/>
<path d="M52.0713 330.979C52.1836 331.327 52.2099 331.697 52.1458 332.056C52.0833 332.416 51.9338 332.756 51.7098 333.046C51.4855 333.334 51.1947 333.565 50.8608 333.717C50.5284 333.868 50.1634 333.937 49.7977 333.916C48.2656 334.181 47.0498 332.907 44.4931 333.155C41.9365 333.404 40.0787 334.629 39.3545 336.278C38.6304 337.926 38.7474 336.731 38.5387 336.496C38.33 336.261 34.2223 335.616 32.3914 336.398C30.5604 337.179 29.6371 339.172 28.1777 339.709C27.865 339.88 27.5184 339.979 27.1636 339.998C26.8075 340.018 26.4518 339.957 26.1228 339.823C25.7939 339.689 25.4982 339.483 25.26 339.219C25.0205 338.956 24.8433 338.643 24.7404 338.302C24.4588 338.66 24.2804 339.088 24.2219 339.538C24.162 339.989 24.2265 340.448 24.4068 340.865C24.5545 341.171 24.7655 341.442 25.0265 341.66C25.2875 341.878 25.5913 342.038 25.9202 342.129C26.2478 342.22 26.5912 342.24 26.9274 342.189C27.2646 342.137 27.5855 342.013 27.871 341.827C27.871 341.827 28.3263 344.615 31.4174 343.641C34.5085 342.667 33.3558 341.085 33.3558 341.085C33.3558 341.085 35.8318 342.167 37.1189 341.531C37.6172 341.314 38.0668 340.995 38.4361 340.595C38.8055 340.195 39.0873 339.724 39.2661 339.211C39.3293 338.903 39.7373 338.793 40.0819 338.992C40.4934 339.347 40.9729 339.614 41.4928 339.776C42.0128 339.938 42.5612 339.989 43.1017 339.928C44.3983 339.872 45.3311 338.458 46.0015 337.697C46.6719 336.935 47.5621 339.17 48.9583 338.941C50.3544 338.712 51.1227 335.597 51.1227 335.597C51.4712 335.614 51.8207 335.559 52.1458 335.434C52.4725 335.31 52.7698 335.12 53.0191 334.875C53.2685 334.631 53.4637 334.337 53.5943 334.014C53.7246 333.69 53.7875 333.343 53.7774 332.995C53.7223 332.528 53.5317 332.089 53.2285 331.73C52.9255 331.371 52.5231 331.11 52.0713 330.979Z" fill="#7B384D"/>
<path d="M41.3187 331.094C41.1378 331.143 40.9458 331.117 40.7842 331.025C40.6236 330.931 40.5053 330.778 40.457 330.598C40.3115 330.055 39.9668 329.856 39.8308 329.893C39.6949 329.929 39.4956 330.274 39.6411 330.816C39.6895 330.997 39.6636 331.189 39.5713 331.35C39.4773 331.511 39.3239 331.629 39.143 331.677C38.9622 331.726 38.7702 331.7 38.6086 331.608C38.448 331.514 38.3297 331.361 38.2813 331.181C38.1559 330.713 38.2222 330.215 38.4652 329.795C38.7083 329.375 39.1072 329.069 39.5763 328.943C40.0454 328.817 40.5439 328.883 40.9644 329.125C41.385 329.367 41.6912 329.765 41.8167 330.234C41.8353 330.412 41.7973 330.591 41.7073 330.744C41.619 330.899 41.4827 331.021 41.3187 331.094Z" fill="#23272A"/>
<path d="M36.1502 332.479C35.9693 332.527 35.7774 332.502 35.6157 332.41C35.4551 332.316 35.3369 332.163 35.2885 331.983C35.143 331.44 34.7983 331.241 34.6624 331.278C34.5264 331.314 34.3272 331.658 34.4726 332.201C34.521 332.382 34.4951 332.573 34.4029 332.735C34.3089 332.895 34.1554 333.014 33.9746 333.062C33.796 333.081 33.6168 333.043 33.4631 332.953C33.3083 332.865 33.1859 332.729 33.1129 332.566C32.9874 332.097 33.0537 331.6 33.2968 331.18C33.5398 330.759 33.9387 330.453 34.4078 330.328C34.8769 330.202 35.3755 330.268 35.796 330.51C36.2165 330.752 36.5228 331.15 36.6482 331.618C36.6669 331.797 36.6288 331.975 36.5388 332.129C36.4505 332.284 36.3143 332.406 36.1502 332.479Z" fill="#23272A"/>
</g>
</g>
<defs>
<filter id="filter0_d_26218_66707" x="46.1156" y="101.096" width="246.394" height="165.817" filterUnits="userSpaceOnUse" color-interpolation-filters="sRGB">
<feFlood flood-opacity="0" result="BackgroundImageFix"/>
<feColorMatrix in="SourceAlpha" type="matrix" values="0 0 0 0 0 0 0 0 0 0 0 0 0 0 0 0 0 0 127 0" result="hardAlpha"/>
<feOffset dy="6.83993"/>
<feGaussianBlur stdDeviation="6.83993"/>
<feColorMatrix type="matrix" values="0 0 0 0 0 0 0 0 0 0 0 0 0 0 0 0 0 0 0.24 0"/>
<feBlend mode="normal" in2="BackgroundImageFix" result="effect1_dropShadow_26218_66707"/>
<feBlend mode="normal" in="SourceGraphic" in2="effect1_dropShadow_26218_66707" result="shape"/>
</filter>
<filter id="filter1_d_26218_66707" x="102.945" y="212.16" width="235.978" height="144.317" filterUnits="userSpaceOnUse" color-interpolation-filters="sRGB">
<feFlood flood-opacity="0" result="BackgroundImageFix"/>
<feColorMatrix in="SourceAlpha" type="matrix" values="0 0 0 0 0 0 0 0 0 0 0 0 0 0 0 0 0 0 127 0" result="hardAlpha"/>
<feOffset dy="6.83993"/>
<feGaussianBlur stdDeviation="6.83993"/>
<feColorMatrix type="matrix" values="0 0 0 0 0 0 0 0 0 0 0 0 0 0 0 0 0 0 0.24 0"/>
<feBlend mode="normal" in2="BackgroundImageFix" result="effect1_dropShadow_26218_66707"/>
<feBlend mode="normal" in="SourceGraphic" in2="effect1_dropShadow_26218_66707" result="shape"/>
</filter>
<linearGradient id="paint0_linear_26218_66707" x1="174.881" y1="143.009" x2="171.176" y2="209.953" gradientUnits="userSpaceOnUse">
<stop offset="0.13" stop-color="#34F4CF"/>
<stop offset="0.68" stop-color="#19D1C2"/>
<stop offset="1" stop-color="#0EC2BC"/>
</linearGradient>
<linearGradient id="paint1_linear_26218_66707" x1="234.742" y1="229.56" x2="205.449" y2="366.682" gradientUnits="userSpaceOnUse">
<stop offset="0.34" stop-color="#4C7DFF"/>
<stop offset="0.99" stop-color="#3464F0"/>
</linearGradient>
<linearGradient id="paint2_linear_26218_66707" x1="117" y1="389.012" x2="143.304" y2="382.832" gradientUnits="userSpaceOnUse">
<stop offset="0.09375" stop-color="#8497F8"/>
<stop offset="1" stop-color="#79DCF9"/>
</linearGradient>
<clipPath id="clip0_26218_66707">
<rect width="257" height="406" fill="white"/>
</clipPath>
</defs>
</svg>
